<svg xmlns="http://www.w3.org/2000/svg" viewBox="0 0 167.24 44.74"><title>Optiver</title><defs><style>.a{fill:#231f20;}.b{fill:#e46041;}</style></defs><rect class="a" x="63.61" y="7.06" width="2.35" height="4.71"></rect><rect class="a" x="63.61" y="14.13" width="2.35" height="23.55"></rect><polygon class="a" points="81.28 35.06 71.86 14.13 69.5 14.13 80.1 37.68 82.45 37.68 93.05 14.13 90.7 14.13 81.28 35.06"></polygon><path class="b" d="M138.68,33l8.56-19.55L155.77,33ZM150.76,0H148.4L146,5.38l-14.13,32.3h35.33Z"></path><path class="a" d="M116.6,21.19a7.06,7.06,0,0,1,7.07-7.06h7.06v2.35h-7.06A4.71,4.71,0,0,0,119,21.19V37.68H116.6Z"></path><path class="a" d="M17.69,30.64A4.71,4.71,0,0,1,13,35.35H7.07a4.71,4.71,0,0,1-4.72-4.71l0-9.45a4.71,4.71,0,0,1,4.71-4.71H13a4.71,4.71,0,0,1,4.71,4.71ZM20,21.19A7.06,7.06,0,0,0,13,14.13H7.09A7.06,7.06,0,0,0,0,21.19l0,9.45A7.06,7.06,0,0,0,7.07,37.7H13A7.06,7.06,0,0,0,20,30.64Z"></path><path class="a" d="M40.06,30.61a4.7,4.7,0,0,1-4.71,4.71H25.93V16.48h9.42a4.71,4.71,0,0,1,4.71,4.71Zm2.36-9.42a7.06,7.06,0,0,0-7.07-7.06H23.58V44.74h2.35V37.68h9.42a7.06,7.06,0,0,0,7.07-7.07Z"></path><path class="a" d="M49.48,30.61a4.71,4.71,0,0,0,4.71,4.71h5.89v2.36H54.19a7.06,7.06,0,0,1-7.06-7.07V16.48H44.77V14.13h2.36V9.42h2.35v4.71h8.75l-1.06,2.35H49.48Z"></path><path class="a" d="M96.59,21.19a4.71,4.71,0,0,1,4.71-4.71H106a4.71,4.71,0,0,1,4.71,4.71v2.36H96.58Zm14.13,9.42A4.71,4.71,0,0,1,106,35.32H101.3a4.7,4.7,0,0,1-4.71-4.71V25.9h16.49V21.19A7.06,7.06,0,0,0,106,14.13H101.3a7.06,7.06,0,0,0-7.07,7.06v9.42a7.06,7.06,0,0,0,7.07,7.07H106a7.06,7.06,0,0,0,7.06-7.07Z"></path></svg>
