<?xml version="1.0" encoding="UTF-8" standalone="no"?><!DOCTYPE svg PUBLIC "-//W3C//DTD SVG 1.1//EN" "http://www.w3.org/Graphics/SVG/1.1/DTD/svg11.dtd"><svg width="100%" height="100%" viewBox="0 0 1000 302" version="1.1" xmlns="http://www.w3.org/2000/svg" xmlns:xlink="http://www.w3.org/1999/xlink" xml:space="preserve" xmlns:serif="http://www.serif.com/" style="fill-rule:evenodd;clip-rule:evenodd;stroke-linejoin:round;stroke-miterlimit:2;"><path id="path8" d="M620.38,235.668c-58.111,42.833 -142.341,65.686 -214.86,65.686c-101.685,0 -193.227,-37.609 -262.483,-100.161c-5.441,-4.919 -0.565,-11.622 5.964,-7.792c74.74,43.486 167.153,69.647 262.613,69.647c64.38,0 135.202,-13.32 200.322,-40.961c9.837,-4.179 18.064,6.442 8.444,13.581" style="fill:#fff;"/><path id="path10" d="M644.539,208.027c-7.4,-9.489 -49.101,-4.483 -67.819,-2.263c-5.702,0.696 -6.572,-4.266 -1.436,-7.836c33.213,-23.375 87.712,-16.628 94.067,-8.793c6.355,7.879 -1.654,62.508 -32.865,88.583c-4.788,4.004 -9.359,1.871 -7.226,-3.439c7.009,-17.499 22.723,-56.719 15.279,-66.252" style="fill:#fff;"/><path id="path12" d="M578.026,32.908l0,-22.722c0,-3.439 2.612,-5.746 5.746,-5.746l101.728,0c3.265,0 5.877,2.351 5.877,5.746l-0,19.458c-0.044,3.264 -2.786,7.53 -7.661,14.277l-52.714,75.263c19.588,-0.479 40.264,2.437 58.024,12.449c4.005,2.264 5.093,5.572 5.398,8.836l-0,24.246c-0,3.309 -3.657,7.183 -7.487,5.18c-31.298,-16.41 -72.868,-18.195 -107.474,0.174c-3.526,1.916 -7.226,-1.915 -7.226,-5.223l-0,-23.027c-0,-3.7 0.043,-10.012 3.743,-15.627l61.072,-87.581l-53.149,-0c-3.265,-0 -5.877,-2.307 -5.877,-5.703" style="fill:#fff;"/><path id="path14" d="M206.939,174.684l-30.95,-0c-2.96,-0.218 -5.31,-2.438 -5.528,-5.268l-0,-158.838c-0,-3.178 2.655,-5.702 5.963,-5.702l28.86,-0c3.004,0.13 5.398,2.437 5.616,5.31l-0,20.764l0.566,-0c7.53,-20.067 21.677,-29.426 40.743,-29.426c19.371,-0 31.472,9.359 40.178,29.426c7.487,-20.067 24.507,-29.426 42.746,-29.426c12.971,-0 27.162,5.354 35.824,17.368c9.794,13.363 7.792,32.778 7.792,49.798l-0.044,100.248c0,3.177 -2.655,5.746 -5.963,5.746l-30.906,-0c-3.09,-0.218 -5.572,-2.699 -5.572,-5.746l0,-84.186c0,-6.704 0.61,-23.419 -0.87,-29.774c-2.307,-10.665 -9.228,-13.668 -18.196,-13.668c-7.487,-0 -15.322,5.005 -18.5,13.015c-3.177,8.009 -2.872,21.416 -2.872,30.427l-0,84.186c-0,3.177 -2.656,5.746 -5.964,5.746l-30.906,-0c-3.134,-0.218 -5.572,-2.699 -5.572,-5.746l-0.043,-84.186c-0,-17.717 2.916,-43.791 -19.066,-43.791c-22.243,0 -21.373,25.421 -21.373,43.791l0,84.186c0,3.177 -2.655,5.746 -5.963,5.746" style="fill:#fff;"/><path id="path16" d="M778.958,1.524c45.923,-0 70.779,39.437 70.779,89.583c-0,48.448 -27.467,86.885 -70.779,86.885c-45.097,-0 -69.647,-39.438 -69.647,-88.582c-0,-49.45 24.855,-87.886 69.647,-87.886m0.261,32.429c-22.809,0 -24.246,31.08 -24.246,50.451c0,19.414 -0.304,60.854 23.985,60.854c23.985,-0 25.116,-33.431 25.116,-53.803c0,-13.407 -0.566,-29.425 -4.614,-42.136c-3.482,-11.056 -10.403,-15.366 -20.241,-15.366" style="fill:#fff;"/><path id="path18" d="M909.285,174.684l-30.819,-0c-3.091,-0.218 -5.572,-2.699 -5.572,-5.746l-0.043,-158.882c0.261,-2.917 2.829,-5.18 5.963,-5.18l28.686,-0c2.699,0.13 4.919,1.958 5.528,4.44l0,24.289l0.566,-0c8.663,-21.721 20.807,-32.081 42.18,-32.081c13.886,-0 27.424,5.006 36.13,18.717c8.096,12.711 8.096,34.084 8.096,49.45l0,99.987c-0.348,2.786 -2.916,5.006 -5.963,5.006l-31.037,-0c-2.829,-0.218 -5.18,-2.307 -5.485,-5.006l0,-86.276c0,-17.368 2.003,-42.789 -19.37,-42.789c-7.531,0 -14.452,5.05 -17.891,12.711c-4.353,9.707 -4.919,19.37 -4.919,30.078l0,85.536c-0.043,3.177 -2.742,5.746 -6.05,5.746" style="fill:#fff;"/><path id="path28" d="M496.931,98.812c0,12.058 0.305,22.113 -5.789,32.821c-4.919,8.706 -12.754,14.06 -21.417,14.06c-11.883,0 -18.848,-9.054 -18.848,-22.418c0,-26.378 23.637,-31.167 46.054,-31.167l0,6.704m31.211,75.436c-2.046,1.828 -5.006,1.959 -7.313,0.74c-10.273,-8.531 -12.145,-12.493 -17.76,-20.633c-16.977,17.325 -29.034,22.505 -51.017,22.505c-26.074,0 -46.315,-16.062 -46.315,-48.23c0,-25.117 13.581,-42.224 32.995,-50.582c16.803,-7.4 40.265,-8.705 58.199,-10.751l0,-4.005c0,-7.357 0.566,-16.062 -3.787,-22.418c-3.743,-5.702 -10.969,-8.053 -17.368,-8.053c-11.797,0 -22.287,6.051 -24.855,18.587c-0.523,2.786 -2.569,5.529 -5.398,5.659l-29.992,-3.221c-2.524,-0.566 -5.354,-2.612 -4.614,-6.486c6.878,-36.39 39.786,-47.36 69.212,-47.36c15.061,0 34.736,4.005 46.62,15.41c15.061,14.06 13.624,32.821 13.624,53.236l0,48.231c0,14.495 6.008,20.85 11.666,28.685c1.959,2.786 2.394,6.138 -0.13,8.227c-6.312,5.268 -17.543,15.062 -23.724,20.546l-0.043,-0.087" style="fill:#fff;"/><path id="path30" d="M91.194,98.812c0,12.058 0.305,22.113 -5.789,32.821c-4.919,8.706 -12.711,14.06 -21.417,14.06c-11.883,0 -18.805,-9.054 -18.805,-22.418c0,-26.378 23.637,-31.167 46.011,-31.167l0,6.704m31.211,75.436c-2.046,1.828 -5.006,1.959 -7.313,0.74c-10.273,-8.531 -12.102,-12.493 -17.76,-20.633c-16.977,17.325 -28.991,22.505 -51.017,22.505c-26.03,0 -46.315,-16.062 -46.315,-48.23c-0,-25.117 13.625,-42.224 32.995,-50.582c16.803,-7.4 40.265,-8.705 58.199,-10.751l0,-4.005c0,-7.357 0.566,-16.062 -3.744,-22.418c-3.787,-5.702 -11.012,-8.053 -17.368,-8.053c-11.796,0 -22.33,6.051 -24.899,18.587c-0.522,2.786 -2.568,5.529 -5.354,5.659l-30.035,-3.221c-2.525,-0.566 -5.31,-2.612 -4.614,-6.486c6.921,-36.39 39.786,-47.36 69.212,-47.36c15.061,0 34.736,4.005 46.62,15.41c15.061,14.06 13.624,32.821 13.624,53.236l0,48.231c0,14.495 6.007,20.85 11.666,28.685c2.003,2.786 2.438,6.138 -0.087,8.227c-6.312,5.268 -17.542,15.062 -23.723,20.546l-0.087,-0.087" style="fill:#fff;"/></svg>