<?xml version="1.0" encoding="UTF-8" standalone="no"?><!DOCTYPE svg PUBLIC "-//W3C//DTD SVG 1.1//EN" "http://www.w3.org/Graphics/SVG/1.1/DTD/svg11.dtd"><svg width="100%" height="100%" viewBox="0 0 237 73" version="1.1" xmlns="http://www.w3.org/2000/svg" xmlns:xlink="http://www.w3.org/1999/xlink" xml:space="preserve" xmlns:serif="http://www.serif.com/" style="fill-rule:evenodd;clip-rule:evenodd;stroke-linejoin:round;stroke-miterlimit:2;"><path d="M53.6,2.35l15.9,0l0,68.1l-15.9,0l0,-7.1c-7,8.1 -15.5,9.2 -20.4,9.2c-21,0 -33,-17.5 -33,-36.2c0,-22.2 15.2,-35.8 33.2,-35.8c5,0 13.8,1.3 20.2,9.7l-0,-7.9Zm-37.1,34.4c-0,11.7 7.4,21.7 18.9,21.7c10,0 19.3,-7.3 19.3,-21.5c0,-14.9 -9.2,-22 -19.3,-22c-11.5,-0.1 -18.9,9.7 -18.9,21.8Zm71.9,-34.4l15.9,0l0,6.1c1.8,-2.1 4.4,-4.4 6.6,-5.7c3.1,-1.8 6.1,-2.3 9.7,-2.3c3.9,0 8.1,0.6 12.5,3.2l-6.5,14.4c-3.6,-2.3 -6.5,-2.4 -8.1,-2.4c-3.4,0 -6.8,0.5 -9.9,3.7c-4.4,4.7 -4.4,11.2 -4.4,15.7l0,35.4l-15.9,0l0.1,-68.1Zm54.9,0l15.9,0l0,6.3c5.3,-6.5 11.6,-8.1 16.8,-8.1c7.1,0 13.8,3.4 17.6,10c5.7,-8.1 14.2,-10 20.2,-10c8.3,0 15.5,3.9 19.4,10.7c1.3,2.3 3.6,7.3 3.6,17.2l0,42.1l-15.9,0l0,-37.4c0,-7.6 -0.8,-10.7 -1.5,-12.1c-1,-2.6 -3.4,-6 -9.1,-6c-3.9,0 -7.3,2.1 -9.4,5c-2.8,3.9 -3.1,9.7 -3.1,15.5l0,35.1l-15.9,0l0,-37.5c0,-7.6 -0.8,-10.7 -1.5,-12.1c-1,-2.6 -3.4,-6 -9.1,-6c-3.9,0 -7.3,2.1 -9.4,5c-2.8,3.9 -3.1,9.7 -3.1,15.5l0,35.1l-15.5,0l0,-68.3Z" style="fill:#fff;fill-rule:nonzero;"/></svg>