<?xml version="1.0" encoding="UTF-8" standalone="no"?><!DOCTYPE svg PUBLIC "-//W3C//DTD SVG 1.1//EN" "http://www.w3.org/Graphics/SVG/1.1/DTD/svg11.dtd"><svg width="100%" height="100%" viewBox="0 0 195 36" version="1.1" xmlns="http://www.w3.org/2000/svg" xmlns:xlink="http://www.w3.org/1999/xlink" xml:space="preserve" xmlns:serif="http://www.serif.com/" style="fill-rule:evenodd;clip-rule:evenodd;stroke-linejoin:round;stroke-miterlimit:2;"><g><path d="M-0,-0l14.296,-0c2.723,-0 4.765,0.681 6.278,1.815c1.664,1.362 2.572,3.329 2.572,5.749c-0,2.799 -1.135,4.538 -3.404,5.597l0,0.152c3.026,0.983 4.765,3.706 4.765,6.959c0,3.101 -1.21,5.521 -3.177,7.034c-1.664,1.21 -3.782,1.74 -6.656,1.74l-14.674,-0l-0,-29.046Zm12.859,11.346c1.513,0 2.647,-0.832 2.647,-2.572c0,-1.664 -1.134,-2.496 -2.723,-2.496l-4.916,0l-0,4.992l4.992,0l-0,0.076Zm0.681,11.27c1.739,0 3.025,-1.059 3.025,-2.95c0,-2.042 -1.361,-2.95 -3.025,-2.95l-5.598,0l0,5.976l5.598,0l-0,-0.076Z" style="fill:#fff;fill-rule:nonzero;"/><rect x="25.793" y="-0" width="7.488" height="29.121" style="fill:#fff;fill-rule:nonzero;"/><path d="M34.794,18.759c0,-6.581 4.236,-10.968 10.817,-10.968c6.581,-0 10.741,4.463 10.741,10.968c-0,6.58 -4.16,10.968 -10.741,10.968c-6.581,-0 -10.817,-4.388 -10.817,-10.968Zm14.069,-0c0,-3.631 -1.134,-5.9 -3.403,-5.9c-2.27,-0 -3.329,2.269 -3.329,5.9c0,3.63 1.059,5.975 3.329,5.975c2.269,-0.075 3.403,-2.345 3.403,-5.975Z" style="fill:#fff;fill-rule:nonzero;"/><path d="M57.184,18.759c-0,-6.581 4.236,-10.968 10.816,-10.968c6.581,-0 10.666,4.387 10.666,10.968c-0,6.58 -4.161,10.968 -10.741,10.968c-6.505,-0 -10.741,-4.388 -10.741,-10.968Zm14.069,-0c-0,-3.631 -1.135,-5.9 -3.404,-5.9c-2.269,-0 -3.328,2.269 -3.328,5.9c-0,3.63 1.059,5.975 3.328,5.975c2.269,-0.075 3.404,-2.345 3.404,-5.975Z" style="fill:#fff;fill-rule:nonzero;"/><path d="M80.178,8.32l6.959,0l0,3.102l0.152,-0c1.361,-2.421 3.252,-3.707 6.278,-3.707c2.647,0 4.614,1.286 5.597,3.555l0.151,0c1.664,-2.723 3.858,-3.555 6.43,-3.555c4.841,0 6.883,3.555 6.883,8.321l0,13.01l-7.261,-0l-0,-11.724c-0,-2.118 -0.681,-3.48 -2.497,-3.48c-1.815,0 -2.723,1.664 -2.723,3.933l0,11.271l-7.261,-0l-0,-11.724c-0,-2.118 -0.681,-3.48 -2.496,-3.48c-1.816,0 -2.723,1.664 -2.723,3.933l-0,11.271l-7.489,-0l0,-20.726Z" style="fill:#fff;fill-rule:nonzero;"/><path d="M121.78,26.323l-0.075,-0l-0,2.723l-6.959,-0l-0,-29.046l7.261,-0l0,10.438l0.152,0c1.361,-1.815 3.252,-2.798 5.9,-2.798c5.219,-0 8.244,4.689 8.244,10.967c0,7.035 -3.252,11.12 -8.698,11.12c-2.269,-0 -4.614,-1.059 -5.825,-3.404Zm7.035,-7.791c-0,-3.328 -1.21,-5.522 -3.404,-5.522c-2.269,0 -3.631,2.194 -3.631,5.522c0,3.328 1.438,5.522 3.631,5.522c2.194,-0 3.404,-2.118 3.404,-5.522Z" style="fill:#fff;fill-rule:nonzero;"/><path d="M137.135,18.683c0,-6.505 4.312,-10.968 10.514,-10.968c3.102,0 5.446,0.984 7.262,2.723c2.42,2.345 3.479,5.976 3.404,10.212l-13.918,-0c0.302,2.571 1.513,3.933 3.706,3.933c1.286,0 2.421,-0.605 2.875,-1.967l7.034,0c-1.21,4.766 -4.917,7.111 -10.136,7.111c-6.429,-0.076 -10.741,-4.463 -10.741,-11.044Zm7.262,-2.193l6.656,-0c-0.151,-2.497 -1.513,-3.782 -3.252,-3.782c-2.043,-0.076 -3.177,1.361 -3.404,3.782Z" style="fill:#fff;fill-rule:nonzero;"/><path d="M166.559,11.875l0.152,0c1.512,-2.874 3.479,-4.008 5.975,-4.008c0.605,-0 0.984,0.075 1.21,0.226l0,6.354l-0.151,0c-4.311,-0.756 -6.807,1.286 -6.807,5.976l-0,8.698l-7.338,0l0,-20.801l6.959,0l0,3.555Z" style="fill:#fff;fill-rule:nonzero;"/><path d="M174.653,29.121l7.034,0c0.303,0.908 1.211,1.74 2.95,1.74c2.345,0 3.177,-1.437 3.177,-3.631l0,-1.512l-0.151,-0c-1.135,1.361 -2.723,2.344 -4.992,2.344c-4.463,0 -8.396,-3.328 -8.396,-9.833c-0,-5.975 3.177,-10.589 8.017,-10.589c2.799,-0 4.463,1.134 5.598,2.874l0.151,-0l0,-2.269l6.959,-0l-0,18.002c-0,3.328 -1.135,5.9 -2.874,7.413c-1.816,1.588 -4.387,2.269 -7.337,2.269c-5.598,0.076 -9.455,-2.194 -10.136,-6.808Zm13.464,-11.194c-0,-2.572 -1.21,-4.69 -3.328,-4.69c-2.043,0 -3.329,1.815 -3.329,4.69c0,2.798 1.286,4.765 3.329,4.765c2.042,0 3.328,-2.042 3.328,-4.765Z" style="fill:#fff;fill-rule:nonzero;"/></g></svg>