<?xml version="1.0" encoding="UTF-8" standalone="no"?><!DOCTYPE svg PUBLIC "-//W3C//DTD SVG 1.1//EN" "http://www.w3.org/Graphics/SVG/1.1/DTD/svg11.dtd"><svg width="100%" height="100%" viewBox="0 0 132 50" version="1.1" xmlns="http://www.w3.org/2000/svg" xmlns:xlink="http://www.w3.org/1999/xlink" xml:space="preserve" xmlns:serif="http://www.serif.com/" style="fill-rule:evenodd;clip-rule:evenodd;stroke-linejoin:round;stroke-miterlimit:2;"><g><path d="M18.428,24.526c-0,3.314 -2.652,5.966 -5.966,5.966c-3.314,-0 -5.966,-2.652 -5.966,-5.966c0,-3.314 2.652,-5.966 5.966,-5.966l5.966,0l-0,5.966Zm6.628,-24.526l-6.628,0l-0,12.064l-5.966,0c-6.894,0 -12.462,5.568 -12.462,12.462c0,6.894 5.568,12.462 12.462,12.462c6.894,-0 12.462,-5.568 12.462,-12.462l-0,-12.462l0.132,-12.064Z" style="fill:#fff;fill-rule:nonzero;"/><path d="M90.945,30.492c3.315,-0 5.966,-2.652 5.966,-5.966c0,-3.314 -2.651,-5.966 -5.966,-5.966c-3.314,0 -5.966,2.652 -5.966,5.966c0.133,3.314 2.785,5.966 5.966,5.966m-12.329,-5.966c-0,-6.894 5.568,-12.462 12.462,-12.462c6.894,0 12.462,5.568 12.462,12.462c-0,6.894 -5.568,12.462 -12.462,12.462c-6.894,-0 -12.462,-5.568 -12.462,-12.462" style="fill:#fff;fill-rule:nonzero;"/><path d="M124.354,24.526c-0,-3.182 -2.652,-5.833 -5.833,-5.833c-3.182,-0 -5.834,2.651 -5.834,5.833l0,11.932l-6.496,-0l0,-11.932c0,-6.894 5.568,-12.462 12.462,-12.462c6.894,0 12.462,5.568 12.462,12.462l-0,11.932l-6.496,-0c-0.265,-0 -0.265,-10.341 -0.265,-11.932" style="fill:#fff;fill-rule:nonzero;"/><path d="M63.37,20.284c-0.928,-0.663 -0.663,-1.724 0.928,-2.121c1.989,-0.531 5.436,-0.133 8.352,1.193l3.049,-4.243c-1.325,-1.06 -4.242,-2.519 -8.484,-2.784c-0,0 -7.159,-0.928 -10.076,4.508c0,-0 -2.519,5.038 2.519,8.219c3.049,1.856 8.352,2.652 10.076,3.447c1.325,0.796 0.928,2.254 -1.061,2.652c-3.447,0.795 -7.954,-1.193 -9.413,-2.254l-3.182,4.375c2.122,1.591 4.773,3.049 9.015,3.712c0,-0 6.762,1.193 10.474,-3.447c0.663,-0.795 3.712,-6.496 -2.387,-9.81c-3.181,-1.724 -8.219,-2.519 -9.81,-3.447" style="fill:#fff;fill-rule:nonzero;"/><path d="M32.878,41.23c0.265,0.133 3.315,2.254 6.231,2.254c7.159,0.133 7.557,-7.291 7.557,-9.015c-1.326,1.458 -4.11,2.386 -5.833,2.386c-6.894,0 -12.33,-5.303 -12.33,-12.196l0,-12.065l6.496,0l0,12.065c0,3.181 2.652,5.833 5.834,5.833c3.181,-0 5.833,-2.652 5.833,-5.833l-0,-12.065l6.496,0l-0,12.065c-0,10.738 0.53,21.742 -9.943,24.261c-7.822,1.856 -13.39,-3.05 -13.788,-3.315l3.447,-4.375Z" style="fill:#fff;fill-rule:nonzero;"/></g></svg>