<?xml version="1.0" encoding="UTF-8" standalone="no"?><!DOCTYPE svg PUBLIC "-//W3C//DTD SVG 1.1//EN" "http://www.w3.org/Graphics/SVG/1.1/DTD/svg11.dtd"><svg width="100%" height="100%" viewBox="0 0 856 109" version="1.1" xmlns="http://www.w3.org/2000/svg" xmlns:xlink="http://www.w3.org/1999/xlink" xml:space="preserve" xmlns:serif="http://www.serif.com/" style="fill-rule:evenodd;clip-rule:evenodd;stroke-linejoin:round;stroke-miterlimit:2;"><path d="M549.766,107.598l-0.001,-0.002c-16.195,3.819 -33.434,-1.254 -46.322,-13.629c-17.271,-16.584 -21.258,-43.534 -9.865,-66.68c12.467,-25.327 44.727,-34.646 71.406,-20.627c3.677,1.932 8.298,5.185 10.27,7.228l3.585,3.714l-6.412,6.858l-6.411,6.859l-3.704,-3.253c-6.673,-5.859 -11.578,-7.464 -22.806,-7.463c-8.92,0.001 -10.551,0.291 -15.09,2.686c-5.952,3.14 -10.85,8.378 -13.804,14.763c-1.772,3.828 -2.106,6.458 -2.106,16.551c-0,11.078 0.204,12.384 2.663,17c6.008,11.28 15.37,16.877 28.336,16.943c9.486,0.048 14.418,-1.871 21.902,-8.524l4.903,-4.357l6.347,6.833c3.492,3.758 6.348,7.207 6.348,7.664c0,1.501 -11.268,10.048 -17.184,13.034c-3.187,1.609 -8.612,3.59 -12.055,4.402Zm100.96,-3.83l-0.001,0c-8.923,2.92 -16.223,5.273 -16.223,5.228c-0,-0.045 -7.131,-2.401 -15.847,-5.237l-15.847,-5.156l-19.703,-27l-0.049,-34l19.541,-27l31.906,-10.603l32.428,10.512l20.072,27.57l0,32.741l-20.054,27.636l-16.223,5.309Zm-26.723,-17.826l0.001,-0c5.225,1.65 9.889,3.037 10.364,3.081c0.475,0.044 5.352,-1.343 10.838,-3.082l9.974,-3.161l12.751,-17.177l0.073,-22.012l-12.489,-17.223l-9.557,-3.132c-5.257,-1.723 -10.159,-3.133 -10.895,-3.133c-0.736,0 -5.674,1.338 -10.974,2.974l-9.636,2.973l-12.45,17.121l0,22.516l12.5,17.254l9.5,3.001Zm-556.25,18.197l0.001,0.001c-4.66,2.91 -4.99,2.963 -18,2.895l-13.253,-0.069l-22.792,-14.362l-13.702,-24l-0.007,-27.944l6.132,-11.028c3.372,-6.066 6.843,-11.845 7.713,-12.843c0.87,-0.998 6.388,-4.711 12.262,-8.25l10.68,-6.435l27.469,-0l10.622,6.613c10.234,6.372 11.805,7.691 16.174,13.575l1.996,2.688l-6.97,5.562c-3.834,3.059 -7.332,5.562 -7.774,5.562c-0.442,0 -2.096,-1.619 -3.675,-3.599c-1.579,-1.979 -5.933,-5.579 -9.675,-8c-6.577,-4.254 -7.066,-4.4 -14.629,-4.383c-7.649,0.017 -7.998,0.128 -15.456,4.91c-6.841,4.386 -8.057,5.665 -11.75,12.355c-4.034,7.307 -4.12,7.665 -4.12,17.209c0,9.627 0.053,9.839 4.246,17.209c3.736,6.567 5.096,7.993 11.334,11.88c6.924,4.316 7.285,4.418 15.53,4.418c8.217,0 8.627,-0.115 15.416,-4.334l6.975,-4.334l0.3,-5.666l0.3,-5.666l-24.1,0l-0,-19l44.031,0l-0.266,28.75l-0.265,28.75l-9.684,0.286l-9.684,0.285l-0.632,-5.999l-4.747,2.964Zm59.247,-15.939l0.001,18.904l-17,0l-0,-105l26.25,0.069l26.25,0.069l17,12.48l6.771,20.76l-3.33,10.302c-3.307,10.233 -3.368,10.33 -9.101,14.351c-3.174,2.227 -6.056,4.509 -6.405,5.073c-0.348,0.563 3.903,9.929 9.447,20.812c5.545,10.883 9.789,20.079 9.432,20.436c-0.356,0.356 -4.846,0.648 -9.976,0.648l-9.328,0l-9.47,-18.919c-5.208,-10.406 -9.823,-19.094 -10.255,-19.307c-0.433,-0.213 -5.173,-0.206 -10.536,0.016l-9.75,0.403l0,18.903Zm0.224,-53.347l-0.276,15.25l14.616,0c14.331,0 14.692,-0.053 18.523,-2.75c2.946,-2.074 4.31,-4.003 5.544,-7.847c2.264,-7.048 0.479,-12.551 -5.573,-17.18l-4.284,-3.277l-28.274,0.554l-0.276,15.25Zm89.776,57.75l-0.001,14.5l-19,-0l0.062,-18.75l0.062,-18.75l31.456,-67l22.523,-0l32.942,69l-0.272,17.5l-0.272,17.5l-19.5,0.572l-0,-29.072l-48,0l-0,14.5Zm10.373,-39.75l-2.347,5.25l15.487,0c8.518,0 15.487,-0.38 15.487,-0.845c-0,-1.069 -13.928,-31.397 -14.878,-32.396c-0.611,-0.642 -4.318,6.906 -13.749,27.991Zm92.399,35.022l-0.271,18.728l-9.267,0.288c-6.851,0.212 -9.396,-0.048 -9.76,-1c-0.272,-0.709 -0.377,-24.238 -0.234,-52.288l0.261,-51l28.75,-0.266l28.75,-0.265l-0,19.031l19,0l-0,28l-20,0l-0,-28l-37.055,0l0.277,14.25l0.277,14.25l37.574,0.544l-0.574,18.456l-18.728,0.272l-18.728,0.272l-0.272,18.728Zm88.998,-3.041l-0.27,21.764l-19.5,0.572l-0,-105.14l19.5,0.573l0.541,41.5l45.959,-0l-0,-42l19,-0l-0,105l-18.961,-0l-0.539,-43.5l-22.73,-0.269l-22.73,-0.269l-0.27,21.769Zm309.23,3.269l0,18.999l-19,0l0,-105l23.818,0c26.682,0 31.024,0.715 38.387,6.32c2.849,2.169 5.448,5.527 7.72,9.978c3.052,5.977 3.434,7.611 3.495,14.956c0.089,10.67 -2.218,17.514 -7.785,23.098c-2.274,2.282 -5.036,4.66 -6.136,5.284c-1.909,1.084 -1.514,2.113 8.693,22.641c5.88,11.828 10.418,21.78 10.083,22.115c-0.335,0.335 -5.256,0.609 -10.937,0.609l-10.328,-0l-19.02,-38l-18.99,0l-0,19Zm0.222,-52.75l-0.278,13.75l12.578,-0c13.663,-0 16.612,-0.813 20.39,-5.615c2.662,-3.383 2.785,-10.617 0.261,-15.323c-3.169,-5.91 -6.898,-7.142 -20.673,-6.832l-12,0.27l-0.278,13.75Zm136.28,61.75l0,9.5l-23.566,0.267c-12.961,0.147 -23.874,-0.041 -24.25,-0.416c-0.376,-0.376 -0.684,-4.892 -0.684,-10.035l-0,-9.352l48.5,0.536l-0,9.5Zm-47.845,-22l-0.156,11.5l-19.5,0.572l0,-67.145l19.5,0.573l0.282,11.75l0.282,11.75l37.937,-0l-0,18.957l-19.095,0.271l-19.095,0.272l-0.155,11.5Zm48.134,-64.25l-0.289,8.75l-48.5,0.536l-0,-18.036l49.078,0l-0.289,8.75Z" style="fill:#fff;fill-rule:nonzero;"/></svg>