<?xml version="1.0" encoding="UTF-8" standalone="no"?><!DOCTYPE svg PUBLIC "-//W3C//DTD SVG 1.1//EN" "http://www.w3.org/Graphics/SVG/1.1/DTD/svg11.dtd"><svg width="100%" height="100%" viewBox="0 0 149 30" version="1.1" xmlns="http://www.w3.org/2000/svg" xmlns:xlink="http://www.w3.org/1999/xlink" xml:space="preserve" xmlns:serif="http://www.serif.com/" style="fill-rule:evenodd;clip-rule:evenodd;stroke-linejoin:round;stroke-miterlimit:2;"><g><path d="M115.443,13.912l3.531,-7.717c0.303,-0.657 0.303,-0.657 0.706,-0.657c0.454,0 0.454,0 0.554,0.707l1.06,7.667l-5.851,0Zm9.53,-10.744c-0.555,-3.026 -0.555,-3.026 -4.843,-3.026c-4.036,0 -3.986,0 -5.197,2.472l-9.13,18.915c-1.311,2.723 -1.109,2.926 2.27,2.926c2.623,-0 2.573,-0 3.683,-2.422l1.462,-3.227l8.777,-0l0.455,3.227c0.353,2.422 0.454,2.422 3.076,2.422c2.951,-0 3.234,-0.211 2.673,-3.125l-3.226,-18.162Z" style="fill:#fff;fill-rule:nonzero;"/><path d="M104.007,5.287c2.143,-0 2.151,-0.024 2.588,-2.573c0.438,-2.55 0.438,-2.573 -1.529,-2.573l-10.896,-0c-3.834,-0 -3.76,-0 -4.416,3.884l-2.791,16.248c-0.706,4.187 -0.661,4.187 3.281,4.187l10.644,-0c2.22,-0 2.169,-0 2.623,-2.522c0.455,-2.623 0.455,-2.623 -1.562,-2.623l-9.18,-0l0.756,-4.687l7.616,-0c2.069,-0 2.069,-0 2.422,-2.422c0.403,-2.471 0.403,-2.471 -2.422,-2.471l-6.81,-0l0.756,-4.439l8.929,0l-0.009,-0.009Z" style="fill:#fff;fill-rule:nonzero;"/><path d="M77.221,0.141l-15.263,-0c-2.168,-0 -2.168,-0 -2.623,2.573c-0.454,2.573 -0.403,2.573 1.514,2.573l4.971,-0l-2.766,16.04c-0.505,3.125 -0.469,3.125 2.363,3.125c2.577,-0 2.73,-0 3.083,-2.22l2.92,-16.95l4.744,0c2.141,0 2.142,0 2.586,-2.573c0.444,-2.573 0.441,-2.573 -1.526,-2.573" style="fill:#fff;fill-rule:nonzero;"/><path d="M35.483,0.141c-2.656,-0 -2.707,0.017 -3.087,2.226l-2.007,11.68c-0.555,3.379 -1.472,5.363 -4.751,5.363c-3.28,0 -4.401,-1.967 -3.897,-4.999l1.908,-11.166c0.504,-3.125 0.412,-3.109 -2.362,-3.109c-2.711,-0 -2.78,-0.022 -3.133,2.198l-2.012,11.717c-1.147,6.634 2.939,10.745 8.789,10.745c6.562,-0 9.859,-2.925 10.968,-9.937l1.989,-11.594c0.536,-3.124 0.414,-3.124 -2.411,-3.124" style="fill:#fff;fill-rule:nonzero;"/><path d="M12.963,0.144l-6.684,-0c-2.187,-0 -2.187,-0 -2.633,2.532c-0.445,2.533 -0.393,2.609 1.544,2.609l3.965,0l-2.201,12.836c-0.497,2.881 -1.787,4.817 -5.662,6.009c-0.994,0.298 -1.292,0.695 -1.292,1.142c0,0.497 0.198,0.994 0.597,2.031c0.597,1.539 0.993,1.837 1.539,1.837c0.545,0 1.539,-0.298 1.887,-0.397c5.512,-1.787 7.697,-6.008 8.593,-11.075l2.482,-14.451c0.547,-3.03 0.547,-3.08 -2.135,-3.08" style="fill:#fff;fill-rule:nonzero;"/><path d="M47.765,19.324c2.154,-0.126 3.281,-1.048 3.281,-2.107c-0,-1.261 -1.563,-1.719 -3.633,-2.32c-4.085,-1.261 -7.718,-2.692 -7.718,-7.031c0,-5.094 4.187,-7.866 9.484,-7.866c2.22,0 4.768,0.13 6.421,0.283c1.482,0.136 1.754,0.664 1.373,2.881c-0.381,2.217 -0.897,2.446 -2.126,2.343c-1.93,-0.177 -3.867,-0.258 -5.804,-0.24c-2.719,0.031 -3.5,0.953 -3.5,1.912c0,1.161 1.059,1.815 3.581,2.471c4.687,1.363 7.768,3.209 7.768,7.245c-0,4.742 -3.531,7.516 -9.18,7.736c-2.697,0.103 -5.397,-0.047 -8.065,-0.446c-1.798,-0.263 -1.866,-0.294 -1.416,-2.878c0.41,-2.358 0.469,-2.52 2.117,-2.323c3.184,0.379 5.254,0.468 7.409,0.337" style="fill:#fff;fill-rule:nonzero;"/><path d="M146.5,0.141l-15.262,-0c-2.169,-0 -2.169,-0 -2.623,2.573c-0.455,2.573 -0.404,2.573 1.513,2.573l4.972,-0l-2.767,16.04c-0.505,3.125 -0.469,3.125 2.364,3.125c2.576,-0 2.729,-0 3.082,-2.22l2.92,-16.95l4.742,0c2.14,0 2.142,0 2.585,-2.573c0.444,-2.573 0.441,-2.573 -1.526,-2.573" style="fill:#fff;fill-rule:nonzero;"/></g></svg>