<?xml version="1.0" encoding="UTF-8" standalone="no"?><!DOCTYPE svg PUBLIC "-//W3C//DTD SVG 1.1//EN" "http://www.w3.org/Graphics/SVG/1.1/DTD/svg11.dtd"><svg width="100%" height="100%" viewBox="0 0 194 42" version="1.1" xmlns="http://www.w3.org/2000/svg" xmlns:xlink="http://www.w3.org/1999/xlink" xml:space="preserve" xmlns:serif="http://www.serif.com/" style="fill-rule:evenodd;clip-rule:evenodd;stroke-linejoin:round;stroke-miterlimit:2;"><g><path d="M80.617,8.268l-0,24.805l-4.307,0l0,-19.465l-0.057,0l-7.694,19.465l-2.871,0l-7.867,-19.465l-0.057,0l-0,19.465l-3.962,0l-0,-24.805l6.201,0l7.12,18.375l0.115,-0l7.522,-18.375l5.857,0Zm3.56,1.895c-0,-0.689 0.229,-1.263 0.746,-1.722c0.517,-0.46 1.091,-0.689 1.78,-0.689c0.747,-0 1.378,0.229 1.838,0.689c0.459,0.459 0.746,1.033 0.746,1.722c-0,0.689 -0.23,1.263 -0.746,1.723c-0.517,0.459 -1.091,0.689 -1.838,0.689c-0.746,-0 -1.321,-0.23 -1.78,-0.689c-0.459,-0.517 -0.746,-1.091 -0.746,-1.723Zm4.651,5.111l-0,17.799l-4.192,0l0,-17.799l4.192,-0Zm12.689,14.756c0.632,0 1.321,-0.115 2.067,-0.459c0.747,-0.287 1.436,-0.689 2.067,-1.148l0,3.904c-0.689,0.402 -1.435,0.689 -2.296,0.861c-0.862,0.173 -1.78,0.287 -2.814,0.287c-2.641,0 -4.766,-0.803 -6.373,-2.469c-1.666,-1.665 -2.469,-3.789 -2.469,-6.316c-0,-2.871 0.861,-5.225 2.526,-7.062c1.665,-1.838 4.019,-2.756 7.12,-2.756c0.804,-0 1.608,0.114 2.354,0.287c0.804,0.172 1.436,0.459 1.895,0.689l0,4.019c-0.632,-0.459 -1.321,-0.861 -1.952,-1.091c-0.689,-0.23 -1.378,-0.402 -2.067,-0.402c-1.665,0 -2.986,0.517 -4.02,1.608c-1.033,1.091 -1.493,2.526 -1.493,4.364c0,1.78 0.517,3.215 1.493,4.191c0.976,0.977 2.297,1.493 3.962,1.493Zm16.02,-15.044c0.345,0 0.632,0 0.919,0.058c0.287,0.057 0.517,0.115 0.689,0.172l-0,4.249c-0.23,-0.172 -0.517,-0.344 -0.976,-0.459c-0.459,-0.115 -0.919,-0.23 -1.55,-0.23c-1.034,0 -1.895,0.459 -2.584,1.321c-0.689,0.861 -1.091,2.182 -1.091,4.019l-0,8.957l-4.192,0l0,-17.799l4.192,-0l-0,2.813l0.057,0c0.402,-0.976 0.976,-1.723 1.723,-2.297c0.804,-0.516 1.722,-0.804 2.813,-0.804Zm1.838,9.475c-0,-2.929 0.861,-5.283 2.469,-7.006c1.665,-1.722 3.962,-2.583 6.89,-2.583c2.756,-0 4.938,0.803 6.488,2.469c1.551,1.665 2.355,3.904 2.355,6.718c-0,2.871 -0.862,5.167 -2.469,6.89c-1.666,1.723 -3.905,2.584 -6.776,2.584c-2.756,-0 -4.938,-0.804 -6.546,-2.412c-1.607,-1.665 -2.411,-3.904 -2.411,-6.66Zm4.364,-0.173c-0,1.838 0.401,3.273 1.263,4.249c0.861,0.977 2.067,1.493 3.617,1.493c1.493,0 2.699,-0.459 3.503,-1.493c0.804,-0.976 1.206,-2.411 1.206,-4.363c-0,-1.895 -0.402,-3.331 -1.206,-4.364c-0.804,-0.976 -2.01,-1.493 -3.445,-1.493c-1.551,-0 -2.699,0.517 -3.56,1.55c-0.977,1.091 -1.378,2.527 -1.378,4.421Zm20.096,-4.306c0,0.574 0.173,1.091 0.574,1.435c0.402,0.345 1.206,0.747 2.527,1.264c1.665,0.689 2.871,1.435 3.502,2.239c0.69,0.861 1.034,1.837 1.034,3.043c0,1.665 -0.632,2.986 -1.952,4.02c-1.263,1.033 -3.043,1.492 -5.225,1.492c-0.747,0 -1.551,-0.114 -2.469,-0.287c-0.919,-0.172 -1.666,-0.402 -2.297,-0.689l-0,-4.134c0.746,0.517 1.608,0.976 2.469,1.263c0.861,0.287 1.665,0.46 2.411,0.46c0.919,-0 1.666,-0.115 2.068,-0.402c0.459,-0.287 0.689,-0.689 0.689,-1.321c-0,-0.574 -0.23,-1.033 -0.689,-1.493c-0.46,-0.402 -1.379,-0.861 -2.642,-1.378c-1.55,-0.631 -2.641,-1.378 -3.273,-2.182c-0.631,-0.804 -0.976,-1.837 -0.976,-3.1c0,-1.608 0.632,-2.929 1.895,-3.962c1.263,-1.034 2.928,-1.551 4.938,-1.551c0.632,0 1.321,0.058 2.067,0.23c0.747,0.172 1.436,0.345 1.952,0.517l0,4.077c-0.574,-0.345 -1.205,-0.689 -1.952,-0.977c-0.746,-0.287 -1.493,-0.402 -2.182,-0.402c-0.804,0 -1.435,0.173 -1.837,0.46c-0.402,0.402 -0.632,0.804 -0.632,1.378Zm9.417,4.479c0,-2.929 0.861,-5.283 2.469,-7.006c1.665,-1.722 3.962,-2.583 6.89,-2.583c2.756,-0 4.938,0.803 6.489,2.469c1.55,1.665 2.354,3.904 2.354,6.718c-0,2.871 -0.861,5.167 -2.469,6.89c-1.665,1.723 -3.905,2.584 -6.776,2.584c-2.756,-0 -4.938,-0.804 -6.545,-2.412c-1.551,-1.665 -2.412,-3.904 -2.412,-6.66Zm4.364,-0.173c-0,1.838 0.402,3.273 1.263,4.249c0.861,0.977 2.067,1.493 3.618,1.493c1.492,0 2.698,-0.459 3.502,-1.493c0.804,-0.976 1.206,-2.411 1.206,-4.363c-0,-1.895 -0.402,-3.331 -1.206,-4.364c-0.804,-0.976 -2.01,-1.493 -3.445,-1.493c-1.55,-0 -2.699,0.517 -3.56,1.55c-0.919,1.091 -1.378,2.527 -1.378,4.421Zm27.791,-5.569l-6.259,-0l0,14.354l-4.249,0l0,-14.354l-2.986,-0l0,-3.445l2.986,-0l0,-2.47c0,-1.837 0.632,-3.387 1.838,-4.593c1.205,-1.206 2.756,-1.78 4.65,-1.78c0.517,-0 0.977,0.057 1.379,0.057c0.401,0 0.746,0.115 1.033,0.23l0,3.617c-0.115,-0.057 -0.402,-0.172 -0.746,-0.287c-0.345,-0.114 -0.747,-0.172 -1.206,-0.172c-0.861,0 -1.55,0.287 -2.01,0.804c-0.459,0.517 -0.689,1.378 -0.689,2.412l0,2.124l6.259,0l-0,-4.019l4.191,-1.263l0,5.282l4.249,0l0,3.445l-4.249,0l0,8.326c0,1.091 0.23,1.837 0.575,2.297c0.402,0.459 1.033,0.689 1.894,0.689c0.23,-0 0.517,-0.058 0.862,-0.172c0.344,-0.115 0.631,-0.23 0.861,-0.402l0,3.445c-0.287,0.172 -0.689,0.287 -1.321,0.402c-0.631,0.115 -1.205,0.172 -1.837,0.172c-1.78,0 -3.101,-0.459 -3.962,-1.378c-0.861,-0.919 -1.321,-2.354 -1.321,-4.249l0.058,-9.072Z" style="fill:#fff;fill-rule:nonzero;"/><rect x="0" y="0" width="19.637" height="19.637" style="fill:#fff;"/><rect x="21.704" y="0" width="19.637" height="19.637" style="fill:#fff;"/><rect x="0" y="21.704" width="19.637" height="19.637" style="fill:#fff;"/><rect x="21.704" y="21.704" width="19.637" height="19.637" style="fill:#fff;"/></g></svg>