<?xml version="1.0" encoding="UTF-8" standalone="no"?><!DOCTYPE svg PUBLIC "-//W3C//DTD SVG 1.1//EN" "http://www.w3.org/Graphics/SVG/1.1/DTD/svg11.dtd"><svg width="100%" height="100%" viewBox="0 0 156 24" version="1.1" xmlns="http://www.w3.org/2000/svg" xmlns:xlink="http://www.w3.org/1999/xlink" xml:space="preserve" xmlns:serif="http://www.serif.com/" style="fill-rule:evenodd;clip-rule:evenodd;stroke-linejoin:round;stroke-miterlimit:2;"><g><path d="M150.789,14.804l-0.034,0.211l-0.038,-0.211l-3.431,-9.852l-1.962,0l4.474,12.715l-0,0.102c-0.268,1.218 -1.031,2.711 -1.725,3.18c-0.61,0.415 -1.274,0.468 -1.785,0.468c-0.246,0 -0.768,-0.087 -0.985,-0.139l-0,1.532c0.276,0.068 0.931,0.191 1.338,0.191c0.954,0 1.747,-0.238 2.423,-0.729c0.809,-0.588 1.715,-2.113 2.145,-3.426l4.461,-13.895l-1.959,0l-2.922,9.853Z" style="fill:#fff;fill-rule:nonzero;"/><path d="M143.976,11.729l0,-1.209c0,-2.102 -0.546,-3.65 -1.581,-4.604c-0.882,-0.812 -2.129,-1.205 -3.77,-1.205c-0.854,-0 -1.628,0.154 -2.302,0.456c-0.661,0.298 -1.271,0.741 -1.728,1.319c-0.907,1.137 -1.409,2.822 -1.409,4.865c0,2.273 0.643,4.01 1.828,5.164c1.248,1.219 2.85,1.477 3.955,1.477c2.869,0 4.275,-1.57 4.864,-2.99l-1.609,-0.771c-0.388,0.864 -1.264,2.174 -3.255,2.174c-1.139,0 -2.091,-0.453 -2.75,-1.312c-0.639,-0.83 -0.977,-1.993 -0.979,-3.364l8.736,0Zm-1.953,-1.585l-6.73,-0c0.175,-2.623 1.248,-3.846 3.382,-3.846c2.291,-0 3.341,1.221 3.348,3.846Z" style="fill:#fff;fill-rule:nonzero;"/><path d="M27.362,6.64c-0.993,-1.268 -2.409,-1.94 -4.097,-1.94c-1.687,-0 -3.104,0.672 -4.1,1.939c-0.926,1.182 -1.434,2.852 -1.434,4.701c0,1.849 0.508,3.517 1.434,4.7c0.996,1.271 2.413,1.94 4.1,1.94c1.688,-0 3.104,-0.67 4.098,-1.94c0.926,-1.184 1.437,-2.851 1.437,-4.7c0,-1.849 -0.512,-3.519 -1.438,-4.7Zm-4.097,9.756c-2.15,-0 -3.435,-1.891 -3.435,-5.055c0,-3.165 1.284,-5.055 3.435,-5.055c2.151,-0 3.431,1.89 3.431,5.055c-0.001,3.164 -1.281,5.055 -3.431,5.055Z" style="fill:#fff;fill-rule:nonzero;"/><path d="M33.271,10.535c0.493,-2.632 1.872,-3.876 4.256,-3.876l0,-1.871c-2.029,0 -3.218,0.793 -4.257,2.654l-0.018,0.023l0.019,-0.163l0,-2.317l-2.003,0l0,12.792l2.003,0l0,-7.242Z" style="fill:#fff;fill-rule:nonzero;"/><path d="M82.271,4.562c0.009,-0.85 0.286,-1.519 0.822,-1.979c0.545,-0.47 1.326,-0.706 2.327,-0.706c1.052,0 1.983,0.302 2.698,0.873c0.655,0.521 1.135,1.277 1.353,2.147l1.866,-0.229c-0.816,-2.789 -2.821,-4.49 -5.869,-4.49c-1.506,0 -2.871,0.47 -3.839,1.321c-0.939,0.83 -1.46,1.97 -1.46,3.209c0,1.365 0.559,2.437 1.71,3.276c1.015,0.74 2.349,1.212 3.641,1.668c2.246,0.799 4.37,1.551 4.37,3.59c0,0.906 -0.307,1.666 -0.889,2.197c-0.642,0.584 -1.586,0.879 -2.805,0.879c-2.138,0 -3.691,-1.197 -4.565,-3.5l-1.904,0.512c0.411,0.935 1.11,2.293 2.128,3.201c1.118,1.002 2.507,1.487 4.244,1.487c2.062,0 3.624,-0.54 4.647,-1.604c1.063,-1.106 1.285,-2.519 1.285,-3.508c0,-1.419 -0.589,-2.53 -1.798,-3.395c-1.059,-0.758 -2.439,-1.23 -3.771,-1.687c-2.166,-0.741 -4.213,-1.44 -4.191,-3.262Z" style="fill:#fff;fill-rule:nonzero;"/><path d="M95.199,6.53l-1.922,0l0,-1.586l1.922,0l0,-4.185l2.003,0l0,4.186l2.152,0l0,1.585l-2.152,0l0,8.742c0,0.584 0.137,1.123 1.48,1.123c0.222,0 0.45,-0.008 0.672,-0.021l0,1.408c0,0 -0.758,0.199 -1.329,0.199c-0.902,0 -1.584,-0.145 -2.041,-0.451c-0.424,-0.29 -0.785,-0.754 -0.785,-1.543l-0,-9.457Z" style="fill:#fff;fill-rule:nonzero;"/><path d="M129.715,15.272c0,0.584 0.186,1.123 1.528,1.123c0.222,0 0.447,-0.008 0.673,-0.021l0,1.408c0,0 -0.759,0.199 -1.33,0.199c-0.902,0 -1.585,-0.145 -2.04,-0.451c-0.425,-0.29 -0.833,-0.754 -0.833,-1.543l0,-15.987l2.004,-0l-0.002,15.272Z" style="fill:#fff;fill-rule:nonzero;"/><path d="M66.67,8.282c0.682,-0.728 2.196,-1.955 3.586,-1.955c1.391,0 2.01,0.686 2.01,2.219l0,9.236l2.003,0l0,-9.285c0,-2.768 -1.974,-3.754 -3.842,-3.754c-1.304,0 -2.634,0.686 -3.757,1.957l0,-1.711l-2.003,0l0,12.793l2.003,0l0,-9.5Z" style="fill:#fff;fill-rule:nonzero;"/><path d="M59.327,16.198c0.053,0.707 0.306,1.117 0.863,1.411c0.525,0.281 1.391,0.216 1.761,0.126l0,-1.359c-0.446,-0.021 -0.739,-0.229 -0.739,-0.779l0,-6.181l-0.007,-0.815c0,-1.277 -0.508,-2.309 -1.467,-2.984c-0.79,-0.561 -1.883,-0.868 -3.068,-0.868c-2.84,-0 -4.195,1.687 -4.767,2.741l1.615,0.842c0.225,-0.604 1.017,-1.998 3.176,-1.998c1.703,-0 2.563,0.758 2.563,2.25l0.002,0.46c0,-0 0.005,0.133 -0.035,0.183c-0.063,0.08 -0.23,0.141 -0.664,0.186c-2.386,0.266 -3.97,0.669 -5.136,1.418c-1.265,0.813 -2.061,1.947 -2.061,3.508c0,1.109 0.54,2.053 1.246,2.727c0.656,0.621 1.564,0.936 2.553,0.965c2.105,0.064 3.493,-0.803 4.165,-1.833Zm-0.012,-2.14c-0.093,1.119 -2.176,2.48 -3.884,2.384c-0.941,-0.052 -1.868,-0.798 -1.964,-2.042c-0.156,-2.078 1.428,-2.957 4.915,-3.34c0.242,-0.022 0.699,-0.107 0.933,-0.242l-0,3.24Z" style="fill:#fff;fill-rule:nonzero;"/><path d="M109.266,16.198c0.053,0.707 0.307,1.117 0.864,1.411c0.525,0.281 1.391,0.216 1.76,0.126l0,-1.359c-0.445,-0.021 -0.738,-0.229 -0.738,-0.779l0,-6.181l-0.009,-0.815c0,-1.277 -0.506,-2.309 -1.465,-2.984c-0.792,-0.561 -1.883,-0.868 -3.068,-0.868c-2.84,-0 -4.195,1.687 -4.768,2.741l1.616,0.842c0.224,-0.604 1.017,-1.998 3.176,-1.998c1.703,-0 2.563,0.758 2.563,2.25l0.002,0.46c0,-0 0.005,0.133 -0.035,0.183c-0.063,0.08 -0.23,0.141 -0.664,0.186c-2.386,0.266 -3.969,0.669 -5.136,1.418c-1.265,0.813 -2.06,1.947 -2.06,3.508c0,1.109 0.539,2.053 1.246,2.727c0.656,0.621 1.563,0.936 2.552,0.965c2.103,0.064 3.493,-0.803 4.164,-1.833Zm-0.012,-2.14c-0.092,1.119 -2.176,2.48 -3.884,2.384c-0.94,-0.052 -1.868,-0.798 -1.963,-2.042c-0.157,-2.078 1.428,-2.957 4.915,-3.34c0.242,-0.022 0.699,-0.107 0.932,-0.242l-0,3.24Z" style="fill:#fff;fill-rule:nonzero;"/><path d="M7.571,14.357l-4.242,-13.941l-3.329,-0l0,17.361l2.003,0l0,-15.878l0.043,0.059l4.758,15.819l1.556,0l4.758,-15.819l0.044,-0.059l0,15.878l2.003,0l0,-17.361l-3.334,-0l-4.237,13.941l-0.012,0.073l-0.011,-0.073Z" style="fill:#fff;fill-rule:nonzero;"/><path d="M116.608,8.282c0.681,-0.728 2.196,-1.955 3.587,-1.955c1.388,0 2.009,0.686 2.009,2.219l0,9.236l2.003,0l0,-9.285c0,-2.768 -1.973,-3.754 -3.843,-3.754c-1.304,0 -2.634,0.686 -3.757,1.957l0.001,0l-0.001,0l0.001,-1.711l-2.002,0l0,12.793l2.002,0l0,-9.5Z" style="fill:#fff;fill-rule:nonzero;"/><path d="M47.391,4.976l-0.427,1.35c-0.735,-0.956 -1.693,-1.594 -3.215,-1.594c-2.257,0 -5.451,1.521 -5.451,6.623c0,4.955 3.194,6.623 5.354,6.623c1.259,0 2.405,-0.69 3.19,-1.695l0.099,-0.049l0,2.431c0,1.706 -1.466,2.747 -3.044,2.747c-1.533,0 -2.894,-0.291 -4.001,-0.809l0,1.732c0.933,0.4 2.451,0.658 3.756,0.658c3.548,0 5.238,-1.959 5.238,-4.789l0,-13.228l-1.499,-0Zm-0.451,9.082c-0.519,1.474 -1.989,2.334 -3.044,2.334c-2.061,-0 -3.499,-1.285 -3.499,-5.136c0,-3.238 1.292,-4.938 3.499,-4.938c1.129,-0 2.108,0.491 3.044,1.652l0,6.088Z" style="fill:#fff;fill-rule:nonzero;"/></g></svg>