<?xml version="1.0" encoding="UTF-8" standalone="no"?><!DOCTYPE svg PUBLIC "-//W3C//DTD SVG 1.1//EN" "http://www.w3.org/Graphics/SVG/1.1/DTD/svg11.dtd"><svg width="100%" height="100%" viewBox="0 0 639 80" version="1.1" xmlns="http://www.w3.org/2000/svg" xmlns:xlink="http://www.w3.org/1999/xlink" xml:space="preserve" xmlns:serif="http://www.serif.com/" style="fill-rule:evenodd;clip-rule:evenodd;stroke-linejoin:round;stroke-miterlimit:2;"><g id="layer1"><g id="g16337"><path id="path16197" d="M265.591,52.032l40.652,0l-21.495,-34.583l-39.451,62.527l-17.955,0l47.986,-75.108c2.086,-3.035 5.563,-4.868 9.42,-4.868c3.73,0 7.207,1.77 9.23,4.742l48.176,75.234l-17.955,0l-8.472,-13.972l-41.158,0l-8.978,-13.972Zm186.507,13.972l-0,-65.245l-15.237,-0l0,71.631c0,1.96 0.759,3.856 2.213,5.31c1.454,1.455 3.414,2.276 5.563,2.276l69.482,0l8.977,-13.972l-70.998,0Zm-252.068,-11.696c14.794,0 26.806,-11.949 26.806,-26.743c0,-14.794 -12.012,-26.806 -26.806,-26.806l-66.656,-0l0,79.217l15.231,0l-0,-65.245l50.413,-0c7.081,-0 12.771,5.753 12.771,12.834c0,7.081 -5.69,12.834 -12.771,12.834l-42.953,-0.063l45.482,39.64l22.128,0l-30.6,-25.668l6.955,0Zm-160.414,25.668c-21.869,0 -39.616,-17.702 -39.616,-39.577c0,-21.875 17.747,-39.64 39.616,-39.64l46.044,-0c21.875,-0 39.609,17.765 39.609,39.64c0,21.875 -17.734,39.577 -39.609,39.577l-46.044,0Zm45.02,-13.972c14.168,0 25.643,-11.443 25.643,-25.605c0,-14.162 -11.475,-25.668 -25.643,-25.668l-44.003,-0c-14.162,-0 -25.643,11.506 -25.643,25.668c-0,14.162 11.481,25.605 25.643,25.605l44.003,0Zm289.319,13.972c-21.875,0 -39.641,-17.702 -39.641,-39.577c0,-21.875 17.766,-39.64 39.641,-39.64l54.687,-0l-8.914,13.972l-44.762,-0c-14.162,-0 -25.668,11.506 -25.668,25.668c0,14.162 11.506,25.605 25.668,25.605l54.94,0l-8.977,13.972l-46.974,0Zm186.316,-13.972c-11.696,0 -21.622,-7.839 -24.657,-18.65l65.12,-0l8.977,-13.973l-74.097,0c3.035,-10.747 12.961,-18.65 24.657,-18.65l44.699,-0l9.04,-13.972l-54.75,-0c-21.875,-0 -39.641,17.765 -39.641,39.64c0,21.875 17.766,39.577 39.641,39.577l46.974,0l8.977,-13.972l-54.94,0" style="fill:#fff;fill-rule:nonzero;"/><path id="path16199" d="M622.166,9.167c0,-3.856 3.098,-6.954 6.954,-6.954c3.92,-0 7.018,3.098 7.018,6.954c-0,3.92 -3.098,7.018 -7.018,7.018c-3.856,-0 -6.954,-3.098 -6.954,-7.018Zm6.954,8.978c4.932,-0 8.915,-3.983 8.915,-8.915c-0,-4.931 -3.983,-8.914 -8.915,-8.914c-4.868,0 -8.851,3.983 -8.851,8.914c0,4.932 3.983,8.915 8.851,8.915Zm-0.822,-14.225c1.391,-0 1.96,0.063 2.593,0.316c1.77,0.569 1.959,2.149 1.959,2.782c0,0.126 0,0.442 -0.126,0.822c-0.063,0.379 -0.316,1.138 -1.201,1.707c-0.127,0.063 -0.19,0.126 -0.443,0.252l2.276,4.11l-2.212,-0l-2.024,-3.793l-1.39,-0l-0,3.793l-1.96,-0l-0,-9.989l2.528,-0Zm0.696,4.552c0.632,-0.063 1.264,-0.063 1.644,-0.632c0.189,-0.253 0.253,-0.506 0.253,-0.886c-0,-0.505 -0.317,-0.948 -0.759,-1.201c-0.443,-0.189 -0.885,-0.189 -1.834,-0.189l-0.568,-0l-0,2.908l1.264,-0" style="fill:#fff;fill-rule:nonzero;"/></g></g></svg>