<?xml version="1.0" encoding="UTF-8" standalone="no"?><!DOCTYPE svg PUBLIC "-//W3C//DTD SVG 1.1//EN" "http://www.w3.org/Graphics/SVG/1.1/DTD/svg11.dtd"><svg width="100%" height="100%" viewBox="0 0 281 215" version="1.1" xmlns="http://www.w3.org/2000/svg" xmlns:xlink="http://www.w3.org/1999/xlink" xml:space="preserve" xmlns:serif="http://www.serif.com/" style="fill-rule:evenodd;clip-rule:evenodd;stroke-linejoin:round;stroke-miterlimit:2;"><path d="M276.547,73.016l-10.319,0l-0,20.258l10.319,0l-0,-20.258Zm-14.286,20.258l-0,-20.258l-23.085,0l-0,20.258l23.085,0Zm-85.305,-81.946l46.879,0l0,-7.361l-46.879,0l-0,7.361Zm50.847,3.966l-0,12.885l7.405,0l-0,-12.885l-7.405,0Zm7.405,53.755l-0,-36.903l-7.405,0l-0,36.903l7.405,0Zm-7.405,24.225l7.405,0l-0,-20.258l-7.405,0l-0,20.258Zm-20.38,0l16.412,0l0,-20.258l-16.412,0l0,20.258Zm-30.467,0l26.501,0l0,-20.258l-26.501,0l-0,20.258Zm-0,-61.128l0.005,22.779l30.462,-0.001l0,14.125l16.412,0l0,-36.903l-46.879,0Zm-0,-3.967l46.879,0l0,-12.885l-46.879,0l-0,12.885Zm-0,40.87l26.501,0l0,-10.157l-26.501,-0l-0,10.157Zm62.22,-36.903l-0,36.903l23.085,0l-0,-36.903l-23.085,0Zm41.338,36.903l0,28.193l-107.525,0l-0,-97.242l54.814,0l-0,11.328l11.373,0l-0,16.851l27.052,0l-0,40.87l14.286,0Zm-158.162,40.852l50.637,0l-0,-12.659l-50.637,0l-0,12.659Zm-96.866,81.709c3.38,0.388 6.658,0.508 8.629,0.508c17.421,0 28.478,-11.15 28.478,-27.723c-0,-14.336 -8.286,-24.69 -19.513,-24.69c-4.861,0 -8.117,0.998 -17.594,6.637l0,-6.901l-5.251,0l-20.235,6.147l0,4.956l8.379,0l-0,57.786l-7.538,1.875l0,4.784l33.077,0l-0,-4.784l-8.432,-1.875l0,-16.72Zm0,-40.532c2.99,-0.363 4.472,-0.534 5.883,-0.534c8.478,0 13.071,5.635 13.071,16.232c-0,12.518 -5.614,19.048 -16.088,19.048c-0.875,0 -1.482,0 -2.866,-0.065l0,-34.681Zm115.43,15.698c7.846,-9.89 10.616,-13.878 10.616,-18.735c-0,-4.835 -3.838,-8.727 -8.966,-8.727c-3.157,0 -6.001,1.491 -7.389,3.041l0,20.146l-12.855,17.128l-0,-39.049l-12.222,0l-20.316,33.682l-0,-33.682l-7.023,0l-18.443,4.496l0,4.715l10.06,1.021l-0,41.306l13.003,0l19.486,-32.023l-0,32.023l14.239,0l19.81,-25.342Zm43.18,-21.847c-8.75,1.413 -13.223,7.877 -13.223,19.251c0,11.445 5.959,19.098 15.095,19.098c4.251,0 8.113,-1.413 16.232,-5.395l-0,9.258c-9.745,4.469 -15.481,5.852 -23.332,5.852c-8.501,0 -14.48,-2.258 -19.364,-7.234c-5.006,-5.007 -7.509,-11.621 -7.509,-18.983c-0,-16.38 12.126,-27.462 29.839,-27.462c11.763,0 19.854,5.374 19.854,13.268c0,5.082 -3.764,8.58 -9.353,8.58c-2.867,0 -5.225,-0.752 -8.239,-2.502l-0,-13.731Z" style="fill:#fff;fill-rule:nonzero;"/></svg>