<?xml version="1.0" encoding="UTF-8" standalone="no"?><!DOCTYPE svg PUBLIC "-//W3C//DTD SVG 1.1//EN" "http://www.w3.org/Graphics/SVG/1.1/DTD/svg11.dtd"><svg width="100%" height="100%" viewBox="0 0 106 61" version="1.1" xmlns="http://www.w3.org/2000/svg" xmlns:xlink="http://www.w3.org/1999/xlink" xml:space="preserve" xmlns:serif="http://www.serif.com/" style="fill-rule:evenodd;clip-rule:evenodd;stroke-linejoin:round;stroke-miterlimit:2;"><path d="M25.056,24.606c0,-0.726 -0.278,-1.496 -0.841,-1.986c-1.437,-1.25 -4.013,-0.688 -4.446,1.297c-0.22,1.01 -0.074,2.168 -0.074,3.198l-0,29.758c-0,1.072 0.085,2.184 -0.05,3.247l5.362,-0l-0,-13.133c2.277,2.276 5.071,3.743 8.264,4.187c2.508,0.349 5.312,0.112 7.673,-0.833c2.201,-0.88 4.097,-2.262 5.664,-4.043c2.704,-3.073 4.055,-7.134 3.877,-11.215c-0.061,-1.392 -0.348,-2.749 -0.734,-4.083c-0.447,-1.544 -1.15,-3.072 -2.105,-4.377c-1.151,-1.573 -2.58,-2.956 -4.243,-3.981c-4.158,-2.567 -9.685,-3.09 -14.166,-1.07c-1.571,0.708 -2.97,1.823 -4.181,3.034Zm32.858,-0c-0.001,-1.013 -0.561,-1.941 -1.476,-2.392c-1.287,-0.634 -3.216,-0.094 -3.701,1.359c-0.2,0.6 -0.185,1.197 -0.185,1.82l0,34.727l5.313,-0l-0,-13.133c2.264,2.264 5.035,3.745 8.214,4.187c2.533,0.352 5.338,0.131 7.723,-0.823c2.14,-0.856 3.902,-2.159 5.464,-3.848c2.794,-3.024 4.257,-7.156 4.076,-11.272c-0.094,-2.141 -0.613,-4.188 -1.457,-6.149c-0.467,-1.085 -1.112,-2.179 -1.86,-3.099c-2.956,-3.638 -7.424,-5.607 -12.077,-5.607c-1.271,-0 -2.557,0.096 -3.787,0.444c-2.394,0.678 -4.498,2.037 -6.247,3.786Zm-53.173,-2.804c-1.206,0 -2.586,-0.229 -3.639,0.48c-1.656,1.113 -1.381,3.75 0.393,4.592c0.529,0.251 1.052,0.241 1.623,0.241l1.623,-0l0,9.837c0,3.707 -0.408,7.746 2.272,10.723c0.685,0.762 1.492,1.314 2.352,1.854c0.862,0.54 1.925,0.901 2.902,1.175c1.58,0.443 3.288,0.562 4.919,0.562l0,-5.411c-2.268,0 -4.686,-0.358 -5.989,-2.459c-0.935,-1.506 -0.651,-3.574 -0.651,-5.263l-0,-11.018l3.197,-0c0.624,-0 1.278,0.069 1.869,-0.17c2.061,-0.833 2.227,-3.761 0.295,-4.831c-0.664,-0.367 -1.383,-0.312 -2.115,-0.312l-3.246,0l-0,-3.886c-0,-0.794 0.084,-1.616 -0.248,-2.361c-0.96,-2.154 -4.061,-2.229 -5.186,-0.195c-0.426,0.772 -0.371,1.656 -0.371,2.507l0,3.935Zm62.174,3.612c-1.726,0.227 -3.325,0.766 -4.771,1.76c-0.683,0.47 -1.26,1.064 -1.822,1.662c-2.524,2.685 -3.269,6.824 -2.079,10.28c0.724,2.101 2.083,3.915 3.852,5.252c0.914,0.691 2.051,1.166 3.148,1.473c1.19,0.333 2.466,0.394 3.689,0.246c1.448,-0.175 2.921,-0.695 4.132,-1.509c0.586,-0.394 1.161,-0.789 1.672,-1.282c1.797,-1.737 2.875,-4.156 3.046,-6.639c0.145,-2.124 -0.337,-4.457 -1.427,-6.296c-1.456,-2.457 -3.941,-4.213 -6.734,-4.771c-0.864,-0.173 -1.826,-0.292 -2.706,-0.176Zm-33.005,-0c-1.624,0.216 -3.098,0.761 -4.476,1.648c-0.72,0.464 -1.307,1.045 -1.878,1.676c-1.069,1.183 -1.962,2.617 -2.364,4.181c-1.127,4.377 0.62,9.195 4.439,11.674c0.88,0.571 1.877,1.036 2.902,1.279c1.13,0.268 2.289,0.354 3.443,0.215c1.451,-0.174 2.901,-0.665 4.132,-1.451c1.681,-1.074 3.083,-2.56 3.92,-4.388c1.461,-3.194 1.146,-7.217 -0.714,-10.182c-1.296,-2.067 -3.38,-3.607 -5.715,-4.28c-1.163,-0.335 -2.478,-0.533 -3.689,-0.372Zm52.484,-10.597c-0.204,0.707 -0.692,1.398 -1.08,2.017c-0.885,1.414 -1.918,2.767 -3.003,4.033c-0.47,0.55 -0.957,1.085 -1.44,1.623c-0.141,0.157 -0.503,0.369 -0.532,0.591c-0.029,0.225 0.395,0.486 0.523,0.64c0.53,0.636 1.034,1.28 1.501,1.965c0.826,1.209 1.51,2.677 1.915,4.085c0.163,0.564 0.306,1.145 0.421,1.721c0.062,0.309 0.079,0.634 0.17,0.935c0.066,-0.157 0.043,-0.324 0.063,-0.492c0.036,-0.296 0.09,-0.592 0.138,-0.885c0.165,-1.004 0.34,-2.007 0.558,-3.001c0.371,-1.69 0.717,-3.387 1.134,-5.066c0.182,-0.733 0.551,-1.51 0.611,-2.263c0.036,-0.442 -0.062,-0.892 -0.122,-1.328c-0.083,-0.607 -0.152,-1.214 -0.246,-1.82c-0.095,-0.61 -0.21,-1.217 -0.34,-1.82c-0.066,-0.305 -0.103,-0.667 -0.271,-0.935Zm-10.822,-12.297c0.694,0.056 1.386,0.376 2.022,0.634c1.041,0.423 2.059,0.914 2.996,1.543c0.91,0.612 1.816,1.241 2.607,2.006c2.245,2.173 3.789,4.95 4.543,7.967c0.262,1.047 0.523,2.113 0.523,3.197c0.133,-0.177 0.158,-0.383 0.226,-0.59c0.089,-0.268 0.226,-0.527 0.336,-0.787c0.383,-0.905 0.829,-1.778 1.269,-2.656c1.039,-2.076 2.393,-4.052 3.91,-5.805c0.765,-0.883 1.569,-1.82 2.523,-2.508c-0.383,-0.588 -0.989,-1.088 -1.519,-1.539c-0.689,-0.587 -1.385,-1.125 -2.17,-1.581c-1.166,-0.676 -2.35,-1.257 -3.64,-1.659c-2.946,-0.919 -6.092,-0.771 -9.051,-0.029c-1.187,0.297 -2.392,0.688 -3.492,1.229c-0.355,0.174 -0.82,0.273 -1.083,0.578Zm18.594,-0.737c0.899,0.388 1.782,1.081 2.508,1.73c0.203,0.181 0.399,0.38 0.582,0.581c0.096,0.105 0.199,0.275 0.353,0.294c0.204,0.027 0.504,-0.213 0.688,-0.294c0.623,-0.271 1.222,-0.601 1.87,-0.819c1.183,-0.4 2.439,-0.714 3.689,-0.799c0.553,-0.038 1.118,-0.005 1.672,-0.005c-0.269,-0.351 -0.661,-0.577 -1.033,-0.804c-0.456,-0.278 -0.882,-0.558 -1.377,-0.766c-2.166,-0.911 -4.54,-1.297 -6.788,-0.362c-0.53,0.22 -1.029,0.434 -1.525,0.732c-0.232,0.14 -0.491,0.282 -0.639,0.512Z" style="fill:#fff;"/></svg>