<?xml version="1.0" encoding="UTF-8" standalone="no"?><!DOCTYPE svg PUBLIC "-//W3C//DTD SVG 1.1//EN" "http://www.w3.org/Graphics/SVG/1.1/DTD/svg11.dtd"><svg width="100%" height="100%" viewBox="0 0 1001 324" version="1.1" xmlns="http://www.w3.org/2000/svg" xmlns:xlink="http://www.w3.org/1999/xlink" xml:space="preserve" xmlns:serif="http://www.serif.com/" style="fill-rule:evenodd;clip-rule:evenodd;stroke-linejoin:round;stroke-miterlimit:2;"><g id="g4158"><path id="polygon9" d="M433.352,318.984l-81.01,-0l50.669,-313.305l81.007,0l-50.666,313.305Z" style="fill:#fff;fill-rule:nonzero;"/><path id="path11" d="M727.023,13.339c-15.978,-6.34 -41.322,-13.339 -72.66,-13.339c-80.001,-0 -136.336,42.66 -136.682,103.652c-0.664,45 40.335,69.994 70.999,84.998c31.342,15.332 41.996,25.339 41.996,39.006c-0.319,20.989 -25.326,30.664 -48.65,30.664c-32.343,-0 -49.673,-4.988 -76.009,-16.666l-10.667,-5.005l-11.337,70.33c19,8.656 54.006,16.337 90.349,16.674c85.003,-0 140.342,-42 140.997,-106.997c0.324,-35.666 -21.326,-62.994 -68,-85.325c-28.334,-14.336 -45.686,-24.002 -45.686,-38.67c0.332,-13.334 14.677,-26.991 46.661,-26.991c26.336,-0.669 45.686,5.661 60.345,11.996l7.327,3.327l11.017,-67.654Z" style="fill:#fff;fill-rule:nonzero;"/><path id="path13" d="M834.694,207.991c6.671,-17.999 32.343,-87.66 32.343,-87.66c-0.337,0.669 6.658,-18.331 10.658,-29.995l5.662,26.996c-0,-0 15.341,74.995 18.672,90.659l-67.335,0Zm99.997,-202.312l-62.662,0c-19.323,0 -34.004,5.662 -42.341,25.995l-120.331,287.305l85.002,0c-0,0 13.994,-38.669 17.002,-46.997l104.011,-0c2.326,10.999 9.666,46.997 9.666,46.997l75.008,0l-65.355,-313.3Z" style="fill:#fff;fill-rule:nonzero;"/><path id="path15" d="M284.678,5.679l-79.336,213.644l-8.669,-43.33c-14.668,-49.996 -60.669,-104.316 -112.003,-131.326l72.669,273.985l85.667,-0l127.334,-312.973l-85.662,0Z" style="fill:#fff;fill-rule:nonzero;"/><path id="path17" d="M131.672,5.679l-130.339,0l-1.333,6.331c101.672,25.999 169.008,88.67 196.673,163.997l-28.334,-143.992c-4.665,-20.01 -19.001,-25.676 -36.667,-26.336Z" style="fill:#fff;fill-rule:nonzero;"/></g></svg>