<?xml version="1.0" encoding="UTF-8" standalone="no"?><!DOCTYPE svg PUBLIC "-//W3C//DTD SVG 1.1//EN" "http://www.w3.org/Graphics/SVG/1.1/DTD/svg11.dtd"><svg width="100%" height="100%" viewBox="0 0 621 894" version="1.1" xmlns="http://www.w3.org/2000/svg" xmlns:xlink="http://www.w3.org/1999/xlink" xml:space="preserve" xmlns:serif="http://www.serif.com/" style="fill-rule:evenodd;clip-rule:evenodd;stroke-linejoin:round;stroke-miterlimit:2;"><path d="M620.878,757.438c-23.528,16.442 -74.474,42.128 -88.09,48.544c-14.934,7.053 -19.785,11.325 -30.779,33.113c-7.764,15.338 -15.31,37.811 -19.669,54.832l46.213,-0c8.803,-7.203 13.87,-13.177 13.87,-13.177c0,0 0.58,-7.632 -7.632,-20.563c-6.788,-10.679 6.473,-22.251 14.685,-15.53c6.275,5.183 14.934,6.209 20.232,1.755c2.282,-1.915 25.37,-16.857 51.17,-33.832l-0,-55.142Zm-0,-136.149l-0,-260.186c-49.388,-1.504 -84.151,-7.248 -123.272,-15.07c-18.692,-3.742 -21.921,-13.841 -17.914,-25.215c4.139,-11.706 8.079,-35.066 8.212,-44.57c-13.461,-12.351 -34.024,-19.917 -43.974,-23.477c-10.745,-3.741 -16.109,-12.351 -5.248,-13.195c10.811,-0.828 51.871,3.56 51.871,3.56c-0,-0 1.49,-21.987 -4.404,-54.255c-17.583,-7.633 -39.901,-14.106 -63.312,-17.003c-6.208,-0.779 -11.639,-7.699 4.073,-9.967c20.58,-2.914 39.321,0.331 53.941,-0.58c0.91,-1.755 -6.987,-42.814 -21.54,-59.37c-10.083,-3.047 -15.447,-4.471 -50.563,-8.676c-12.285,-1.407 -12.881,-4.967 -4.669,-7.616c9.52,-3.046 25.364,-6.159 45.149,-4.851c-7.632,-10.48 -58.659,-103.543 -164.47,-75.612c11.838,14.553 17.6,21.275 21.093,31.241c3.162,8.924 -6.275,11.772 -14.934,2.649c-33.443,-35.182 -51.043,-34.337 -72.566,-38.278c14.09,13.643 20.232,27.285 25.083,40.861c-24.189,17.202 -58.523,58.08 -63.374,66.043c-9.184,15 3.556,23.146 3.556,23.146l-56.717,69.139c0,-0 -17.203,21.142 2.199,26.39c0.452,6.143 2.844,18.295 5.239,24.636c3.233,8.477 8.794,5.745 15.003,-1.358c6.144,-6.986 16.039,-20.38 23.283,-28.079c6.596,-7.036 29.553,-4.52 20.248,9.652c-6.142,9.371 -11,11.888 -18.955,13.643c-6.209,1.357 -8.085,-4.007 -14.939,5.298c-7.179,9.702 -14.811,16.49 -2.2,16.49c6.598,-0 19.144,6.142 27.487,4.784c7.895,-1.225 8.723,-6.341 9.567,-13.377c0.911,-7.384 -0.513,-11.589 7.699,-16.109c10.546,-5.894 26.06,-19.984 30.778,-24.967c5.381,-5.695 12.301,-4.387 19.338,-4.387c6.987,-0 41.01,4.139 61.258,-26.209c14.288,-21.391 15.844,-50.563 10.53,-76.953c9.702,9.635 22.698,40.099 15.844,68.559c-12.218,50.761 -37.185,53.609 -62.467,58.907c-10.546,14.95 -37.516,53.361 -51.87,123.212c-6.143,4.073 -57.169,53.278 -14.487,134.122c-10.993,3.56 -43.394,17.467 -62.601,21.805c-12.871,2.897 -23.67,3.609 -28.909,9.817c-5.821,6.987 -19.338,29.884 -12.288,41.325c4.98,8.096 36.929,79.553 39.58,101.606c2.652,21.92 10.605,27.168 18.496,34.288c8.796,7.88 14.487,7.499 26.782,16.738c12.483,9.321 22.831,26.126 34.337,35.116c12.285,9.702 26.06,14.106 35.762,13.195c-2.401,-35.761 -10.017,-70.944 -21.143,-82.649c-11.589,-12.152 -26.076,5.232 -29.569,6.143c-3.543,0.91 -8.46,-2.517 -10.596,-12.285c-2.202,-10.149 7.053,-18.493 -1.755,-31.689c-16.356,-24.52 -31.942,-52.135 -33.818,-55.877c-11.447,-22.384 7.955,-28.328 12.74,-27.235c11.442,2.649 80.002,11.904 90.548,12.748c10.53,0.911 16.424,2.649 21.142,-2.649c14.487,-16.242 22.831,-28.146 31.242,-44.818c15.331,11.441 4.785,33.427 0.381,59.487c4.404,3.824 103.807,53.94 240.463,17.599c57.036,-15.132 50.496,-3.162 55.943,7.302c1.242,2.408 2.47,4.761 3.687,7.061Zm-566.488,-22.082c1.465,-3.047 5.735,-15.715 -14.153,-21.9c-6.466,-2.003 -5.498,-18.957 1.487,-21.093c8.537,-2.649 12.871,-4.966 17.01,-20.165c4.075,-15.331 19.596,-70.116 24.639,-80.646c0.777,-1.622 2.2,-4.404 5.045,-5.695c4.399,-2.069 9.637,-3.493 13.97,-4.205c2.199,-0.331 6.338,2.003 7.566,3.294c7.826,7.898 48.44,40.878 48.44,40.878c0,-0 18.174,-1.755 29.295,-6.474c-6.982,-11.125 -9.957,-38.096 -11.121,-51.605c-49.281,-19.918 -60.276,-33.245 -69.46,-37.252c-8.213,-3.427 -42.101,10.927 -47.793,25.546c-15.263,39.255 -49.28,103.477 -54.26,112.599c-2.652,4.851 -5.563,10.547 -4.98,17.004c0.583,6.407 2.522,31.622 1.941,37.516c-0.583,5.878 0.258,13.51 2.65,19.338c2.33,5.877 5.369,31.043 18.303,56.258c24.626,-24.621 31.225,-59.287 31.421,-63.398Zm0,0c0.017,-0.341 -0.011,-0.471 -0.076,-0.368c-0.065,0.103 -0.168,0.44 -0.302,1.034c0,0.035 0.157,-0.206 0.378,-0.666Zm154.392,-459.548c-15.911,-3.295 -4.338,-13.576 -4.338,-13.576c6.92,-6.341 12.666,-13.46 20.695,-20.315c7.302,-6.324 29.884,-1.291 19.073,11.772c-7.169,8.675 -11.705,11.639 -20.298,11.523c-6.407,-0.066 -8.543,-2.599 -9.901,-1.49c-10.993,9.238 -5.231,12.086 -5.231,12.086Z" style="fill-opacity:0.05;"/></svg>