<?xml version="1.0" encoding="UTF-8" standalone="no"?><!DOCTYPE svg PUBLIC "-//W3C//DTD SVG 1.1//EN" "http://www.w3.org/Graphics/SVG/1.1/DTD/svg11.dtd"><svg width="100%" height="100%" viewBox="0 0 485 451" version="1.1" xmlns="http://www.w3.org/2000/svg" xmlns:xlink="http://www.w3.org/1999/xlink" xml:space="preserve" xmlns:serif="http://www.serif.com/" style="fill-rule:evenodd;clip-rule:evenodd;stroke-linejoin:round;stroke-miterlimit:2;"><path d="M401.781,210.577c-4.989,-26.795 -2.498,-79.746 23.671,-132.084c-96.563,72.892 -97.808,132.077 -97.808,132.077c-0,0 18.689,-14.327 74.137,0.007Zm-44.858,-159.491c-0,-0 -117.124,16.817 -150.759,19.934c-23.214,13.708 -49.847,52.022 -49.847,52.022c-0,-0 -27.408,4.046 -82.23,14.017c-38.114,24.865 -61.056,82.849 -13.707,130.198c-14.953,-3.11 -14.953,-3.11 -36.753,-6.853c-46.723,29.912 -24.917,85.353 72.266,66.045c-27.408,-0.936 -41.121,-14.327 -40.812,-31.784c-0.619,-18.992 36.456,-42.67 81.617,-30.518c-42.993,-81.301 4.673,-113.388 4.673,-113.388c-0,0 -25.233,67.129 29.905,122.106c4.982,-8.092 21.49,-30.834 67.903,-31.77c46.246,-0.929 75.293,21.787 76.003,47.969c0.619,23.058 -28.66,47.349 -66.658,47.349l-0.626,-55.074c0,-0 -12.384,4.453 -15.882,9.338c0.058,2.536 -0.31,46.362 -0.31,46.362c-14.959,-0 -45.484,-6.234 -61.682,-32.093c-12.462,-1.239 -81.92,-11.52 -81.92,-11.52l3.736,18.38c0,-0 24.298,4.052 28.97,28.343c5.653,29.396 22.432,56.384 37.378,67.284c28.97,-3.427 76.939,-39.869 165.093,-38.624c-80.991,11.21 -163.221,97.802 -281.591,64.793c188.145,64.167 207.454,-78.5 442.941,-33.642c-36.753,-22.432 -91.575,-29.279 -91.575,-29.279c-0,-0 29.279,-31.777 30.525,-80.365c3.736,-0.239 8.718,-0.626 18.07,-1.562c3.11,-15.572 5.291,-31.383 5.291,-31.383c0,-0 -51.395,-0.078 -94.536,-0.078c-104.973,-106.224 4.517,-206.207 4.517,-206.207Zm-262.901,-1.872c29.595,1.555 65.56,-16.837 67.909,-18.373c0,0 -12.468,31.461 15.573,29.589c30.434,-2.033 65.464,-17.631 70.394,-19.935l0,-40.495c-2.717,1.988 -32.371,22.955 -66.032,30.531c-12.294,2.762 -8.099,-8.105 -6.86,-14.326c1.252,-6.234 2.091,-11.326 -19.928,-2.188c-90.026,37.378 -94.698,11.842 -94.698,8.719c-3.737,4.369 -2.149,24.594 33.642,26.478Z" style="fill:#2f002e;fill-rule:nonzero;"/></svg>