<?xml version="1.0" encoding="UTF-8" standalone="no"?><!DOCTYPE svg PUBLIC "-//W3C//DTD SVG 1.1//EN" "http://www.w3.org/Graphics/SVG/1.1/DTD/svg11.dtd"><svg width="100%" height="100%" viewBox="0 0 383 368" version="1.1" xmlns="http://www.w3.org/2000/svg" xmlns:xlink="http://www.w3.org/1999/xlink" xml:space="preserve" xmlns:serif="http://www.serif.com/" style="fill-rule:evenodd;clip-rule:evenodd;stroke-linejoin:round;stroke-miterlimit:2;"><path id="path3176" d="M165.751,367.304l58.163,0c41.712,-15.35 87.373,-31.494 159.056,-26.601l-0,-13.068c-16.729,-4.018 -29.319,-5.536 -29.319,-5.536c0,-0 26.339,-27.614 27.452,-69.833c0.584,-0.035 1.201,-0.075 1.867,-0.12l-0,-28.528c-17.049,-0.016 -42.79,-0.035 -65.89,-0.035c-94.472,-92.318 4.05,-179.194 4.05,-179.194c-0,0 -105.385,14.629 -135.65,17.35c-20.866,11.877 -44.824,45.199 -44.824,45.199c-0,0 -24.67,3.493 -74.008,12.152c-34.284,21.614 -54.934,72.011 -12.335,113.145c-13.447,-2.714 -13.447,-2.714 -33.047,-5.969c-42.043,26 -22.443,74.188 65.012,57.412c-24.669,-0.84 -37.004,-12.45 -36.726,-27.613c-0.556,-16.516 32.8,-37.083 73.421,-26.544c-38.673,-70.634 4.204,-98.523 4.204,-98.523c-0,-0 -22.691,58.338 26.926,106.105c4.482,-7.047 19.321,-26.78 61.085,-27.613c41.61,-0.811 67.763,18.954 68.382,41.706c0.557,20.032 -25.782,41.142 -59.973,41.142l-0.556,-47.86c-0,0 -11.129,3.852 -14.283,8.087c0.031,2.216 -0.308,40.308 -0.308,40.308c-13.449,-0 -40.9,-5.404 -55.46,-27.889c-11.222,-1.07 -73.73,-10.027 -73.73,-10.027l3.37,15.973c-0,0 21.856,3.524 26.06,24.625c5.101,25.558 20.187,48.999 33.635,58.491c26.06,-2.988 69.216,-34.66 148.54,-33.56c-39.681,5.303 -79.693,30.03 -125.114,46.818Zm195.753,-184.327c-4.514,-23.288 -2.257,-69.29 21.299,-114.765c-86.899,63.329 -88.011,114.765 -88.011,114.765c-0,-0 16.817,-12.45 66.712,-0Zm-276.896,-140.2c26.617,1.345 58.985,-14.629 61.086,-15.974c0,0 -11.221,27.354 14.004,25.711c27.39,-1.766 58.891,-15.316 63.343,-17.319l-0,-35.195c-2.443,1.727 -29.121,19.94 -59.417,26.536c-11.067,2.392 -7.296,-7.047 -6.182,-12.45c1.143,-5.404 1.885,-9.852 -17.931,-1.911c-80.993,32.482 -85.198,10.303 -85.198,7.589c-3.339,3.791 -1.917,21.37 30.295,23.013Z" style="fill-opacity:0.08;fill-rule:nonzero;"/></svg>