<?xml version="1.0" encoding="UTF-8" standalone="no"?><!DOCTYPE svg PUBLIC "-//W3C//DTD SVG 1.1//EN" "http://www.w3.org/Graphics/SVG/1.1/DTD/svg11.dtd"><svg width="100%" height="100%" viewBox="0 0 314 318" version="1.1" xmlns="http://www.w3.org/2000/svg" xmlns:xlink="http://www.w3.org/1999/xlink" xml:space="preserve" xmlns:serif="http://www.serif.com/" style="fill-rule:evenodd;clip-rule:evenodd;stroke-linejoin:round;stroke-miterlimit:2;"><rect id="Artboard1" x="0" y="0" width="313.087" height="317.359" style="fill:none;"/><clipPath id="_clip1"><rect x="0" y="0" width="313.087" height="317.359"/></clipPath><g clip-path="url(#_clip1)"><path d="M7.484,317.68l64.049,-0c7.089,-4.734 21.579,-9.78 35.855,-0l47.36,-0c-12.006,-10.728 -21.742,-25.844 -27.177,-45.399c-31.208,-112.299 -121.151,-71.512 -126.658,-7.216c4.531,-6.889 31.623,-8.456 47.74,2.843c5.207,5.613 15.7,15.709 -6.377,22.088c-19.143,5.553 -29.643,16.337 -34.792,27.684Zm247.134,-0l59.382,-0l-0,-57.197c-11.486,-0.761 -25.34,-4.03 -40.891,-12.222c0,0 8.416,22.708 -3.024,47.202c-4.025,8.775 -9.305,16.183 -15.467,22.217Zm59.382,-92.093l-0,-201.378c-14.998,-8.721 -40.07,-19.295 -77.162,-22.926c-76.087,-7.435 -130.214,29.196 -115.344,74.939c3.401,10.497 8.57,15.673 14.271,17.715l0.599,0.073c-30.117,-2.369 -34.571,-19.063 -34.571,-19.063c13.856,-29.123 -24.077,-44.724 -35.247,-20.303c-14.193,30.982 27.247,49.899 34.909,51.758c21.74,5.212 37.102,5.723 72.349,3.354c30.087,-1.969 34.609,5.176 35.44,9.95c0.831,4.811 1.246,14.762 -30.078,24.676c-31.324,9.95 -35.855,31.419 -35.855,31.419c-0,0 52.387,-31.091 100.735,12.138c22.455,20.119 35.247,61.088 66.726,53.507c-0,0 -11.285,-6.342 -14.6,-18.662c-3.285,-12.32 -6.985,-36.231 -6.985,-36.231c-0,0 9.956,20.387 24.813,39.034Zm-116.302,-100.487c-0,0 -8.078,-11.991 -42.194,3.025c-34.049,15.018 -65.788,33.643 -103.228,1.203c-0.222,18.407 24.879,58.538 99.682,15.601c17.247,-9.878 29.17,-20.557 45.74,-19.829Zm-27.962,-35.647c-0.947,-0.911 1.73,-11.226 11.247,-13.705c-0,0 9.546,-2.624 19.391,0.365c9.971,3.061 8.986,15.637 1.179,17.751c-6.609,1.786 -19.218,0.546 -19.894,-9.368c-3.546,0.766 -6.609,-0.802 -11.923,4.957Z" style="fill-opacity:0.07;"/></g></svg>