<?xml version="1.0" standalone="no"?>
<!DOCTYPE svg PUBLIC "-//W3C//DTD SVG 20010904//EN"
 "http://www.w3.org/TR/2001/REC-SVG-20010904/DTD/svg10.dtd">
<svg version="1.0" xmlns="http://www.w3.org/2000/svg"
 width="240.000000pt" height="240.000000pt" viewBox="0 0 240.000000 240.000000"
 preserveAspectRatio="xMidYMid meet">
<metadata>
Created by potrace 1.11, written by Peter Selinger 2001-2013
</metadata>
<g transform="translate(0.000000,240.000000) scale(0.100000,-0.100000)"
fill="#000000" stroke="none">
<path d="M1087 2384 c-48 -7 -135 -29 -194 -49 -188 -63 -334 -154 -474 -295
-230 -234 -353 -544 -344 -870 9 -314 127 -592 345 -810 155 -157 315 -251
532 -314 115 -33 172 -40 328 -40 319 1 606 119 830 344 89 88 184 212 178
231 -3 10 -140 92 -745 448 -145 85 -263 158 -263 161 0 3 123 77 273 164 149
87 284 167 299 177 15 11 29 19 32 19 2 0 99 56 215 124 l211 124 -52 78 c-99
149 -287 314 -453 397 -76 38 -210 83 -305 102 -108 22 -300 26 -413 9z"/>
</g>
</svg>
