<?xml version="1.0" encoding="UTF-8" standalone="no"?>
<!-- Created with Inkscape (http://www.inkscape.org/) -->

<svg
   xmlns:dc="http://purl.org/dc/elements/1.1/"
   xmlns:cc="http://creativecommons.org/ns#"
   xmlns:rdf="http://www.w3.org/1999/02/22-rdf-syntax-ns#"
   xmlns:svg="http://www.w3.org/2000/svg"
   xmlns="http://www.w3.org/2000/svg"
   xmlns:sodipodi="http://sodipodi.sourceforge.net/DTD/sodipodi-0.dtd"
   xmlns:inkscape="http://www.inkscape.org/namespaces/inkscape"
   width="1000"
   height="190.40472"
   viewBox="0 0 264.58333 50.377918"
   version="1.1"
   id="svg955"
   inkscape:version="0.92.2 (5c3e80d, 2017-08-06)"
   sodipodi:docname="Aardman Animations logo.svg">
  <defs
     id="defs949" />
  <sodipodi:namedview
     id="base"
     pagecolor="#ffffff"
     bordercolor="#666666"
     borderopacity="1.0"
     inkscape:pageopacity="0.0"
     inkscape:pageshadow="2"
     inkscape:zoom="0.7"
     inkscape:cx="537.23071"
     inkscape:cy="81.650951"
     inkscape:document-units="mm"
     inkscape:current-layer="layer1"
     showgrid="false"
     showguides="true"
     inkscape:guide-bbox="true"
     inkscape:snap-smooth-nodes="true"
     inkscape:snap-nodes="true"
     inkscape:window-width="1366"
     inkscape:window-height="705"
     inkscape:window-x="-8"
     inkscape:window-y="-8"
     inkscape:window-maximized="1"
     units="px"
     fit-margin-top="0"
     fit-margin-left="0"
     fit-margin-right="0"
     fit-margin-bottom="0" />
  <metadata
     id="metadata952">
    <rdf:RDF>
      <cc:Work
         rdf:about="">
        <dc:format>image/svg+xml</dc:format>
        <dc:type
           rdf:resource="http://purl.org/dc/dcmitype/StillImage" />
        <dc:title></dc:title>
      </cc:Work>
    </rdf:RDF>
  </metadata>
  <g
     inkscape:label="Layer 1"
     inkscape:groupmode="layer"
     id="layer1"
     transform="translate(-45.747391,-150.40222)">
    <g
       id="g843"
       transform="matrix(0.26486393,0,0,0.26486393,42.140101,147.10016)"
       style="stroke-width:3.77552342">
      <path
         inkscape:connector-curvature="0"
         id="path1105"
         d="M 53.31,90.62 44,66.86 a 2.71,2.71 0 0 0 -2.36,-1.72 l -25.47,-1.5 a 2.71,2.71 0 0 1 -1.56,-4.8 L 34.26,42.73 a 2.71,2.71 0 0 0 0.86,-2.92 L 27.48,16 a 2.71,2.71 0 0 1 3.93,-3.17 l 23.05,13.3 a 2.72,2.72 0 0 0 2.73,0 L 79.54,12.87 a 2.7,2.7 0 0 1 4,3.09 l -7,23.88 a 2.71,2.71 0 0 0 0.88,2.86 L 97,58.84 a 2.71,2.71 0 0 1 -1.56,4.8 L 70,65.14 a 2.68,2.68 0 0 0 -2.36,1.72 l -9.3,23.76 a 2.71,2.71 0 0 1 -5.03,0 z"
         style="color:#000000;font-style:normal;font-variant:normal;font-weight:normal;font-stretch:normal;font-size:medium;line-height:normal;font-family:sans-serif;font-variant-ligatures:normal;font-variant-position:normal;font-variant-caps:normal;font-variant-numeric:normal;font-variant-alternates:normal;font-feature-settings:normal;text-indent:0;text-align:start;text-decoration:none;text-decoration-line:none;text-decoration-style:solid;text-decoration-color:#000000;letter-spacing:normal;word-spacing:normal;text-transform:none;writing-mode:lr-tb;direction:ltr;text-orientation:mixed;dominant-baseline:auto;baseline-shift:baseline;text-anchor:start;white-space:normal;shape-padding:0;clip-rule:nonzero;display:inline;overflow:visible;visibility:visible;opacity:1;isolation:auto;mix-blend-mode:normal;color-interpolation:sRGB;color-interpolation-filters:linearRGB;solid-color:#000000;solid-opacity:1;vector-effect:none;fill:#e83a5f;fill-opacity:1;fill-rule:nonzero;stroke:none;stroke-width:6.2862463;stroke-linecap:butt;stroke-linejoin:miter;stroke-miterlimit:4;stroke-dasharray:none;stroke-dashoffset:0;stroke-opacity:1;color-rendering:auto;image-rendering:auto;shape-rendering:auto;text-rendering:auto;enable-background:accumulate" />
      <path
         inkscape:connector-curvature="0"
         id="path819"
         d="m 880.34,195.14 -36.28,-92.72 a 8,8 0 0 0 -7.44,-5.08 H 809 a 8,8 0 0 0 -7.43,5.08 l -36.29,92.72 A 5,5 0 0 0 770,202 h 20.53 a 7.67,7.67 0 0 0 7.14,-4.87 l 3.32,-8.5 a 5.06,5.06 0 0 1 4.71,-3.21 h 34.22 a 5,5 0 0 1 4.7,3.21 l 3.32,8.5 a 7.67,7.67 0 0 0 7.16,4.87 h 20.54 a 5,5 0 0 0 4.7,-6.86 z m -65.34,-42.3 5.3,-13.55 a 2.69,2.69 0 0 1 5,0 l 5.3,13.55 a 2.69,2.69 0 0 1 -2.5,3.66 h -10.6 a 2.68,2.68 0 0 1 -2.5,-3.66 z"
         style="color:#000000;font-style:normal;font-variant:normal;font-weight:normal;font-stretch:normal;font-size:medium;line-height:normal;font-family:sans-serif;font-variant-ligatures:normal;font-variant-position:normal;font-variant-caps:normal;font-variant-numeric:normal;font-variant-alternates:normal;font-feature-settings:normal;text-indent:0;text-align:start;text-decoration:none;text-decoration-line:none;text-decoration-style:solid;text-decoration-color:#000000;letter-spacing:normal;word-spacing:normal;text-transform:none;writing-mode:lr-tb;direction:ltr;text-orientation:mixed;dominant-baseline:auto;baseline-shift:baseline;text-anchor:start;white-space:normal;shape-padding:0;clip-rule:nonzero;display:inline;overflow:visible;visibility:visible;opacity:1;isolation:auto;mix-blend-mode:normal;color-interpolation:sRGB;color-interpolation-filters:linearRGB;solid-color:#000000;solid-opacity:1;vector-effect:none;fill:#e83a5f;fill-opacity:1;fill-rule:nonzero;stroke:none;stroke-width:6.2862463;stroke-linecap:butt;stroke-linejoin:miter;stroke-miterlimit:4;stroke-dasharray:none;stroke-dashoffset:0;stroke-opacity:1;color-rendering:auto;image-rendering:auto;shape-rendering:auto;text-rendering:auto;enable-background:accumulate" />
      <path
         inkscape:connector-curvature="0"
         id="path821"
         d="m 306.16,195.14 -36.28,-92.72 a 8,8 0 0 0 -7.44,-5.08 h -27.59 a 8,8 0 0 0 -7.44,5.08 l -36.28,92.72 a 5,5 0 0 0 4.7,6.88 h 20.54 a 7.67,7.67 0 0 0 7.14,-4.87 l 3.32,-8.5 a 5.05,5.05 0 0 1 4.7,-3.21 h 34.23 a 5.05,5.05 0 0 1 4.7,3.21 l 3.32,8.5 a 7.67,7.67 0 0 0 7.14,4.87 h 20.54 a 5,5 0 0 0 4.7,-6.88 z m -65.31,-42.3 5.3,-13.55 a 2.68,2.68 0 0 1 5,0 l 5.3,13.55 a 2.68,2.68 0 0 1 -2.5,3.66 h -10.6 a 2.68,2.68 0 0 1 -2.5,-3.66 z"
         style="color:#000000;font-style:normal;font-variant:normal;font-weight:normal;font-stretch:normal;font-size:medium;line-height:normal;font-family:sans-serif;font-variant-ligatures:normal;font-variant-position:normal;font-variant-caps:normal;font-variant-numeric:normal;font-variant-alternates:normal;font-feature-settings:normal;text-indent:0;text-align:start;text-decoration:none;text-decoration-line:none;text-decoration-style:solid;text-decoration-color:#000000;letter-spacing:normal;word-spacing:normal;text-transform:none;writing-mode:lr-tb;direction:ltr;text-orientation:mixed;dominant-baseline:auto;baseline-shift:baseline;text-anchor:start;white-space:normal;shape-padding:0;clip-rule:nonzero;display:inline;overflow:visible;visibility:visible;opacity:1;isolation:auto;mix-blend-mode:normal;color-interpolation:sRGB;color-interpolation-filters:linearRGB;solid-color:#000000;solid-opacity:1;vector-effect:none;fill:#e83a5f;fill-opacity:1;fill-rule:nonzero;stroke:none;stroke-width:6.2862463;stroke-linecap:butt;stroke-linejoin:miter;stroke-miterlimit:4;stroke-dasharray:none;stroke-dashoffset:0;stroke-opacity:1;color-rendering:auto;image-rendering:auto;shape-rendering:auto;text-rendering:auto;enable-background:accumulate" />
      <path
         inkscape:connector-curvature="0"
         id="path823"
         d="M 162.82,195.14 126.54,102.42 A 8,8 0 0 0 119.1,97.34 H 91.51 a 8,8 0 0 0 -7.43,5.08 L 47.8,195.14 A 5,5 0 0 0 52.5,202 H 73 a 7.66,7.66 0 0 0 7.14,-4.87 l 3.33,-8.5 a 5,5 0 0 1 4.7,-3.21 h 34.22 a 5,5 0 0 1 4.7,3.21 l 3.32,8.5 a 7.68,7.68 0 0 0 7.15,4.87 h 20.53 a 5,5 0 0 0 4.73,-6.86 z m -65.31,-42.3 5.3,-13.55 a 2.69,2.69 0 0 1 5,0 l 5.3,13.55 a 2.68,2.68 0 0 1 -2.5,3.66 H 100 a 2.68,2.68 0 0 1 -2.49,-3.66 z"
         style="color:#000000;font-style:normal;font-variant:normal;font-weight:normal;font-stretch:normal;font-size:medium;line-height:normal;font-family:sans-serif;font-variant-ligatures:normal;font-variant-position:normal;font-variant-caps:normal;font-variant-numeric:normal;font-variant-alternates:normal;font-feature-settings:normal;text-indent:0;text-align:start;text-decoration:none;text-decoration-line:none;text-decoration-style:solid;text-decoration-color:#000000;letter-spacing:normal;word-spacing:normal;text-transform:none;writing-mode:lr-tb;direction:ltr;text-orientation:mixed;dominant-baseline:auto;baseline-shift:baseline;text-anchor:start;white-space:normal;shape-padding:0;clip-rule:nonzero;display:inline;overflow:visible;visibility:visible;opacity:1;isolation:auto;mix-blend-mode:normal;color-interpolation:sRGB;color-interpolation-filters:linearRGB;solid-color:#000000;solid-opacity:1;vector-effect:none;fill:#e83a5f;fill-opacity:1;fill-rule:nonzero;stroke:none;stroke-width:6.2862463;stroke-linecap:butt;stroke-linejoin:miter;stroke-miterlimit:4;stroke-dasharray:none;stroke-dashoffset:0;stroke-opacity:1;color-rendering:auto;image-rendering:auto;shape-rendering:auto;text-rendering:auto;enable-background:accumulate" />
      <path
         inkscape:connector-curvature="0"
         id="path825"
         d="m 516.62,97.34 h -37.51 a 7.66,7.66 0 0 0 -7.67,7.67 v 89.35 a 7.66,7.66 0 0 0 7.67,7.66 h 37.51 a 52.34,52.34 0 1 0 0,-104.68 z m -0.48,71.52 h -8.85 a 2.68,2.68 0 0 1 -2.69,-2.68 v -33 a 2.68,2.68 0 0 1 2.69,-2.68 h 9.33 a 19.19,19.19 0 0 1 19.1,19.86 19.45,19.45 0 0 1 -19.58,18.5 z"
         style="color:#000000;font-style:normal;font-variant:normal;font-weight:normal;font-stretch:normal;font-size:medium;line-height:normal;font-family:sans-serif;font-variant-ligatures:normal;font-variant-position:normal;font-variant-caps:normal;font-variant-numeric:normal;font-variant-alternates:normal;font-feature-settings:normal;text-indent:0;text-align:start;text-decoration:none;text-decoration-line:none;text-decoration-style:solid;text-decoration-color:#000000;letter-spacing:normal;word-spacing:normal;text-transform:none;writing-mode:lr-tb;direction:ltr;text-orientation:mixed;dominant-baseline:auto;baseline-shift:baseline;text-anchor:start;white-space:normal;shape-padding:0;clip-rule:nonzero;display:inline;overflow:visible;visibility:visible;opacity:1;isolation:auto;mix-blend-mode:normal;color-interpolation:sRGB;color-interpolation-filters:linearRGB;solid-color:#000000;solid-opacity:1;vector-effect:none;fill:#e83a5f;fill-opacity:1;fill-rule:nonzero;stroke:none;stroke-width:6.2862463;stroke-linecap:butt;stroke-linejoin:miter;stroke-miterlimit:4;stroke-dasharray:none;stroke-dashoffset:0;stroke-opacity:1;color-rendering:auto;image-rendering:auto;shape-rendering:auto;text-rendering:auto;enable-background:accumulate" />
      <path
         inkscape:connector-curvature="0"
         id="path827"
         d="m 1004.89,97.34 h -17.83 a 7.67,7.67 0 0 0 -7.67,7.67 v 45.08 a 1.27,1.27 0 0 1 -2.45,0.49 l -19.8,-46.94 a 10.3,10.3 0 0 0 -9.5,-6.3 h -27.7 a 7.66,7.66 0 0 0 -7.67,7.67 v 89.35 a 7.66,7.66 0 0 0 7.67,7.66 h 17.83 a 7.66,7.66 0 0 0 7.66,-7.66 v -41.11 a 1.28,1.28 0 0 1 2.46,-0.49 l 18.12,43 a 10.3,10.3 0 0 0 9.5,6.3 h 29.38 a 7.67,7.67 0 0 0 7.67,-7.66 V 105 a 7.67,7.67 0 0 0 -7.67,-7.66 z"
         style="color:#000000;font-style:normal;font-variant:normal;font-weight:normal;font-stretch:normal;font-size:medium;line-height:normal;font-family:sans-serif;font-variant-ligatures:normal;font-variant-position:normal;font-variant-caps:normal;font-variant-numeric:normal;font-variant-alternates:normal;font-feature-settings:normal;text-indent:0;text-align:start;text-decoration:none;text-decoration-line:none;text-decoration-style:solid;text-decoration-color:#000000;letter-spacing:normal;word-spacing:normal;text-transform:none;writing-mode:lr-tb;direction:ltr;text-orientation:mixed;dominant-baseline:auto;baseline-shift:baseline;text-anchor:start;white-space:normal;shape-padding:0;clip-rule:nonzero;display:inline;overflow:visible;visibility:visible;opacity:1;isolation:auto;mix-blend-mode:normal;color-interpolation:sRGB;color-interpolation-filters:linearRGB;solid-color:#000000;solid-opacity:1;vector-effect:none;fill:#e83a5f;fill-opacity:1;fill-rule:nonzero;stroke:none;stroke-width:6.2862463;stroke-linecap:butt;stroke-linejoin:miter;stroke-miterlimit:4;stroke-dasharray:none;stroke-dashoffset:0;stroke-opacity:1;color-rendering:auto;image-rendering:auto;shape-rendering:auto;text-rendering:auto;enable-background:accumulate" />
      <path
         inkscape:connector-curvature="0"
         id="path829"
         d="M 432.85,195.23 416,162.35 a 2.7,2.7 0 0 1 0.76,-3.35 34.19,34.19 0 0 0 13,-27 c -0.1,-18.92 -15.87,-34 -34.78,-34 h -48.2 a 7.66,7.66 0 0 0 -7.66,7.66 V 195 a 7.66,7.66 0 0 0 7.66,7.67 h 17.83 a 7.66,7.66 0 0 0 7.67,-7.67 v -25.9 a 2.68,2.68 0 0 1 2.68,-2.68 h 6.84 a 5,5 0 0 1 4.49,2.74 l 14.89,29 a 8.31,8.31 0 0 0 7.39,4.51 h 19.74 a 5.1,5.1 0 0 0 4.54,-7.44 z m -36.34,-63.09 a 9.16,9.16 0 0 1 -9.15,9.16 H 375 a 2.69,2.69 0 0 1 -2.68,-2.69 v -13 A 2.68,2.68 0 0 1 375,123 h 12.4 a 9.16,9.16 0 0 1 9.15,9.16 z"
         style="color:#000000;font-style:normal;font-variant:normal;font-weight:normal;font-stretch:normal;font-size:medium;line-height:normal;font-family:sans-serif;font-variant-ligatures:normal;font-variant-position:normal;font-variant-caps:normal;font-variant-numeric:normal;font-variant-alternates:normal;font-feature-settings:normal;text-indent:0;text-align:start;text-decoration:none;text-decoration-line:none;text-decoration-style:solid;text-decoration-color:#000000;letter-spacing:normal;word-spacing:normal;text-transform:none;writing-mode:lr-tb;direction:ltr;text-orientation:mixed;dominant-baseline:auto;baseline-shift:baseline;text-anchor:start;white-space:normal;shape-padding:0;clip-rule:nonzero;display:inline;overflow:visible;visibility:visible;opacity:1;isolation:auto;mix-blend-mode:normal;color-interpolation:sRGB;color-interpolation-filters:linearRGB;solid-color:#000000;solid-opacity:1;vector-effect:none;fill:#e83a5f;fill-opacity:1;fill-rule:nonzero;stroke:none;stroke-width:6.2862463;stroke-linecap:butt;stroke-linejoin:miter;stroke-miterlimit:4;stroke-dasharray:none;stroke-dashoffset:0;stroke-opacity:1;color-rendering:auto;image-rendering:auto;shape-rendering:auto;text-rendering:auto;enable-background:accumulate" />
      <path
         inkscape:connector-curvature="0"
         id="path831"
         d="m 726,97.34 h -30.91 a 7.67,7.67 0 0 0 -7.14,4.87 l -16.88,43.15 a 2.68,2.68 0 0 1 -5,0 L 649.18,102.21 A 7.66,7.66 0 0 0 642,97.34 h -30.9 a 7.66,7.66 0 0 0 -7.67,7.67 v 89.35 a 7.66,7.66 0 0 0 7.67,7.66 H 629 a 7.66,7.66 0 0 0 7.67,-7.66 v -32.7 a 1.28,1.28 0 0 1 2.47,-0.47 l 14.07,36 a 7.66,7.66 0 0 0 7.14,4.87 h 5.65 1 c 0.19,0 0.38,0 0.58,0 h 9.24 a 7.68,7.68 0 0 0 7.15,-4.87 l 14.07,-36 a 1.27,1.27 0 0 1 2.46,0.47 v 32.7 a 7.67,7.67 0 0 0 7.67,7.66 H 726 a 7.67,7.67 0 0 0 7.67,-7.66 V 105 A 7.67,7.67 0 0 0 726,97.34 Z"
         style="color:#000000;font-style:normal;font-variant:normal;font-weight:normal;font-stretch:normal;font-size:medium;line-height:normal;font-family:sans-serif;font-variant-ligatures:normal;font-variant-position:normal;font-variant-caps:normal;font-variant-numeric:normal;font-variant-alternates:normal;font-feature-settings:normal;text-indent:0;text-align:start;text-decoration:none;text-decoration-line:none;text-decoration-style:solid;text-decoration-color:#000000;letter-spacing:normal;word-spacing:normal;text-transform:none;writing-mode:lr-tb;direction:ltr;text-orientation:mixed;dominant-baseline:auto;baseline-shift:baseline;text-anchor:start;white-space:normal;shape-padding:0;clip-rule:nonzero;display:inline;overflow:visible;visibility:visible;opacity:1;isolation:auto;mix-blend-mode:normal;color-interpolation:sRGB;color-interpolation-filters:linearRGB;solid-color:#000000;solid-opacity:1;vector-effect:none;fill:#e83a5f;fill-opacity:1;fill-rule:nonzero;stroke:none;stroke-width:6.2862463;stroke-linecap:butt;stroke-linejoin:miter;stroke-miterlimit:4;stroke-dasharray:none;stroke-dashoffset:0;stroke-opacity:1;color-rendering:auto;image-rendering:auto;shape-rendering:auto;text-rendering:auto;enable-background:accumulate" />
    </g>
  </g>
</svg>
