<svg id="Logo" xmlns="http://www.w3.org/2000/svg" viewBox="0 0 368.5 56.69"><link xmlns="" type="text/css" id="dark-mode" rel="stylesheet" href=""/><style xmlns="" type="text/css" id="dark-mode-custom-style"/><defs><style>.cls-1,.cls-3{fill:#ed1a3b;}.cls-2{fill:#fff;}.cls-2,.cls-3{fill-rule:evenodd;}</style></defs><title>BAE Logo</title><rect class="cls-1" width="368.5" height="56.69"/><path class="cls-2" d="M324.66,34.05c1.51,6.06,6.72,8.51,12.58,8.51s12.45-2.69,12.45-9.4A7.78,7.78,0,0,0,345.55,26a29.8,29.8,0,0,0-7.91-2.24c-1-.25-3.09-.53-3.09-2S336.18,20,337.32,20c2.16,0,3.71.73,4.52,2.8l7.08-2.15c-1.71-4.85-6.38-6.84-11.23-6.84a14.11,14.11,0,0,0-8,2.12,8.61,8.61,0,0,0-3.58,7c0,6.64,6.22,8.06,11.48,9.08,1.25.24,3.42.57,3.42,2.28,0,1.54-2.2,1.71-3.3,1.71-2.48,0-4.35-.9-5.09-3.38l-7.94,1.43"/><polygon class="cls-2" points="316.12 14.21 304.84 14.21 301.01 29.03 296.93 14.21 285.75 14.21 285.75 42.14 292.18 42.14 292.18 22.19 297.51 42.14 302.97 42.14 308.06 22.19 308.13 42.14 316.12 42.14 316.12 14.21"/><polygon class="cls-2" points="275.21 35.47 262.63 35.47 262.63 30.95 272.82 30.95 272.82 24.73 262.63 24.73 262.63 20.64 275.21 20.64 275.21 14.22 254.25 14.22 254.25 42.14 275.21 42.14 275.21 35.47"/><polygon class="cls-2" points="239.1 20.93 244.84 20.93 244.84 14.21 225.1 14.21 225.1 20.93 230.97 20.93 230.97 42.14 239.1 42.14 239.1 20.93"/><path class="cls-2" d="M192.37,34.05c1.51,6.06,6.71,8.51,12.58,8.51s12.45-2.69,12.45-9.4A7.77,7.77,0,0,0,213.25,26a29.73,29.73,0,0,0-7.9-2.24c-1-.25-3.09-.53-3.09-2S203.89,20,205,20c2.16,0,3.71.73,4.52,2.8l7.08-2.15c-1.7-4.85-6.38-6.84-11.23-6.84a14.13,14.13,0,0,0-8,2.12,8.67,8.67,0,0,0-3.58,7c0,6.64,6.23,8.06,11.47,9.08,1.27.24,3.43.57,3.43,2.28,0,1.54-2.19,1.71-3.3,1.71-2.47,0-4.35-.9-5.09-3.38l-7.93,1.43"/><polygon class="cls-2" points="187.45 14.21 179.95 14.21 175.28 23.41 170.39 14.21 160.98 14.21 170.39 30.34 170.39 42.14 178.7 42.14 178.7 30.34 187.45 14.21"/><path class="cls-2" d="M130.08,34.05c1.51,6.06,6.72,8.51,12.58,8.51s12.46-2.69,12.46-9.4A7.74,7.74,0,0,0,151,26a29.66,29.66,0,0,0-7.89-2.24c-1.06-.25-3.1-.53-3.1-2S141.6,20,142.75,20c2.15,0,3.7.73,4.52,2.8l7.07-2.15c-1.7-4.85-6.39-6.84-11.23-6.84a14.08,14.08,0,0,0-8,2.12,8.65,8.65,0,0,0-3.59,7c0,6.64,6.23,8.06,11.48,9.08,1.26.24,3.42.57,3.42,2.28,0,1.54-2.21,1.71-3.3,1.71-2.48,0-4.36-.9-5.09-3.38l-7.94,1.43"/><polygon class="cls-2" points="108.73 35.47 96.15 35.47 96.15 30.95 106.31 30.95 106.31 24.73 96.15 24.73 96.15 20.64 108.73 20.64 108.73 14.22 87.75 14.22 87.75 42.14 108.73 42.14 108.73 35.47"/><polygon class="cls-2" points="69.93 42.14 78.67 42.14 69.93 14.21 60.88 14.21 52.22 42.14 59.19 42.14 60.88 36.66 68.34 36.66 69.93 42.14"/><path class="cls-2" d="M21.07,42.14h12.8c2.52,0,5.54,0,7.68-1.58s2.87-4.11,2.87-6.51A6.28,6.28,0,0,0,39,27.69a6.23,6.23,0,0,0,4.73-6.14,7.39,7.39,0,0,0-3-5.91c-1.76-1.27-3.92-1.42-6-1.42H21.07V42.14"/><polygon class="cls-3" points="62.31 30.55 64.58 22.44 66.88 30.55 62.31 30.55"/><path class="cls-3" d="M28.93,24.94V20.2h3.34c1.64,0,3.34.28,3.34,2.37a2.51,2.51,0,0,1-.81,1.82,3.43,3.43,0,0,1-2.4.55H28.93"/><path class="cls-3" d="M28.93,35.92V30.87h3.39a5.75,5.75,0,0,1,2.48.37,2.43,2.43,0,0,1,.32,4.15,3.74,3.74,0,0,1-2.48.53H28.93"/></svg>