<?xml version="1.0" encoding="utf-8"?>
<!-- Generator: Adobe Illustrator 23.0.4, SVG Export Plug-In . SVG Version: 6.00 Build 0)  -->
<svg version="1.1" id="BT_Logo" xmlns="http://www.w3.org/2000/svg" xmlns:xlink="http://www.w3.org/1999/xlink" x="0px" y="0px"
	 viewBox="0 0 521.6 521.6" style="enable-background:new 0 0 521.6 521.6;" xml:space="preserve">
<style type="text/css">
	.st0{fill:#5514b4;}
</style>
<path class="st0" d="M273.6,171.9h129.9V210h-43.6v139.3h-42.8V210h-43.5L273.6,171.9L273.6,171.9z M260.8,489.5
	C134.6,489.5,32.1,387,32.1,260.8S134.6,32.1,260.8,32.1s228.7,102.5,228.7,228.7S387,489.5,260.8,489.5 M260.8,521.6
	c144,0,260.8-116.8,260.8-260.8S404.8,0,260.8,0C116.9,0,0,116.8,0,260.8S116.9,521.6,260.8,521.6 M216.7,295c0-11.2-7-18.8-19-18.8
	H169v37h28.7C209.7,313.2,216.7,305.7,216.7,295 M211.5,223.8c0-9.4-6-15.9-16.2-15.9H169v32.3h26.3
	C205.5,240.2,211.5,233.7,211.5,223.8 M260,297.1c0,33.6-23.7,52.2-57.6,52.2h-75.6V171.9h70.6c34.2,0,57.4,17.5,57.4,49.5
	c0,14.6-6.5,27.6-17,35.5C249.8,264,260,277.5,260,297.1"/>
</svg>
