<?xml version="1.0" encoding="UTF-8"?><svg xmlns="http://www.w3.org/2000/svg" class="header" enable-background="new 0 0 118 23" height="39px" id="svg3336" preserveAspectRatio="xMidYMid meet" version="1.1" viewBox="0 0 118 23" width="200px" x="0px" xml:space="preserve" y="0px"><metadata id="metadata3390"/><defs id="defs3388"/><style type="text/css">.b2p-yellow-header.header .img {fill:#FFF;} .text{fill:	#00355F;}.img{fill:	#EEC218;}</style><g class="text" id="g3340" transform="translate(0.02937789,0.00119173)"><g id="g3342"><polygon id="polygon3344" points="117,9.8 116.6,10.9 116.2,9.8 116.2,9.8 116.2,9.8 115.8,9.8 115.8,9.8 115.8,11.3 115.8,11.3 115.8,11.3 115.8,11.3 116,11.3 116,10.2 116,10.2 116.5,11.3 116.5,11.3 116.5,11.3 116.7,11.3 117.1,10.2 117.1,10.2 117.1,11.3 117.1,11.3 117.2,11.3 117.2,11.3 117.4,11.3 117.4,9.8 117.4,9.8 117.4,9.8 117.4,9.8 "/><polygon id="polygon3346" points="114.3,9.8 114.3,9.8 114.3,10.1 114.3,10.1 114.3,10.1 114.3,10.1 114.7,10.1 114.7,11.3 114.7,11.3 114.7,11.3 115,11.3 115,10.1 115.5,10.1 115.5,9.8 115.5,9.8 115.5,9.8 115.5,9.8 "/><path d="m 85.505,15.602 c -0.113,0.058 -0.226,0.098 -0.339,0.145 -0.084,0.036 -0.169,0.08 -0.254,0.1 -0.395,0.136 -0.791,0.205 -1.205,0.205 -1.607,0 -2.678,-0.951 -2.678,-2.436 0,-0.907 0.385,-1.652 1.078,-2.084 0.415,-0.258 0.941,-0.404 1.562,-0.404 0.588,0 1.3,0.2 2.2,0.57 l 0,-0.002 c 0.001,0 0,0 0,0 l 0.165,-1.26 0.059,-0.447 0,0 0,0.007 C 85.16,9.651 84.314,9.444 83.486,9.444 c -2.644,0 -4.545,1.899 -4.545,4.163 0,0 0,0 0,0.001 l 0,0 c 0,2.5 1.8,4.1 4.3,4.146 0.969,0 1.85,-0.241 2.625,-0.707 l 0,-0.001 c 0.001,0 0.001,-10e-4 0.002,-10e-4 l 0.225,-1.797 c -0.169,0.111 -0.334,0.204 -0.499,0.293 C 85.575,15.6 85.5,15.6 85.5,15.602 Z" id="path3348"/><path d="m 34.457,13.288 2.902,-3.485 c 0.007,-0.01 0.008,-0.022 0.004,-0.034 l 0,0 c 0,0 0,0 0,-10e-4 C 37.358,9.76 37.347,9.749 37.335,9.749 l -1.987,0 c -0.009,0 -0.018,0.006 -0.024,0.013 L 33.449,12.045 31.608,9.764 C 31.604,9.755 31.592,9.749 31.585,9.749 l -2.438,0 c -0.003,0 -0.007,0.005 -0.011,0.008 -0.007,0.003 -0.015,0.006 -0.017,0 -0.005,0.011 -0.005,0 0,0.034 l 3.059,3.763 -3.094,3.798 c -0.007,0.008 -0.009,0.021 -0.003,0 0.006,0 0,0 0,0.018 l 0.002,0 1.95,0 10e-4,0 c 0.008,0 0.017,-0.002 0.023,-0.011 l 2.101,-2.562 2.1,2.6 c 0.006,0 0,0 0,0.011 l 2.437,0 c 0.012,0 0.022,-0.006 0.026,-0.018 0.006,-0.01 0.005,-0.023 -0.004,-0.031 l -3.26,-4.071 z" id="path3350"/><path d="m 50.946,9.438 c -0.676,0 -1.29,0.151 -1.837,0.404 -1.398,0.646 -2.309,2.025 -2.309,3.8 0,1.7 0.9,3.1 2.3,3.757 0.547,0.3 1.2,0.4 1.8,0.403 0.924,0 2.105,-0.336 3.277,-0.832 0.01,-0.002 0.016,-0.012 0.018,-0.026 L 54.2,15.23 c 0,-0.023 -0.025,-0.043 -0.046,-0.031 -1.263,0.67 -2.155,0.957 -2.995,1 -1.368,0 -2.21,-0.739 -2.325,-2.035 l 5.576,0 c 0.011,0 0.022,-0.008 0.026,-0.015 0,0 0,0 0,-10e-4 l 10e-4,0 c 0.001,-0.017 0.028,-0.36 0.045,-0.686 0.009,-0.163 0.016,-0.322 0.017,-0.432 l 0,0 0,-10e-4 C 54.545,10.9 53.1,9.4 50.9,9.438 Z M 50.945,11.1 c 0.972,0 1.6,0.8 1.6,1.72 l 0,0.074 -3.673,0 C 49.128,11.8 49.9,11.1 50.9,11.1 Z" id="path3352"/><path d="m 65.816,5.689 c -0.685,0 -1.241,0.564 -1.241,1.257 0,0 0,0 0,0.001 0,0 0,0 0,0 0,0.5 0.3,0.9 0.8,1.125 0.148,0.1 0.3,0.1 0.5,0.096 0.685,0 1.24,-0.548 1.24,-1.222 C 67.056,6.3 66.5,5.7 65.8,5.689 Z" id="path3354"/><path d="M 64.805,9.751 C 64.791,9.755 64.78,9.766 64.78,9.781 l 0,7.6 c 0,0 0,0 0,0.031 l 2.004,0 c 0.011,0 0.015,-0.012 0.02,-0.021 0.003,-0.004 0.011,-0.003 0.011,-0.01 l 0,-7.601 c 0,-0.014 -0.01,-0.027 -0.025,-0.029 l -1.985,0 z" id="path3356"/><path d="m 41.985,9.439 c -0.568,0 -1.141,0.103 -1.743,0.31 l -2.005,0 c 0,0 0,10e-4 -0.001,10e-4 l 0,0 c -0.017,0 -0.029,0.015 -0.029,0.031 l 0,12.461 c 0,0 0,0 0,0 l 0,0 c 0.026,-0.004 0.056,-0.012 0.083,-0.016 0.591,-0.088 1.293,-0.304 1.987,-0.795 l 0,-0.001 0,0 -10e-4,-3.79 c 0.493,0.1 0.9,0.1 1.3,0.1 2.747,0 4.525,-1.645 4.525,-4.191 0,-0.508 -0.09,-0.975 -0.23,-1.41 C 45.34,10.5 43.9,9.4 42,9.439 Z M 41.439,16.3 c -0.365,0 -0.737,-0.051 -1.164,-0.165 l 0.003,-4.876 c 0.5,-0.16 0.937,-0.234 1.367,-0.234 1.396,0 2.3,1 2.3,2.6 0,1 -0.371,1.78 -1.003,2.243 C 42.565,16.1 42,16.3 41.4,16.268 Z" id="path3358"/><path d="m 61.145,5.728 0,3.977 C 60.557,9.534 60.04,9.457 59.516,9.457 c -2.391,0 -4.194,1.801 -4.194,4.194 l 0,10e-4 0,0.001 c 0,2.4 1.6,4.1 3.8,4.105 0.758,0 1.471,-0.189 2.304,-0.619 l -0.003,0.688 10e-4,0 0,0 c 0.552,-0.105 1.185,-0.326 1.81,-0.77 l 0,-10e-4 0,-12.142 0,-0.002 c -0.612,0.081 -1.34,0.287 -2.068,0.814 l 0,0.002 z m -3.705,8.044 c 0,-1.699 0.952,-2.801 2.423,-2.801 0.406,0 0.8,0.1 1.3,0.315 l 0,4.352 c -0.628,0.327 -1.188,0.485 -1.715,0.485 -0.311,0 -0.591,-0.055 -0.836,-0.16 C 57.86,15.6 57.4,14.9 57.4,13.772 Z" id="path3360"/><path d="m 75.81,9.573 -1.627,0.003 c -0.05,0 -0.088,0.04 -0.088,0.087 l 0,10e-4 0,0.276 -0.041,0 C 73.302,9.611 72.658,9.458 72.029,9.458 c -2.253,0 -4.021,1.869 -4.021,4.261 0,2.4 1.6,4 3.9,4 0.627,0 1.436,-0.043 2.188,-0.91 l 0,0.977 c 10e-4,0 0,0 0,0 l 0,0 c 0.533,-0.113 1.164,-0.34 1.763,-0.771 L 75.861,9.62 C 75.898,9.6 75.9,9.6 75.8,9.573 Z m -5.662,3.615 c 0.199,-1.339 1.07,-2.201 2.293,-2.201 0.376,0 0.8,0.1 1.4,0.4 l 0,4.197 c -0.152,0.088 -0.299,0.164 -0.44,0.229 -0.425,0.195 -0.806,0.291 -1.153,0.291 -1.332,0 -2.128,-0.877 -2.128,-2.353 C 70.105,13.6 70.1,13.4 70.1,13.188 Z" id="path3362"/><path d="m 28.591,15.485 -5.046,0 -0.001,0 0,-3.805 4.288,0 c 0.018,0 0.031,-0.014 0.031,-0.029 l 0,-0.002 0,-1.877 0,-0.003 C 27.863,9.755 27.85,9.74 27.832,9.74 l -4.288,0 0,-2.706 4.332,0 C 28.313,6.363 28.503,5.686 28.58,5.123 l 0,0 c 0,-0.001 0,-0.002 0,-0.003 l -5.885,0.002 c -0.019,0 -0.038,-0.003 -0.059,-0.003 -0.642,0 -1.171,0.499 -1.234,1.131 0,0.002 -0.001,0.005 -0.002,0 -0.002,0.006 -0.005,0.012 -0.005,0.017 l 0,4.784 0,5.171 c 0.001,0 0,0 0,0.024 0.063,0.6 0.6,1.1 1.2,1.1 0.021,0 0,0 0.1,0 l 0.001,0 0.86,0 4.332,0 C 28.325,16.7 28.5,16 28.6,15.485 l -0.009,0 0,0 z" id="path3364"/><path d="m 77.909,15.483 c -0.588,0 -1.09,0.501 -1.09,1.105 0,0.6 0.5,1.1 1.1,1.1 0.604,0 1.106,-0.483 1.106,-1.088 C 79.015,16 78.5,15.5 77.9,15.483 Z" id="path3366"/><path d="m 103.463,14.144 c 0,1.228 -0.778,1.83 -2.057,1.83 -0.898,0 -1.382,-0.481 -1.382,-1.418 l 0,-4.748 -2.004,0 0,5.183 c 0,1.8 0.9,2.7 2.6,2.713 1.157,0 2.109,-0.484 2.938,-1.471 l 0.002,0.055 c 0,0.4 0,1.5 0,1.5 0.506,-0.107 1.097,-0.316 1.664,-0.703 0.099,-0.064 0.187,-0.129 0.217,-0.151 l 0,-7.09 -2.004,0 0,4.3 z" id="path3368"/><path d="m 113.995,9.808 -2.437,0 -2.781,2.9 0,-7.756 -0.015,0.006 0,-0.005 0,-0.001 c -0.592,0.079 -1.291,0.28 -1.997,0.767 l 0,0 c 0,0 -0.001,0 -0.001,0 l 0.009,11.689 2.003,0 0,-3.523 3.316,3.523 0.002,0 2.558,0 0.001,0 -4.219,-4.283 3.561,-3.317 z" id="path3370"/><path d="m 91.065,9.462 c -0.294,0 -0.578,0.027 -0.852,0.078 -1.915,0.361 -3.277,1.936 -3.277,4.1 0,2.4 1.8,4.1 4.1,4.146 2.366,0 4.111,-1.709 4.111,-4.146 C 95.176,11.2 93.4,9.5 91.1,9.462 Z m 0,6.738 c -1.191,0 -2.072,-0.986 -2.072,-2.541 0,-1.588 0.897,-2.556 2.072,-2.556 1.174,0 2.1,1 2.1,2.6 C 93.122,15.2 92.2,16.2 91.1,16.167 Z" id="path3372"/><path d="m 96.288,15.422 c -0.59,0 -1.09,0.5 -1.09,1.104 0,0.6 0.5,1.1 1.1,1.09 0.604,0 1.104,-0.484 1.104,-1.09 C 97.392,15.9 96.9,15.4 96.3,15.422 Z" id="path3374"/><path d="m 17.192,15.715 c -0.512,0 -0.95,0.386 -0.95,0.968 0,0.6 0.4,1 0.9,1 0.506,0 0.945,-0.383 0.945,-0.964 C 18.138,16.1 17.7,15.7 17.2,15.715 Z m 0,1.836 c -0.5,0 -0.81,-0.391 -0.81,-0.869 0,-0.514 0.355,-0.87 0.81,-0.87 0.451,0 0.8,0.4 0.8,0.87 C 17.997,17.2 17.6,17.6 17.2,17.551 Z" id="path3376"/><path d="m 17.641,16.438 c 0,-0.23 -0.142,-0.329 -0.417,-0.329 l -0.434,0 0,1.144 0.188,0 0,-0.488 0.176,0 0.296,0.488 0.212,0 -0.32,-0.502 C 17.515,16.7 17.6,16.6 17.6,16.438 Z m -0.676,0.164 0,-0.352 0.238,0 c 0.12,0 0.3,0 0.3,0.2 0,0.174 -0.131,0.188 -0.281,0.188 l -0.257,0 z" id="path3378"/><path d="M 10.662,7.001 10.295,5.962 7.181,1.802 7.74,1.663 13.11,6.304 16.269,5.4 C 16.64,5.305 17.061,5.284 17.383,5.286 16.39,3.144 14.573,1.387 12.174,0.532 7.431,-1.159 2.2,1.3 0.5,6.1 -0.022,7.569 -0.145,9.082 0.074,10.522 l 7.568,-2.629 3.02,-0.892 z" id="path3380"/><path d="m 16.625,6.651 -3.166,0.904 -2.113,6.781 -0.548,0.179 0.447,-5.18 -0.25,-1.076 -2.966,0.848 -7.843,1.8 c 0.622,3 2.8,5.6 5.9,6.755 4.744,1.7 9.956,-0.789 11.643,-5.53 C 18.457,10.088 18.41,7.957 17.743,6.058 17.437,6.3 17,6.5 16.6,6.651 Z" id="path3382"/></g><path class="img" d="m 10.996,8.26 0.25,1.076 -0.447,5.18 0.548,-0.178 2.113,-6.782 3.166,-0.904 C 17.031,6.523 17.438,6.285 17.716,6.106 17.618,5.828 17.507,5.554 17.383,5.286 17.061,5.3 16.6,5.3 16.3,5.4 L 13.11,6.3 7.74,1.66 7.181,1.802 10.295,5.963 10.662,7.002 7.671,7.856 0.103,10.485 c 0.024,0.2 0.1,0.3 0.1,0.468 L 8.046,9.106 10.996,8.26 Z" id="path3384"/></g></svg>
