<svg xmlns="http://www.w3.org/2000/svg" width="100%" height="100%" viewBox="0 0 238.00449 46.38397" class="fill-currentcolor">
  <title>gunnercooke logo</title>
  <path d="M20.953,13.387a6.673,6.673,0,0,1-2.202,2.454l-2.682-.202a6.63483,6.63483,0,0,1,1.417,4.327c0,5.162-4.226,7.718-8.401,7.718A14.6779,14.6779,0,0,1,6.63,27.431c-.708.532-1.543,1.467-1.543,2.126,0,.936.784,1.771,2.91,1.771,1.923,0,3.669-.026,5.314-.026,3.037,0,6.858,1.013,6.858,5.72,0,4.808-5.542,9.362-11.843,9.362C3.062,46.384.051,43.272,0,40.463a3.97349,3.97349,0,0,1,1.139-2.784,47.22981,47.22981,0,0,1,3.897-3.39,6.23516,6.23516,0,0,1-3.518-2.582,3.6404,3.6404,0,0,1-.481-1.923,9.63132,9.63132,0,0,0,4.05-2.96,6.85583,6.85583,0,0,1-4.05-6.326c0-5.467,4.935-7.997,8.554-7.997h.05a9.85522,9.85522,0,0,1,4.505,1.164,58.42428,58.42428,0,0,0,6.478-.708ZM10.3,34.389c-2.303,0-3.392.33-4.328,1.14a5.18607,5.18607,0,0,0-2.353,3.897c0,2.631,2.833,4.402,6.352,4.402,4.706,0,7.136-2.328,7.136-5.339a3.49564,3.49564,0,0,0-2.075-3.39,11.03956,11.03956,0,0,0-4.682-.71ZM9.034,13.994c-2.177,0-4.175,2.126-4.175,5.794,0,3.69495,2.049,6.276,4.732,6.276,2.201-.024,4.226-1.998,4.226-5.668,0-3.846-2.025-6.402-4.732-6.402Z">
  </path>
  <path d="M45.59518,32.97272a26.965,26.965,0,0,0-3.568.759c-1.215.329-2.429.658-3.189.937l-.328-.279v-3.416a26.6719,26.6719,0,0,1-3.77,2.582,6.65918,6.65918,0,0,1-3.568,1.113c-3.038,0-5.973-1.823-5.973-7.289v-9.109c0-2.683-.404-2.91-1.543-3.138l-1.494-.278v-1.266c1.038-.051,2.101-.202,3.366-.303,1.291-.229,2.606-.405,3.214-.608-.152,1.594-.152,3.948-.152,7.111v6.326c0,4.479,2.201,5.593,4.454,5.593a7.92516,7.92516,0,0,0,5.466-2.48v-10.957c0-2.683-.481-2.91-2.126-3.138l-1.771-.278v-1.266c1.265-.051,3.011-.202,4.327-.329a22.07966,22.07966,0,0,0,2.985-.582v16.069c0,2.454.431,2.733,2.303,2.835l1.367.049Z">
  </path>
  <path d="M61.19708,34.11151v-1.367c2.961-.329,3.341-.708,3.341-3.948v-7.895c0-3.365-1.115-5.642-4.556-5.642-2.075,0-4.074,1.29-5.592,2.68195v11.058c0,3.316.228,3.416,3.29,3.745v1.367h-10.198v-1.367c3.239-.329,3.543-.607,3.543-3.719v-9.768c0-3.088-.329-3.29-2.962-3.695v-1.24a21.53118,21.53118,0,0,0,6.327-1.973v3.82c.936-.708,1.974-1.366,3.188-2.226a8.27564,8.27564,0,0,1,4.151-1.442c3.744,0,6.148,2.631,6.148,7.236v9.262c0,3.29.279,3.416,3.189,3.745v1.367Z">
  </path>
  <path d="M87.19971,34.11151v-1.367c2.961-.329,3.341-.708,3.341-3.948v-7.895c0-3.365-1.115-5.642-4.556-5.642-2.075,0-4.074,1.29-5.592,2.68195v11.058c0,3.316.228,3.416,3.29,3.745v1.367h-10.198v-1.367c3.238-.329,3.543-.607,3.543-3.719v-9.768c0-3.088-.329-3.29-2.962-3.695v-1.24a21.53126,21.53126,0,0,0,6.327-1.973v3.82c.936-.708,1.973-1.366,3.188-2.226a8.27564,8.27564,0,0,1,4.151-1.442c3.744,0,6.148,2.631,6.148,7.236v9.262c0,3.29.279,3.416,3.189,3.745v1.367Z">
  </path>
  <path d="M116.61688,30.2652c-3.088,3.619-6.301,4.403-7.795,4.403-5.743,0-9.21-4.783-9.21-10.223a12.56715,12.56715,0,0,1,3.112-8.478,9.68362,9.68362,0,0,1,6.883-3.466h.05a7.4007,7.4007,0,0,1,7.187,7.363c0,1.088-.177,1.418-1.011,1.645-.76.102-6.909.583-12.78.759.026,6.53,3.897,9.262,7.187,9.262a8.21981,8.21981,0,0,0,5.542-2.454Zm-8.073-15.892c-2.252,0-4.428,2.025-5.313,5.82,2.808.051,5.591,0,8.552-.075.936-.051,1.215-.33,1.215-1.038a4.46231,4.46231,0,0,0-4.403-4.707Z">
  </path>
  <path d="M126.66809,17.56189c1.442-2.379,3.467-5.061,5.921-5.061a2.57683,2.57683,0,0,1,2.759,2.353,2.48189,2.48189,0,0,1-1.393,2.202,1.26157,1.26157,0,0,1-1.264-.101,2.46284,2.46284,0,0,0-1.974-.987c-1.367,0-3.112,1.645-4.15,4.53v8.502c0,3.188.202,3.517,3.998,3.746v1.365h-10.855v-1.365c3.163-.229,3.492-.558,3.492-3.721v-9.767c0-3.24-.203-3.366-3.062-3.695v-1.24a25.4335,25.4335,0,0,0,6.427-1.974v5.213Z">
  </path>
  <path d="M152.45511,29.40472c-3.011,3.31494-6.807,5.289-9.642,5.289-3.011,0-5.086-2.455-5.086-7.01a16.669,16.669,0,0,1,5.037-11.615c2.023-1.79706,5.288-3.56805,7.616-3.56805,2.024,0,3.517,1.24005,3.517,2.328a2.30263,2.30263,0,0,1-1.442,2.125.69182.69182,0,0,1-1.037-.252,4.13675,4.13675,0,0,0-3.594-1.873c-1.999,0-3.366,1.72-4.301,3.316a18.38285,18.38285,0,0,0-2.126,8.603c0,3.416,1.367,5.137,3.39,5.137,2.531,0,5.593-2.227,6.884-3.619Z">
  </path>
  <path d="M155.43781,27.2793c0-6.276,3.265-11.109,7.314-13.235a12.09589,12.09589,0,0,1,5.187-1.544c3.872,0,6.276,2.633,6.276,7.516a15.68818,15.68818,0,0,1-5.188,11.666,11.92643,11.92643,0,0,1-7.312,3.011c-4.353,0-6.277-3.492-6.277-7.414m9.642,5.061c2.656-1.139,5.44-6.2,5.44-12.172,0-3.947-1.771-5.694-4.2-5.694a5.25475,5.25475,0,0,0-2.025.405c-1.948.987-5.111,4.884-5.111,11.868,0,3.568,1.442,5.972,4.251,5.972a3.93832,3.93832,0,0,0,1.645-.379">
  </path>
  <path d="M177.25809,27.2793c0-6.276,3.265-11.109,7.314-13.235a12.09589,12.09589,0,0,1,5.187-1.544c3.87195,0,6.27594,2.633,6.27594,7.516a15.68818,15.68818,0,0,1-5.188,11.666,11.92628,11.92628,0,0,1-7.312,3.011c-4.354,0-6.277-3.492-6.277-7.414m9.642,5.061c2.656-1.139,5.44-6.2,5.44-12.172,0-3.947-1.771-5.694-4.2-5.694a5.2549,5.2549,0,0,0-2.025.405c-1.948.987-5.111,4.884-5.111,11.868,0,3.568,1.442,5.972,4.251,5.972a3.93843,3.93843,0,0,0,1.645-.379">
  </path>
  <path d="M218.89108,30.265c-2.277,3.593-4.2,4.429-5.112,4.429-1.037,0-1.923-.532-3.163-3.164a77.70733,77.70733,0,0,1-3.795-9.084,24.55443,24.55443,0,0,0-2.961,3.214c-.456,2.379-1.088,5.188-1.595,8.097a25.24253,25.24253,0,0,0-3.163.937l-.354-.329c2.379-9.794,4.505-19.435,6.579-29.329.354-1.923.102-2.025-1.669-2.075h-1.595l.253-1.291c3.77-.405,6.225-1.67,6.782-1.67.43,0,.38.531.202,1.417-1.594,7.035-3.163,14.095-4.808,21.18h.101c1.544-1.745,2.809-2.884,4.202-4.251,2.631-2.783,6.326-5.845,8.502-5.845,1.291,0,1.923.784,1.923,1.442a3.00479,3.00479,0,0,1-.886,1.873.92083.92083,0,0,1-.785.253,4.74474,4.74474,0,0,0-1.72-.354c-2.328,0-5.111,2.682-6.529,4.251a60.13329,60.13329,0,0,0,4.252,9.996c.785,1.391,1.139,1.72,1.619,1.72.506,0,1.494-.936,2.734-2.454Z">
  </path>
  <path d="M236.76547,29.30322c-4.303,4.65594-7.97095,5.391-10.047,5.391-2.126,0-5.289-1.266-5.289-6.96,0-4.605,2.076-9.691,5.796-12.551a11.26147,11.26147,0,0,1,6.528-2.68195,4.07459,4.07459,0,0,1,4.251,3.947c0,4.809-8.324,7.389-12.956,8.502a15.36785,15.36785,0,0,0-.051,1.544c0,2.632.785,5.391,3.79706,5.391,2.074,0,4.706-1.393,7.16095-3.797Zm-6.883-14.12006c-1.291.734-3.746,2.809-4.606,8.199,7.237-1.822,9.414-4.099,9.414-6.225a2.41773,2.41773,0,0,0-2.582-2.581,4.13611,4.13611,0,0,0-2.226.607">
  </path>
</svg>
