<?xml version="1.0" encoding="UTF-8"?>
<svg width="180px" height="26px" viewBox="0 0 180 26" version="1.1" xmlns="http://www.w3.org/2000/svg" xmlns:xlink="http://www.w3.org/1999/xlink">
    <!-- Generator: Sketch 51.3 (57544) - http://www.bohemiancoding.com/sketch -->
    <title>Group 29</title>
    <desc>Created with Sketch.</desc>
    <defs>
        <polygon id="path-1" points="0.096875 0.11504 9.4025 0.11504 9.4025 24.351336 0.096875 24.351336"></polygon>
        <polygon id="path-3" points="0.4008125 0.11504 9.7083125 0.11504 9.7083125 24.351336 0.4008125 24.351336"></polygon>
        <polygon id="path-5" points="0.04925 0.055936 20.45675 0.055936 20.45675 16.56 0.04925 16.56"></polygon>
        <polygon id="path-7" points="0.1633125 0.48672 30 0.48672 30 16.99152 0.1633125 16.99152"></polygon>
    </defs>
    <g id="Final-Designs" stroke="none" stroke-width="1" fill="none" fill-rule="evenodd">
        <g id="NEW-LOGO--Copy" transform="translate(-630.000000, -70.000000)">
            <g id="Group-29" transform="translate(630.000000, 70.000000)">
                <path d="M2.796,9.800248 L0.000375,9.800248 L0.000375,8.981448 L6.551625,8.981448 L6.551625,11.029368 C8.010375,9.349448 9.72225,8.571128 11.93475,8.571128 C13.26975,8.571128 14.43975,8.898648 15.315375,9.553688 C15.941625,9.964008 16.191,10.332008 16.522875,11.274088 C17.85975,9.472728 19.7385,8.571128 22.241625,8.571128 C23.910375,8.571128 25.455375,9.185688 26.205375,10.127768 C26.831625,10.906088 27.041625,11.969608 27.041625,14.183128 L27.041625,24.253448 L29.83725,24.253448 L29.83725,25.075928 L20.781,25.075928 L20.781,24.253448 L23.284125,24.253448 L23.284125,14.183128 C23.284125,11.439688 23.201625,10.946568 22.616625,10.372488 C22.241625,10.004488 21.615375,9.800248 20.947875,9.800248 C19.5285,9.800248 18.1935,10.617208 17.526,11.846328 C16.81725,13.198728 16.774125,13.443448 16.774125,19.831928 L16.774125,24.253448 L19.27725,24.253448 L19.27725,25.075928 L10.515375,25.075928 L10.515375,24.253448 L13.020375,24.253448 L13.020375,14.183128 C13.020375,12.214328 12.89475,11.356888 12.561,10.823288 C12.225375,10.291528 11.475375,9.923528 10.68225,9.923528 C9.262875,9.923528 7.80225,10.782808 7.26225,11.929128 C6.7185,13.034968 6.551625,15.082888 6.551625,19.831928 L6.551625,24.253448 L9.05475,24.253448 L9.05475,25.075928 L0.000375,25.075928 L0.000375,24.253448 L2.796,24.253448 L2.796,9.800248 Z" id="Fill-1" fill="#1080FE"></path>
                <polygon id="Fill-3" fill="#1080FE" points="30.7929375 8.980896 30.7929375 9.797856 33.5885625 9.797856 33.5885625 24.256576 30.7929375 24.256576 30.7929375 25.073536 40.0985625 25.073536 40.0985625 24.256576 37.3441875 24.256576 37.3441875 8.980896"></polygon>
                <path d="M37.71975,3.95144 C37.71975,5.26152 36.636,6.2864 35.340375,6.2864 C34.00725,6.2864 33.00225,5.26152 33.00225,3.95144 C33.00225,2.64136 34.00725,1.6588 35.340375,1.6588 C36.636,1.6588 37.71975,2.68368 37.71975,3.95144" id="Fill-5" fill="#1080FE"></path>
                <g id="Group-9" transform="translate(40.375000, 0.724408)">
                    <mask id="mask-2" fill="white">
                        <use xlink:href="#path-1"></use>
                    </mask>
                    <g id="Clip-8"></g>
                    <polygon id="Fill-7" fill="#1080FE" mask="url(#mask-2)" points="0.096875 0.114856 0.096875 0.933656 2.8925 0.933656 2.8925 23.532536 0.096875 23.532536 0.096875 24.351336 9.4025 24.351336 9.4025 23.532536 6.648125 23.532536 6.648125 0.114856"></polygon>
                </g>
                <g id="Group-12" transform="translate(49.750000, 0.724408)">
                    <mask id="mask-4" fill="white">
                        <use xlink:href="#path-3"></use>
                    </mask>
                    <g id="Clip-11"></g>
                    <polygon id="Fill-10" fill="#1080FE" mask="url(#mask-4)" points="0.4008125 0.114856 0.4008125 0.933656 3.1964375 0.933656 3.1964375 23.532536 0.4008125 23.532536 0.4008125 24.351336 9.7083125 24.351336 9.7083125 23.532536 6.9539375 23.532536 6.9539375 0.114856"></polygon>
                </g>
                <path d="M64.921875,15.695792 L64.921875,16.884432 C64.921875,20.856992 65.00625,21.797232 65.465625,22.656512 C66.09,23.845152 67.303125,24.542512 68.885625,24.542512 C71.5575,24.542512 73.6425,22.739312 74.4375,19.668352 L75.436875,19.668352 C74.769375,23.107312 71.975625,25.482752 68.63625,25.482752 C64.38,25.482752 60.583125,21.510192 60.583125,17.005872 C60.583125,12.503392 64.25625,8.571312 68.428125,8.571312 C71.015625,8.571312 73.310625,9.800432 74.645625,11.888832 C75.354375,12.992832 75.64875,13.977232 75.73125,15.695792 L64.921875,15.695792 Z M71.390625,14.878832 C71.390625,12.175872 71.349375,11.846512 71.056875,11.110512 C70.68,10.085632 69.680625,9.513392 68.386875,9.513392 C67.21875,9.513392 66.256875,9.883232 65.67375,10.578752 C65.08875,11.274272 64.921875,11.971632 64.921875,14.017712 L64.921875,14.878832 L71.390625,14.878832 Z" id="Fill-13" fill="#1080FE"></path>
                <path d="M79.859625,9.800248 L77.064,9.800248 L77.064,8.981448 L83.61525,8.981448 L83.61525,11.110328 C84.9915,9.389928 86.662125,8.571128 88.87275,8.571128 C90.5415,8.571128 92.21025,9.226168 93.129,10.168248 C94.089,11.193128 94.297125,12.135208 94.297125,15.163848 L94.297125,24.253448 L97.0515,24.253448 L97.0515,25.075928 L88.038375,25.075928 L88.038375,24.253448 L90.5415,24.253448 L90.5415,17.949608 C90.5415,13.075448 90.37275,11.601608 89.7915,10.823288 C89.289,10.168248 88.539,9.800248 87.704625,9.800248 C86.619,9.800248 85.32525,10.495768 84.65775,11.439688 C83.8665,12.586008 83.61525,14.345048 83.61525,19.382968 L83.61525,24.253448 L86.118375,24.253448 L86.118375,25.075928 L77.064,25.075928 L77.064,24.253448 L79.859625,24.253448 L79.859625,9.800248 Z" id="Fill-15" fill="#1080FE"></path>
                <path d="M100.762875,9.800248 L97.96725,9.800248 L97.96725,8.981448 L104.5185,8.981448 L104.5185,11.110328 C105.89475,9.389928 107.5635,8.571128 109.776,8.571128 C111.44475,8.571128 113.1135,9.226168 114.03225,10.168248 C114.99225,11.193128 115.200375,12.135208 115.200375,15.163848 L115.200375,24.253448 L117.956625,24.253448 L117.956625,25.075928 L108.941625,25.075928 L108.941625,24.253448 L111.44475,24.253448 L111.44475,17.949608 C111.44475,13.075448 111.276,11.601608 110.69475,10.823288 C110.19225,10.168248 109.44225,9.800248 108.607875,9.800248 C107.52225,9.800248 106.2285,10.495768 105.562875,11.439688 C104.76975,12.586008 104.5185,14.345048 104.5185,19.382968 L104.5185,24.253448 L107.021625,24.253448 L107.021625,25.075928 L97.96725,25.075928 L97.96725,24.253448 L100.762875,24.253448 L100.762875,9.800248 Z" id="Fill-17" fill="#1080FE"></path>
                <polygon id="Fill-19" fill="#1080FE" points="118.870312 8.980896 118.870312 9.797856 121.665938 9.797856 121.665938 24.256576 118.870312 24.256576 118.870312 25.073536 128.175938 25.073536 128.175938 24.256576 125.421563 24.256576 125.421563 8.980896"></polygon>
                <path d="M125.797125,3.95144 C125.797125,5.26152 124.713375,6.2864 123.41775,6.2864 C122.084625,6.2864 121.0815,5.26152 121.0815,3.95144 C121.0815,2.64136 122.084625,1.6588 123.41775,1.6588 C124.713375,1.6588 125.797125,2.68368 125.797125,3.95144" id="Fill-21" fill="#1080FE"></path>
                <g id="Group-25" transform="translate(128.500000, 8.924408)">
                    <mask id="mask-6" fill="white">
                        <use xlink:href="#path-5"></use>
                    </mask>
                    <g id="Clip-24"></g>
                    <path d="M17.702375,15.331616 L20.45675,15.331616 L20.45675,16.148576 L13.944875,16.148576 L13.944875,13.898256 C12.819875,15.697776 10.982375,16.560736 8.47925,16.560736 C6.684875,16.560736 5.1005,16.027136 4.1405,15.085056 C3.096125,14.062016 2.844875,13.037136 2.844875,9.598176 L2.844875,0.876576 L0.04925,0.876576 L0.04925,0.055936 L6.602375,0.055936 L6.602375,9.598176 C6.602375,13.609376 6.684875,14.347216 7.22675,14.921296 C7.60175,15.370256 8.3555,15.616816 9.272375,15.616816 C10.776125,15.616816 12.152375,14.880816 12.902375,13.734496 C13.73675,12.424416 13.944875,11.073856 13.944875,6.608176 L13.944875,0.876576 L11.14925,0.876576 L11.14925,0.055936 L17.702375,0.055936 L17.702375,15.331616 Z" id="Fill-23" fill="#1080FE" mask="url(#mask-6)"></path>
                </g>
                <g id="Group-28" transform="translate(150.000000, 8.084408)">
                    <mask id="mask-8" fill="white">
                        <use xlink:href="#path-7"></use>
                    </mask>
                    <g id="Clip-27"></g>
                    <path d="M2.9589375,1.71584 L0.1633125,1.71584 L0.1633125,0.89704 L6.7164375,0.89704 L6.7164375,2.94496 C8.1751875,1.26504 9.8851875,0.48672 12.0976875,0.48672 C13.4345625,0.48672 14.6026875,0.81424 15.4783125,1.46928 C16.1045625,1.8796 16.3558125,2.2476 16.6876875,3.18968 C18.0245625,1.38832 19.9014375,0.48672 22.4045625,0.48672 C24.0733125,0.48672 25.6183125,1.10128 26.3701875,2.04336 C26.9945625,2.82168 27.2045625,3.8852 27.2045625,6.09872 L27.2045625,16.16904 L30.0001875,16.16904 L30.0001875,16.99152 L20.9458125,16.99152 L20.9458125,16.16904 L23.4489375,16.16904 L23.4489375,6.09872 C23.4489375,3.35528 23.3664375,2.86216 22.7795625,2.28808 C22.4045625,1.92008 21.7783125,1.71584 21.1108125,1.71584 C19.6914375,1.71584 18.3564375,2.5328 17.6889375,3.76192 C16.9801875,5.11432 16.9370625,5.35904 16.9370625,11.74752 L16.9370625,16.16904 L19.4420625,16.16904 L19.4420625,16.99152 L10.6801875,16.99152 L10.6801875,16.16904 L13.1833125,16.16904 L13.1833125,6.09872 C13.1833125,4.12992 13.0576875,3.27248 12.7239375,2.73888 C12.3901875,2.20712 11.6383125,1.83912 10.8470625,1.83912 C9.4276875,1.83912 7.9670625,2.6984 7.4251875,3.84472 C6.8833125,4.95056 6.7164375,6.99848 6.7164375,11.74752 L6.7164375,16.16904 L9.2195625,16.16904 L9.2195625,16.99152 L0.1633125,16.99152 L0.1633125,16.16904 L2.9589375,16.16904 L2.9589375,1.71584 Z" id="Fill-26" fill="#1080FE" mask="url(#mask-8)"></path>
                </g>
            </g>
        </g>
    </g>
</svg>