<?xml version="1.0" encoding="UTF-8" standalone="no"?>
<!-- Created with Inkscape (http://www.inkscape.org/) -->

<svg
   width="247.31129mm"
   height="52.813911mm"
   viewBox="0 0 247.31129 52.813912"
   version="1.1"
   id="svg5"
   inkscape:version="1.1 (c68e22c387, 2021-05-23)"
   xmlns:inkscape="http://www.inkscape.org/namespaces/inkscape"
   xmlns:sodipodi="http://sodipodi.sourceforge.net/DTD/sodipodi-0.dtd"
   xmlns="http://www.w3.org/2000/svg"
   xmlns:svg="http://www.w3.org/2000/svg">
  <sodipodi:namedview
     id="namedview7"
     pagecolor="#ffffff"
     bordercolor="#666666"
     borderopacity="1.0"
     inkscape:pageshadow="2"
     inkscape:pageopacity="0.0"
     inkscape:pagecheckerboard="0"
     inkscape:document-units="mm"
     showgrid="false"
     inkscape:zoom="0.4718511"
     inkscape:cx="-31.78969"
     inkscape:cy="179.08192"
     inkscape:window-width="1920"
     inkscape:window-height="1016"
     inkscape:window-x="1920"
     inkscape:window-y="27"
     inkscape:window-maximized="1"
     inkscape:current-layer="layer1" />
  <defs
     id="defs2">
    <linearGradient
       id="linearGradient3402"
       inkscape:swatch="solid">
      <stop
         style="stop-color:#ff0000;stop-opacity:1;"
         offset="0"
         id="stop3400" />
    </linearGradient>
  </defs>
  <g
     inkscape:label="Layer 1"
     inkscape:groupmode="layer"
     id="layer1"
     transform="translate(-84.082263,-49.165264)">
    <circle
       style="fill:none;fill-opacity:1;fill-rule:nonzero;stroke:#15a7b8;stroke-width:13.592;stroke-miterlimit:4;stroke-dasharray:none;stroke-opacity:1"
       id="path31"
       cx="110.48922"
       cy="75.57222"
       r="19.610956" />
    <path
       style="fill:#000000;stroke-width:0.264583"
       d="m 283.70523,88.373672 c -0.54459,-0.18017 -1.22595,-0.53198 -1.51411,-0.7818 -1.12313,-0.97368 -0.92159,-2.68158 0.3999,-3.38882 0.53504,-0.28634 0.56583,-0.37912 0.23548,-0.70948 -0.5551,-0.555088 -0.46459,-1.750968 0.19608,-2.590877 0.49747,-0.632436 0.52292,-0.772813 0.18629,-1.027869 -1.27889,-0.968997 -1.714,-3.341328 -0.90114,-4.913201 0.89,-1.721117 3.89821,-2.576706 6.218,-1.768523 1.12077,0.390472 1.21396,0.384977 1.73249,-0.102161 0.30141,-0.283157 0.92924,-0.591073 1.3952,-0.684262 l 0.84717,-0.169437 v 1.35599 c 0,1.228621 -0.0559,1.35637 -0.59531,1.36004 -0.8749,0.006 -1.27641,0.331589 -0.98227,0.796681 0.1356,0.214443 0.24839,0.891765 0.25061,1.505165 0.008,2.212004 -2.22252,3.72424 -5.08725,3.448976 -1.17954,-0.11334 -1.2587,-0.08179 -1.2587,0.501673 0,0.600086 0.0742,0.622673 2.05052,0.624097 3.61,0.0026 4.79745,0.642905 5.00674,2.699768 0.24204,2.37893 -1.6878,3.89442 -5.18351,4.07054 -1.16874,0.0589 -2.41932,-0.0357 -2.99619,-0.2265 z m 4.64555,-2.08698 c 1.02656,-0.54033 1.19108,-1.02924 0.55904,-1.66128 -0.51435,-0.51436 -4.06574,-0.59092 -4.5584,-0.0983 -0.46789,0.46787 -0.38597,1.46839 0.14552,1.77797 0.63111,0.36759 3.14331,0.35559 3.85384,-0.0184 z m 0.0338,-8.221343 c 0.99764,-1.424334 0.0987,-2.851544 -1.79607,-2.851544 -1.37734,0 -2.11357,0.659376 -2.11357,1.892948 0,1.086352 0.66675,1.546635 2.24041,1.546635 0.99939,0 1.34187,-0.12065 1.66923,-0.588039 z m 6.43115,10.459823 c -0.34181,-0.0893 -0.46302,-0.39296 -0.46302,-1.15993 v -1.03894 h 1.45854 1.45855 l 0.66828,-1.51111 0.66828,-1.51111 -1.84105,-3.978991 c -1.83993,-3.976563 -1.84163,-3.979045 -2.78828,-4.061114 -0.93202,-0.0808 -0.94724,-0.100983 -0.94724,-1.25677 v -1.174652 h 2.38125 2.38125 v 1.25677 c 0,0.844349 0.32483,2.058694 0.99219,3.700471 0.54637,1.344035 1.05291,2.443808 1.12567,2.443942 0.0728,1.33e-4 0.51533,-0.920937 0.98351,-2.046824 1.34662,-3.241341 1.33731,-2.973109 0.10195,-2.973109 h -1.08665 V 74.02318 72.832555 h 3.175 3.175 v 1.190625 c 0,1.133541 -0.0363,1.190625 -0.7566,1.190625 -0.7244,0 -0.83309,0.177482 -2.55241,4.167187 -3.25263,7.54777 -3.71329,8.41489 -4.72575,8.89533 -0.85773,0.40702 -2.37839,0.51804 -3.40847,0.24885 z M 151.8898,83.365932 c -1.50693,-0.420802 -3.38225,-2.386762 -3.86516,-4.051978 -0.48583,-1.675278 -0.49543,-5.698825 -0.0175,-7.343954 0.55705,-1.917576 2.12602,-3.537365 3.93608,-4.063563 2.60232,-0.756515 5.59448,-0.114197 7.12837,1.530228 1.30544,1.399519 1.78208,3.05082 1.78208,6.174014 0,3.123195 -0.47664,4.774496 -1.78208,6.174015 -1.44501,1.549138 -4.71691,2.269528 -7.18176,1.581238 z m 4.35041,-2.833458 c 1.1739,-0.819023 1.58679,-2.031732 1.58561,-4.657211 -0.001,-2.964622 -0.31863,-4.143023 -1.34907,-5.010076 -0.65247,-0.549018 -1.08513,-0.678465 -2.26767,-0.678465 -1.29908,0 -1.55787,0.0965 -2.33035,0.868978 -1.56616,1.566162 -1.90519,5.961645 -0.64965,8.422701 0.28818,0.564888 0.55131,1.028864 0.58474,1.031054 0.0334,0.0021 0.53702,0.176935 1.1191,0.388324 1.19998,0.435782 2.3395,0.309917 3.30729,-0.365305 z m 9.2334,2.543522 c -1.2012,-0.807646 -1.52763,-1.895401 -1.54555,-5.150213 l -0.0149,-2.711978 h -0.79375 c -0.76436,0 -0.79375,-0.0441 -0.79375,-1.190625 v -1.190625 h 2.11666 2.11667 l 0.004,3.63802 c 0.002,2.000912 0.094,3.779401 0.20382,3.952198 0.36167,0.568798 1.5581,0.864203 2.45655,0.606533 1.6137,-0.462801 1.8335,-0.879417 1.8335,-3.475259 v -2.340242 h -1.05834 -1.05833 V 74.02318 72.832555 h 2.24896 2.24896 v 4.233333 4.233333 h 0.79375 c 0.76435,0 0.79375,0.0441 0.79375,1.190625 v 1.190626 h -1.71979 -1.7198 v -0.926043 c 0,-1.098605 -0.22262,-1.154157 -1.05871,-0.264181 -1.18643,1.262894 -3.62606,1.545664 -5.05372,0.585748 z m 13.60315,0.08809 c -1.10066,-0.671118 -1.40195,-1.79537 -1.40382,-5.238295 l -0.001,-2.711978 h -0.92604 c -0.89958,0 -0.92604,-0.02941 -0.92604,-1.028888 0,-0.966391 0.0562,-1.03944 0.92604,-1.202613 0.90978,-0.170678 0.92604,-0.196652 0.92604,-1.479614 0,-1.179936 0.0638,-1.319133 0.66146,-1.44322 0.3638,-0.07553 0.95911,-0.199131 1.32292,-0.274664 0.6475,-0.134435 0.66145,-0.103735 0.66145,1.455208 v 1.592541 h 1.32292 1.32292 v 1.190625 1.190625 h -1.32292 -1.32292 v 2.639734 c 0,2.474426 0.0387,2.665097 0.61815,3.044756 0.40709,0.266734 0.90394,0.347864 1.45521,0.237609 l 0.83706,-0.167412 v 1.192839 c 0,1.013357 -0.0896,1.216837 -0.59531,1.352367 -1.16354,0.31182 -2.72221,0.15856 -3.55564,-0.34962 z m 7.29118,0.11691 c -0.38293,-0.208059 -0.7943,-0.590247 -0.91416,-0.8493 -0.11985,-0.259054 -0.26248,-3.298743 -0.31694,-6.754863 l -0.099,-6.283853 h -0.77276 c -0.73948,0 -0.77277,-0.05128 -0.77277,-1.190625 v -1.190633 h 2.11667 2.11667 v 6.869858 c 0,6.397675 0.0334,6.887747 0.48639,7.130166 0.26751,0.143168 0.74376,0.193003 1.05833,0.110741 0.52363,-0.136932 0.57194,-0.04899 0.57194,1.041059 0,1.011066 -0.0898,1.214686 -0.59531,1.350156 -0.98043,0.26275 -2.13961,0.16905 -2.87904,-0.23271 z m 7.5754,0.13386 c -1.04129,-0.327372 -2.21643,-1.443983 -2.67518,-2.541921 -0.56569,-1.353878 -0.47291,-4.216035 0.18041,-5.565611 0.82776,-1.709928 2.03727,-2.34247 4.47914,-2.34247 2.42885,0 3.54481,0.558575 4.47587,2.240341 0.50925,0.919864 0.63941,1.540968 0.63941,3.051326 0,2.250918 -0.75214,3.899471 -2.15085,4.714268 -0.99865,0.581747 -3.73104,0.826937 -4.9488,0.444067 z m 3.76999,-2.729521 c 0.47144,-0.47144 0.7267,-2.440946 0.48402,-3.734544 -0.37396,-1.993386 -3.51317,-2.357029 -4.35713,-0.504729 -0.16157,0.354602 -0.29376,1.243602 -0.29376,1.975553 0,1.130594 0.12134,1.452163 0.80652,2.137341 0.70883,0.708827 0.93758,0.788943 1.88849,0.6614 0.59508,-0.07982 1.25742,-0.320577 1.47186,-0.535021 z m 7.87167,2.497531 c -1.25884,-0.578059 -1.82296,-1.168103 -2.37116,-2.480135 -0.47923,-1.146966 -0.53114,-3.450913 -0.10638,-4.721833 1.20404,-3.602601 6.97782,-4.278625 9.14,-1.070158 1.29697,1.924566 1.00051,5.785043 -0.56468,7.353403 -1.41435,1.417213 -4.12338,1.825373 -6.09778,0.918723 z m 4.16719,-2.698652 c 0.6719,-0.8221 0.64497,-3.664161 -0.0428,-4.513487 -0.70792,-0.874249 -2.65795,-0.88605 -3.52176,-0.0213 -0.50158,0.502124 -0.6019,0.884523 -0.59812,2.279909 0.005,1.747909 0.30694,2.401274 1.30919,2.830462 0.83338,0.356873 2.3397,0.05303 2.85346,-0.575577 z m 4.69635,2.00564 c 0,-1.09361 0.0539,-1.190625 0.66146,-1.190625 h 0.66146 V 75.346096 69.392972 H 215.11 c -0.60756,0 -0.66146,-0.09701 -0.66146,-1.190625 v -1.190625 h 1.98438 1.98437 v 5.423958 c 0,2.983177 0.0594,5.423958 0.13194,5.423958 0.0726,0 0.86209,-0.565547 1.7545,-1.256771 1.52154,-1.178523 1.57922,-1.261983 0.9264,-1.34049 -0.63457,-0.07631 -0.69617,-0.187521 -0.69617,-1.256771 v -1.173051 h 3.04271 3.04271 v 1.190625 1.190625 l -0.99219,0.01016 c -0.78294,0.008 -1.25689,0.245162 -2.24735,1.124479 l -1.25516,1.114313 1.33987,1.918229 c 1.27723,1.828536 1.3885,1.918229 2.37965,1.918229 h 1.03976 v 1.190625 1.190622 h -2.38125 -2.38125 v -1.062399 c 0,-0.778351 -0.25545,-1.447141 -0.95542,-2.501379 l -0.95543,-1.438971 -0.89665,0.715439 c -0.54148,0.432049 -0.89665,0.951246 -0.89666,1.310751 -1e-5,0.50397 0.14208,0.595312 0.92604,0.595312 0.92114,0 0.92604,0.0063 0.92604,1.190625 v 1.190622 h -2.91042 -2.91042 V 82.48984 Z m 18.78542,0 c 0,-1.146527 0.0294,-1.190625 0.79375,-1.190625 h 0.79375 v -5.688546 -5.688541 h -0.79375 c -0.76435,0 -0.79375,-0.0441 -0.79375,-1.190625 v -1.190625 h 5.95313 5.95312 v 2.38125 2.38125 h -1.32292 -1.32291 v -1.190625 -1.190625 h -2.38125 -2.38125 v 2.248958 2.248959 h 2.38125 2.38125 v 1.190624 1.190625 h -2.38125 -2.38125 v 2.248959 2.248958 h 2.38125 2.38125 V 80.1086 78.917975 h 1.32291 1.32292 v 2.38125 2.381247 h -5.95312 -5.95313 z m 14.02292,0 c 0,-1.09361 0.0539,-1.190625 0.66146,-1.190625 h 0.66145 v -3.042708 -3.042708 h -0.66145 c -0.60757,0 -0.66146,-0.09701 -0.66146,-1.190625 v -1.190625 h 1.85208 c 1.80501,0 1.85208,0.01701 1.85208,0.66938 v 0.669369 l 0.74559,-0.551233 c 1.04776,-0.774647 3.39159,-0.987658 4.50907,-0.409792 1.53453,0.793541 1.88698,1.74458 1.88812,5.094798 v 2.958989 l 0.7276,0.08372 c 0.65106,0.07491 0.73615,0.202007 0.80896,1.208199 l 0.0814,1.124479 h -2.79334 -2.79333 v -1.190625 c 0,-1.09361 0.0539,-1.190625 0.66145,-1.190625 0.66091,0 0.66146,-0.0021 0.66146,-2.613438 0,-3.019795 -0.16881,-3.300656 -1.96756,-3.273462 -2.12169,0.03208 -2.26577,0.238766 -2.26577,3.250375 0,2.635903 1.5e-4,2.636525 0.66146,2.636525 0.60756,0 0.66146,0.09701 0.66146,1.190625 v 1.190625 h -2.64584 -2.64583 v -1.190625 z m 16.53646,0.794732 c -3.25131,-1.144869 -4.10205,-6.04638 -1.54139,-8.880729 1.09085,-1.207442 2.54754,-1.704769 4.29274,-1.465567 2.35458,0.322734 3.85124,2.383578 3.68135,5.069057 l -0.0827,1.307507 -3.24115,0.07429 c -3.39635,0.07784 -3.80116,0.253947 -2.82578,1.22933 0.75208,0.752068 2.70661,0.86287 4.76965,0.270386 0.4387,-0.125989 0.62402,0.0077 0.8854,0.638715 0.43251,1.04418 0.25895,1.266211 -1.36731,1.749151 -1.66971,0.49585 -3.1776,0.49844 -4.57081,0.008 z m 3.83645,-6.574557 c 0,-1.501722 -2.48578,-2.210642 -3.47366,-0.990656 -0.27231,0.33627 -0.49509,0.836332 -0.49509,1.11125 0,0.445653 0.21519,0.499856 1.98438,0.499856 1.90529,0 1.98437,-0.02471 1.98437,-0.62045 z m 4.23334,5.93314 c 0,-0.937437 0.0764,-1.054097 0.79375,-1.211649 l 0.79375,-0.174336 v -3.004119 -3.004113 l -0.72761,-0.08372 c -0.65106,-0.07491 -0.73615,-0.202006 -0.80896,-1.208198 l -0.0814,-1.124479 h 2.13188 2.13188 v 1.054446 1.054449 l 0.8763,-0.956217 c 0.73747,-0.804725 1.09379,-0.977111 2.24896,-1.088109 l 1.37266,-0.131895 v 1.469755 1.469752 l -1.39795,-0.14428 c -1.245,-0.128495 -1.49104,-0.06594 -2.24896,0.571805 -0.83408,0.701841 -0.85101,0.760343 -0.85101,2.94152 v 2.22544 h 1.19063 1.19062 v 1.190625 1.190626 h -3.30729 -3.30729 z m 39.6875,-7.69394 c 0,-0.293981 0.1764,-0.529166 0.39687,-0.529166 0.32978,0 0.39688,-0.514467 0.39688,-3.042709 0,-2.528241 -0.0671,-3.042708 -0.39688,-3.042708 -0.22047,0 -0.39687,-0.235185 -0.39687,-0.529166 0,-0.470371 0.1764,-0.529167 1.5875,-0.529167 1.4111,0 1.5875,0.0588 1.5875,0.529167 0,0.293981 -0.1764,0.529166 -0.39688,0.529166 -0.32977,0 -0.39687,0.514467 -0.39687,3.042708 v 3.042709 h 1.05833 c 0.99954,0 1.05833,-0.0441 1.05833,-0.79375 0,-0.670277 0.1029,-0.79375 0.66146,-0.79375 0.61736,0 0.66146,0.08819 0.66146,1.322916 v 1.322917 h -2.91042 c -2.73401,0 -2.91041,-0.03207 -2.91041,-0.529167 z m 7.14375,0 c 0,-0.352777 0.1764,-0.529166 0.52916,-0.529166 0.49851,0 0.52917,-0.17639 0.52917,-3.042709 v -3.042712 h -0.66146 c -0.52916,0 -0.66146,0.132292 -0.66146,0.661459 0,0.485068 -0.1411,0.661458 -0.52916,0.661458 -0.45077,0 -0.52917,-0.17639 -0.52917,-1.190625 v -1.190625 h 3.175 3.175 v 1.190625 c 0,0.999937 -0.0818,1.190625 -0.51075,1.190625 -0.32824,0 -0.54099,-0.212736 -0.59531,-0.595313 -0.0619,-0.436065 -0.26152,-0.595312 -0.74602,-0.595312 -0.66022,0 -0.66159,0.0054 -0.73679,2.866641 -0.0707,2.692855 -0.0427,2.875174 0.46302,3.007421 0.30102,0.07872 0.53835,0.360463 0.53835,0.639088 0,0.436914 -0.21188,0.498308 -1.71979,0.498308 -1.54339,0 -1.71979,-0.05427 -1.71979,-0.529167 z m 5.82083,0 c 0,-0.293981 0.1764,-0.529166 0.39688,-0.529166 0.32977,0 0.39687,-0.514467 0.39687,-3.042709 0,-2.528241 -0.0671,-3.042708 -0.39687,-3.042708 -0.22048,0 -0.39688,-0.235185 -0.39688,-0.529166 0,-0.483682 0.17624,-0.529133 2.05052,-0.528757 3.41556,7.94e-4 4.82783,1.200216 4.82783,4.100631 0,2.900416 -1.41227,4.099946 -4.82783,4.100632 -1.87428,2.64e-4 -2.05052,-0.04507 -2.05052,-0.528757 z m 4.86746,-1.310296 c 0.45048,-0.450458 0.5565,-0.881361 0.5565,-2.261579 0,-2.044826 -0.51673,-2.738088 -2.21014,-2.965222 l -1.09715,-0.147161 v 3.112383 3.112384 l 1.09715,-0.147161 c 0.60346,-0.08094 1.3476,-0.397579 1.65364,-0.703644 z"
       id="path3839" />
  </g>
</svg>
