<?xml version="1.0" encoding="UTF-8" standalone="no"?><!DOCTYPE svg PUBLIC "-//W3C//DTD SVG 1.1//EN" "http://www.w3.org/Graphics/SVG/1.1/DTD/svg11.dtd"><svg width="100%" height="100%" viewBox="0 0 1980 2155" version="1.1" xmlns="http://www.w3.org/2000/svg" xmlns:xlink="http://www.w3.org/1999/xlink" xml:space="preserve" xmlns:serif="http://www.serif.com/" style="fill-rule:evenodd;clip-rule:evenodd;stroke-linejoin:round;stroke-miterlimit:2;"><rect id="light-bg-with-text" x="0" y="0" width="1979.17" height="2154.17" style="fill:none;"/><g id="light-bg-with-text1" serif:id="light-bg-with-text"><g><g><path d="M767.782,424.245l0,112.746l99.441,-56.37l-99.441,-56.376Z" style="fill:#24aae1;fill-rule:nonzero;"/><path d="M871.872,601.139l-0,-112.752l-99.441,56.371l99.441,56.381Z" style="fill:#24aae1;fill-rule:nonzero;"/><path d="M758.73,536.991l0,-112.746l-99.441,56.371l99.441,56.375Z" style="fill:#24aae1;fill-rule:nonzero;"/><path d="M994.066,424.245l-0,112.746l99.441,-56.37l-99.441,-56.376Z" style="fill:#24aae1;fill-rule:nonzero;"/><path d="M1098.15,601.139l0,-112.752l-99.441,56.371l99.441,56.381Z" style="fill:#24aae1;fill-rule:nonzero;"/><path d="M1220.35,424.245l0,112.746l99.436,-56.37l-99.436,-56.376Z" style="fill:#24aae1;fill-rule:nonzero;"/><path d="M1211.3,536.997l-0,-112.752l-99.436,56.376l99.436,56.376Z" style="fill:#24aae1;fill-rule:nonzero;"/><path d="M880.924,488.387l0,112.747l99.441,-56.371l-99.441,-56.376Z" style="fill:#24aae1;fill-rule:nonzero;"/><path d="M994.066,552.53l-0,112.746l99.441,-56.371l-99.441,-56.375Z" style="fill:#24aae1;fill-rule:nonzero;"/><path d="M985.019,665.281l-0,-112.746l-99.441,56.37l99.441,56.376Z" style="fill:#24aae1;fill-rule:nonzero;"/><path d="M1107.21,488.387l0,112.752l99.441,-56.376l-99.441,-56.376Z" style="fill:#24aae1;fill-rule:nonzero;"/><path d="M871.872,472.849l-0,-112.746l-99.441,56.371l99.441,56.375Z" style="fill:#24aae1;fill-rule:nonzero;"/><path d="M994.066,295.961l-0,112.746l99.441,-56.371l-99.441,-56.375Z" style="fill:#24aae1;fill-rule:nonzero;"/><path d="M985.019,295.961l-99.441,56.375l99.441,56.371l-0,-112.746Z" style="fill:#24aae1;fill-rule:nonzero;"/><path d="M1107.21,360.098l0,112.751l99.441,-56.375l-99.441,-56.376Z" style="fill:#24aae1;fill-rule:nonzero;"/><path d="M985.019,536.991l-0,-112.746l-99.441,56.371l99.441,56.375Z" style="fill:#24aae1;fill-rule:nonzero;"/><path d="M880.924,360.103l0,112.746l99.441,-56.37l-99.441,-56.376Z" style="fill:#24aae1;fill-rule:nonzero;"/><path d="M1098.15,472.849l0,-112.746l-99.441,56.376l99.441,56.37Z" style="fill:#24aae1;fill-rule:nonzero;"/><path d="M654.641,488.387l-0,112.747l99.441,-56.371l-99.441,-56.376Z" style="fill:#1375bc;fill-rule:nonzero;"/><path d="M767.782,552.53l0,112.746l99.441,-56.371l-99.441,-56.375Z" style="fill:#1375bc;fill-rule:nonzero;"/><path d="M758.73,665.281l0,-112.746l-99.441,56.37l99.441,56.376Z" style="fill:#1375bc;fill-rule:nonzero;"/><path d="M880.924,616.672l0,112.751l99.441,-56.375l-99.441,-56.376Z" style="fill:#1375bc;fill-rule:nonzero;"/><path d="M985.019,793.565l-0,-112.746l-99.441,56.371l99.441,56.375Z" style="fill:#1375bc;fill-rule:nonzero;"/><path d="M871.872,729.423l-0,-112.746l-99.441,56.371l99.441,56.375Z" style="fill:#1375bc;fill-rule:nonzero;"/><path d="M767.782,680.814l0,112.746l99.441,-56.37l-99.441,-56.376Z" style="fill:#1375bc;fill-rule:nonzero;"/><path d="M880.924,744.962l0,112.746l99.441,-56.371l-99.441,-56.375Z" style="fill:#1375bc;fill-rule:nonzero;"/><path d="M871.872,857.708l-0,-112.746l-99.441,56.37l99.441,56.376Z" style="fill:#1375bc;fill-rule:nonzero;"/><path d="M767.782,809.104l0,112.746l99.441,-56.37l-99.441,-56.376Z" style="fill:#1375bc;fill-rule:nonzero;"/><path d="M654.641,616.672l-0,112.751l99.441,-56.375l-99.441,-56.376Z" style="fill:#1375bc;fill-rule:nonzero;"/><path d="M758.73,793.565l0,-112.746l-99.441,56.371l99.441,56.375Z" style="fill:#1375bc;fill-rule:nonzero;"/><path d="M654.641,744.962l-0,112.746l99.441,-56.371l-99.441,-56.375Z" style="fill:#1375bc;fill-rule:nonzero;"/><path d="M758.73,921.855l0,-112.751l-99.441,56.376l99.441,56.375Z" style="fill:#1375bc;fill-rule:nonzero;"/><path d="M985.019,921.85l-0,-112.746l-99.441,56.37l99.441,56.376Z" style="fill:#1375bc;fill-rule:nonzero;"/><path d="M880.924,873.246l0,112.746l99.441,-56.37l-99.441,-56.376Z" style="fill:#1375bc;fill-rule:nonzero;"/><path d="M985.019,1050.14l-0,-112.746l-99.441,56.37l99.441,56.376Z" style="fill:#1375bc;fill-rule:nonzero;"/><path d="M871.872,985.997l-0,-112.751l-99.441,56.376l99.441,56.375Z" style="fill:#1375bc;fill-rule:nonzero;"/><path d="M1211.3,665.281l-0,-112.746l-99.441,56.37l99.441,56.376Z" style="fill:#71c6ef;fill-rule:nonzero;"/><path d="M1098.15,729.423l0,-112.746l-99.441,56.371l99.441,56.375Z" style="fill:#71c6ef;fill-rule:nonzero;"/><path d="M994.066,680.814l-0,112.746l99.441,-56.37l-99.441,-56.376Z" style="fill:#71c6ef;fill-rule:nonzero;"/><path d="M1098.15,857.708l0,-112.746l-99.441,56.37l99.441,56.376Z" style="fill:#71c6ef;fill-rule:nonzero;"/><path d="M994.066,809.104l-0,112.746l99.441,-56.37l-99.441,-56.376Z" style="fill:#71c6ef;fill-rule:nonzero;"/><path d="M1107.21,744.962l0,112.751l99.441,-56.376l-99.441,-56.375Z" style="fill:#71c6ef;fill-rule:nonzero;"/><path d="M1107.21,616.672l0,112.751l99.441,-56.375l-99.441,-56.376Z" style="fill:#71c6ef;fill-rule:nonzero;"/><path d="M1324.44,601.139l0,-112.752l-99.445,56.371l99.445,56.381Z" style="fill:#71c6ef;fill-rule:nonzero;"/><path d="M1220.35,552.53l0,112.746l99.436,-56.371l-99.436,-56.375Z" style="fill:#71c6ef;fill-rule:nonzero;"/><path d="M994.066,937.388l-0,112.746l99.441,-56.37l-99.441,-56.376Z" style="fill:#71c6ef;fill-rule:nonzero;"/><path d="M1098.15,985.992l0,-112.746l-99.441,56.376l99.441,56.37Z" style="fill:#71c6ef;fill-rule:nonzero;"/><path d="M1107.21,873.246l0,112.751l99.441,-56.375l-99.441,-56.376Z" style="fill:#71c6ef;fill-rule:nonzero;"/><path d="M1220.35,809.104l0,112.751l99.436,-56.375l-99.436,-56.376Z" style="fill:#71c6ef;fill-rule:nonzero;"/><path d="M1220.35,680.814l0,112.746l99.436,-56.37l-99.436,-56.376Z" style="fill:#71c6ef;fill-rule:nonzero;"/><path d="M1324.44,857.708l0,-112.746l-99.445,56.37l99.445,56.376Z" style="fill:#71c6ef;fill-rule:nonzero;"/><path d="M1211.3,921.855l-0,-112.751l-99.436,56.376l99.436,56.375Z" style="fill:#71c6ef;fill-rule:nonzero;"/><path d="M1211.3,793.565l-0,-112.746l-99.441,56.371l99.441,56.375Z" style="fill:#71c6ef;fill-rule:nonzero;"/><path d="M1324.44,729.423l0,-112.746l-99.445,56.371l99.445,56.375Z" style="fill:#71c6ef;fill-rule:nonzero;"/><path d="M807.755,1592.35c-8.859,27.933 -21.347,53.705 -37.458,77.338l50.753,51.556l0,136.962l-293.247,-293.252l0,-136.957l172.402,171.599c16.116,-29.005 24.169,-60.951 24.169,-95.87c-0,-26.308 -4.831,-51.279 -14.503,-74.917c-9.666,-23.633 -23.903,-44.846 -42.695,-63.653c-18.808,-18.787 -40.02,-33.154 -63.643,-43.091c-23.643,-9.937 -48.88,-14.914 -75.73,-14.914c-26.324,-0 -51.3,4.977 -74.922,14.914c-23.644,9.937 -44.856,24.304 -63.648,43.091c-18.808,18.807 -33.034,40.02 -42.701,63.653c-9.666,23.638 -14.502,48.609 -14.502,74.917c-0,26.325 4.836,51.436 14.502,75.324c9.667,23.914 23.893,45.257 42.701,64.054c18.792,18.802 40.004,33.029 63.648,42.701c23.622,9.661 48.598,14.497 74.922,14.497c6.971,-0 13.821,-0.401 20.541,-1.213c6.71,-0.807 13.29,-1.739 19.74,-2.816l76.531,76.536c-17.725,7.522 -36.392,13.436 -55.985,17.72c-19.615,4.289 -39.88,6.45 -60.827,6.45c-40.285,-0 -78.285,-7.658 -114,-22.967c-35.72,-15.299 -66.74,-36.251 -93.048,-62.831c-26.32,-26.589 -47.131,-57.734 -62.435,-93.454c-15.31,-35.715 -22.967,-73.72 -22.967,-114.001c-0,-40.28 7.657,-78.275 22.967,-113.99c15.304,-35.72 36.115,-66.875 62.435,-93.454c26.308,-26.59 57.328,-47.532 93.048,-62.846c35.715,-15.304 73.715,-22.956 114,-22.956c40.806,-0 78.947,7.652 114.397,22.956c35.449,15.314 66.464,36.256 93.048,62.846c26.59,26.579 47.537,57.734 62.841,93.454c15.304,35.715 22.961,73.71 22.961,113.99c0,31.155 -4.43,60.697 -13.295,88.624Zm461.547,-58.01c9.932,-15.564 17.719,-32.628 23.362,-51.16c5.637,-18.526 8.459,-37.989 8.459,-58.405c-0,-27.923 -5.377,-54.096 -16.111,-78.551c-10.755,-24.43 -25.252,-45.778 -43.508,-64.039c-18.266,-18.255 -39.614,-32.753 -64.048,-43.512c-24.445,-10.734 -50.629,-16.111 -78.546,-16.111l-211.078,-0l-0,563.938l96.676,-0l0,-467.257l114.402,0c29,0 53.976,10.469 74.923,31.41c9.666,9.667 17.183,20.947 22.56,33.836c5.357,12.894 8.053,26.324 8.053,40.286c0,13.976 -2.696,27.391 -8.053,40.28c-5.377,12.889 -12.894,24.455 -22.56,34.648c-20.947,20.941 -45.923,31.415 -74.923,31.415l-41.894,-0l-39.473,96.676l66.057,0l102.315,158.706l115.208,-0l-115.208,-178.846c17.188,-8.058 32.893,-18.391 47.13,-31.019c14.227,-12.608 26.309,-26.71 36.257,-42.295Zm474.424,-311.778l-427.788,-0l-0,96.681l165.956,0l0,467.257l96.677,-0l0,-467.257l165.155,0l0,-96.681Z" style="fill:#00002f;fill-rule:nonzero;"/></g></g></g></svg>