<?xml version="1.0" encoding="UTF-8" standalone="no"?><!DOCTYPE svg PUBLIC "-//W3C//DTD SVG 1.1//EN" "http://www.w3.org/Graphics/SVG/1.1/DTD/svg11.dtd"><svg width="100%" height="100%" viewBox="0 0 2146 1223" version="1.1" xmlns="http://www.w3.org/2000/svg" xmlns:xlink="http://www.w3.org/1999/xlink" xml:space="preserve" xmlns:serif="http://www.serif.com/" style="fill-rule:evenodd;clip-rule:evenodd;stroke-linejoin:round;stroke-miterlimit:2;"><path d="M509.394,500.24c-0.002,-14.751 -5.653,-30.417 -17.093,-40.37c-29.218,-25.42 -81.588,-13.987 -90.39,26.37c-4.479,20.535 -1.517,44.068 -1.517,65l-0,605c-0,21.78 1.73,44.4 -1,66l109,-0l-0,-267c46.288,46.28 103.086,76.11 168,85.13c50.987,7.09 107.994,2.27 156,-16.93c44.747,-17.9 83.291,-45.99 115.155,-82.2c54.975,-62.479 82.435,-145.036 78.805,-228c-1.24,-28.29 -7.07,-55.887 -14.92,-83c-9.09,-31.404 -23.38,-62.47 -42.795,-89c-23.394,-31.963 -52.451,-60.079 -86.245,-80.935c-84.55,-52.18 -196.909,-62.818 -288,-21.753c-31.949,14.403 -60.38,37.068 -85,61.688Zm668,-0c-0.01,-20.599 -11.4,-39.464 -30,-48.627c-26.18,-12.894 -65.38,-1.915 -75.25,27.627c-4.07,12.193 -3.75,24.336 -3.75,37l-0,706l108,-0l-0,-267c46.03,46.03 102.36,76.15 167,85.13c51.49,7.15 108.52,2.66 157,-16.73c43.52,-17.41 79.34,-43.89 111.08,-78.23c56.82,-61.472 86.55,-145.489 82.88,-229.17c-1.91,-43.521 -12.47,-85.132 -29.62,-125c-9.49,-22.057 -22.61,-44.299 -37.81,-63c-60.1,-73.972 -150.95,-114 -245.53,-114c-25.85,-0 -51.98,1.957 -77,9.039c-48.66,13.774 -91.44,41.405 -127,76.961Zm-1081,-57c-24.537,-0 -52.581,-4.654 -74,9.749c-33.666,22.638 -28.057,76.25 8,93.361c10.763,5.107 21.377,4.89 33,4.89l33,-0l-0,200c-0,75.365 -8.3,157.479 46.171,218c13.936,15.48 30.34,26.72 47.829,37.68c17.531,10.99 39.139,18.32 59,23.89c32.111,9.01 66.838,11.43 100,11.43l-0,-110c-46.104,-0 -95.262,-7.283 -121.768,-50c-18.999,-30.619 -13.232,-72.663 -13.232,-107l-0,-224l65,-0c12.69,-0 25.975,1.404 38,-3.453c41.89,-16.921 45.276,-76.46 6,-98.199c-13.511,-7.478 -28.128,-6.348 -43,-6.348l-66,-0l-0,-79c-0,-16.156 1.709,-32.851 -5.04,-48c-19.509,-43.791 -82.557,-45.312 -105.42,-3.961c-8.669,15.681 -7.54,33.662 -7.54,50.961l-0,80Zm1264,73.424c17.88,-2.354 37.44,0.064 55,3.576c56.79,11.356 107.3,47.053 136.91,97c22.15,37.379 31.96,84.814 29,128c-3.46,50.488 -25.38,99.649 -61.91,134.961c-10.39,10.035 -22.09,18.073 -34,26.078c-24.61,16.534 -54.56,27.107 -84,30.675c-24.87,3.015 -50.81,1.763 -75,-5.008c-22.31,-6.245 -45.41,-15.894 -64,-29.945c-35.96,-27.179 -63.6,-64.059 -78.3,-106.761c-24.21,-70.275 -9.06,-154.413 42.25,-208.996c11.43,-12.162 23.17,-24.244 37.05,-33.785c29.4,-20.21 61.91,-31.173 97,-35.795Zm-671,-0c24.616,-3.271 51.352,0.761 75,7.576c47.477,13.682 89.836,44.988 116.19,87c37.815,60.283 44.21,142.073 14.501,207c-17.01,37.176 -45.506,67.375 -79.691,89.217c-25.016,15.984 -54.503,25.958 -84,29.497c-23.463,2.816 -47.025,1.075 -70,-4.368c-20.844,-4.939 -41.113,-14.39 -59,-26.003c-77.63,-50.4 -113.146,-148.356 -90.241,-237.343c8.183,-31.789 26.321,-60.952 48.071,-85c11.592,-12.816 23.527,-24.632 38.17,-34.06c28.02,-18.04 57.988,-29.128 91,-33.516Zm1067,-215.424c-4.14,14.362 -14.07,28.415 -21.95,41c-17.99,28.734 -39,56.247 -61.05,81.996c-9.57,11.164 -19.47,22.055 -29.28,32.989c-2.87,3.187 -10.22,7.499 -10.81,12.015c-0.59,4.579 8.02,9.877 10.63,13.004c10.77,12.93 21.02,26.034 30.52,39.957c16.78,24.578 30.69,54.415 38.93,83.043c3.3,11.476 6.22,23.28 8.56,34.996c1.26,6.28 1.59,12.885 3.45,19c1.34,-3.186 0.87,-6.586 1.29,-10c0.73,-6.007 1.81,-12.027 2.79,-18c3.35,-20.403 6.91,-40.795 11.34,-61c7.55,-34.361 14.58,-68.859 23.06,-103c3.7,-14.903 11.2,-30.691 12.43,-46c0.72,-8.988 -1.27,-18.131 -2.48,-27c-1.69,-12.337 -3.09,-24.673 -5.01,-37c-1.92,-12.401 -4.26,-24.745 -6.91,-37c-1.35,-6.209 -2.09,-13.563 -5.51,-19Zm-220,-250c14.09,1.121 28.16,7.639 41.09,12.886c21.17,8.592 41.87,18.58 60.91,31.372c18.5,12.43 36.92,25.227 53,40.781c45.64,44.164 77.04,100.625 92.37,161.961c5.32,21.285 10.63,42.951 10.63,65c2.7,-3.61 3.21,-7.797 4.6,-12c1.8,-5.452 4.58,-10.709 6.82,-16c7.8,-18.403 16.86,-36.146 25.8,-54c21.12,-42.189 48.66,-82.363 79.5,-118c15.55,-17.971 31.9,-37.007 51.28,-51c-7.78,-11.958 -20.1,-22.12 -30.87,-31.289c-14.01,-11.926 -28.17,-22.871 -44.13,-32.135c-23.7,-13.755 -47.77,-25.562 -74,-33.738c-59.89,-18.668 -123.85,-15.663 -184,-0.583c-24.13,6.048 -48.63,13.997 -71,24.989c-7.21,3.54 -16.67,5.54 -22,11.756Zm378,-15c18.29,7.89 36.23,21.988 51,35.174c4.13,3.692 8.1,7.729 11.83,11.825c1.95,2.136 4.05,5.578 7.18,5.979c4.14,0.53 10.24,-4.343 13.99,-5.978c12.66,-5.519 24.83,-12.218 38,-16.666c24.06,-8.128 49.6,-14.505 75,-16.245c11.24,-0.769 22.74,-0.089 34,-0.089c-5.47,-7.148 -13.44,-11.725 -21,-16.345c-9.27,-5.666 -17.94,-11.352 -28,-15.58c-44.04,-18.519 -92.3,-26.369 -138,-7.359c-10.77,4.478 -20.91,8.82 -31,14.888c-4.71,2.839 -9.98,5.729 -13,10.396Z" style="fill:#020e70;fill-rule:nonzero;"/></svg>