<?xml version="1.0" encoding="UTF-8" standalone="no"?><!DOCTYPE svg PUBLIC "-//W3C//DTD SVG 1.1//EN" "http://www.w3.org/Graphics/SVG/1.1/DTD/svg11.dtd"><svg width="100%" height="100%" viewBox="0 0 54 18" version="1.1" xmlns="http://www.w3.org/2000/svg" xmlns:xlink="http://www.w3.org/1999/xlink" xml:space="preserve" xmlns:serif="http://www.serif.com/" style="fill-rule:evenodd;clip-rule:evenodd;stroke-linejoin:round;stroke-miterlimit:2;"><path id="path4163" d="M26.312,0.304l-3.55,16.658l-4.294,0l3.55,-16.658l4.294,0Zm18.066,10.757l2.261,-6.256l1.3,6.256l-3.561,-0Zm4.793,5.901l3.971,0l-3.469,-16.658l-3.663,0c-0.825,0 -1.521,0.481 -1.829,1.221l-6.444,15.437l4.51,0l0.896,-2.487l5.508,-0l0.52,2.487Zm-11.21,-5.438c0.019,-4.396 -6.055,-4.64 -6.015,-6.604c0.013,-0.597 0.58,-1.233 1.821,-1.395c0.615,-0.08 2.311,-0.144 4.235,0.745l0.752,-3.534c-1.033,-0.375 -2.362,-0.736 -4.016,-0.736c-4.245,-0 -7.232,2.263 -7.256,5.506c-0.027,2.398 2.133,3.736 3.758,4.534c1.675,0.817 2.236,1.34 2.228,2.07c-0.012,1.117 -1.336,1.612 -2.568,1.631c-2.161,0.034 -3.413,-0.586 -4.411,-1.053l-0.779,3.652c1.005,0.462 2.856,0.863 4.774,0.884c4.513,-0 7.464,-2.237 7.477,-5.7Zm-17.785,-11.22l-6.957,16.658l-4.539,0l-3.424,-13.294c-0.208,-0.817 -0.389,-1.118 -1.02,-1.463c-1.032,-0.563 -2.737,-1.09 -4.236,-1.417l0.101,-0.484l7.307,0c0.931,0 1.768,0.622 1.981,1.698l1.809,9.64l4.467,-11.338l4.511,0Z" style="fill:#1a1f71;fill-rule:nonzero;"/></svg>