<?xml version="1.0" encoding="utf-8"?>
<!-- Generator: Adobe Illustrator 25.4.1, SVG Export Plug-In . SVG Version: 6.00 Build 0)  -->
<svg version="1.1" baseProfile="tiny" id="Layer_1" xmlns="http://www.w3.org/2000/svg" xmlns:xlink="http://www.w3.org/1999/xlink"
	 x="0px" y="0px" viewBox="0 0 1205 341" overflow="visible" xml:space="preserve">
<g>
	<path fill="#4A4A49" d="M479,341c-19.61-43.85-39.23-87.7-58.84-131.56c-11.26-25.19-22.5-50.4-33.75-75.59
		c-0.53-1.19-1.1-2.36-2.27-4.87c-12.82,67.51-25.39,133.69-37.96,199.85c-11.45,0-22.42,0-33.85,0
		c19.87-103.76,39.69-207.26,59.78-312.14c35.84,82.97,71.15,164.7,106.97,247.61c35.93-82.87,71.36-164.59,107.35-247.6
		c20.08,104.82,39.88,208.16,59.75,311.92c-11.28,0-22.31,0-33.87,0c-12.51-65.88-25.06-131.98-37.6-198.06
		c-1.81-0.07-1.75,1.47-2.17,2.41c-30.43,67.78-60.83,135.58-91.19,203.39c-0.65,1.45-1.92,2.81-1.37,4.64
		C479.67,341,479.33,341,479,341z"/>
	<path fill="#1499DA" d="M0,328c12.35-17.69,24.74-35.35,37.03-53.07c23.76-34.27,47.46-68.58,71.18-102.87
		c15.14-0.03,30.27-0.06,45.41-0.09c0.06,20.49,0.11,40.97,0.17,61.46c-12.82,19.83-25.67,39.64-38.46,59.48
		c-7.66,11.88-15.25,23.81-23.11,36.1c-30.67,0-61.44,0-92.22,0C0,328.67,0,328.33,0,328z"/>
	<path fill="#4A4A49" d="M1205,36c-1.35,0.52-1.18,1.93-1.58,2.93c-5.32,13.28-18.28,21.03-31.64,18.84
		c-13.73-2.25-23.62-13.02-24.66-26.86c-1.04-13.77,7.46-25.7,21.34-29.94c0.64-0.19,1.29-0.22,1.53-0.98c4,0,8,0,12,0
		c11.86,3.47,19.53,11.14,23,23C1205,27.33,1205,31.67,1205,36z M1200,28.98c0.03-13.23-10.47-23.88-23.61-23.98
		c-13.4-0.09-24.19,10.58-24.22,23.94c-0.03,13.05,10.66,23.9,23.69,24.05C1189.16,53.15,1199.97,42.4,1200,28.98z"/>
	<path fill="#4A4A49" d="M802.3,28.83c83.57-0.18,153.11,68.41,153.82,150.67c0.74,85.96-68.12,152.72-150.06,154.57
		c-84.26,1.9-156.83-64.72-157.03-152.06C648.84,97.85,717.85,29.01,802.3,28.83z M802.82,59.55
		C736.61,59.19,682.64,113.41,682,180.92c-0.61,65.07,53.79,121.07,117,122.46c66.21,1.46,123.21-52.37,123.92-120.42
		C923.64,114.66,870.08,59.91,802.82,59.55z"/>
	<path fill="#4A4A49" d="M1132.84,74.77c-8.98,5.78-17.5,11.25-26.23,16.87c-3.85-5.75-7.42-11.34-11.94-16.25
		c-24.77-26.89-72.75-18.49-84.98,14.92c-5.9,16.11-1.94,31.15,11.08,42.37c7.65,6.6,16.52,11.14,25.58,15.39
		c16.55,7.76,33.67,14.31,49.76,23.08c9.24,5.04,17.99,10.81,25.59,18.15c18.84,18.21,24.28,40.97,20.67,65.94
		c-5.23,36.13-25.48,61.4-59.87,73.19c-35.16,12.05-68.12,6.42-96.16-19.27c-14.95-13.7-23.16-31.34-27.5-51.54
		c10.7-3.02,21.16-5.96,31.97-9.01c1.64,6.29,2.91,12.28,5.33,17.92c10.57,24.62,32.97,38.36,59.6,36.48
		c24.44-1.73,46.34-19.61,52.67-43.01c6.02-22.24-1.47-42.55-20.76-55.89c-13.64-9.43-29.02-15.44-44.07-22.08
		c-12.03-5.31-23.87-10.92-35.01-17.97c-24.17-15.31-36.63-36.89-34.27-65.77c2.33-28.55,17.4-48.84,43.04-60.87
		c36.48-17.12,85.86-10.43,112.29,31.77C1130.68,70.88,1131.61,72.64,1132.84,74.77z"/>
	<path fill="#99D907" d="M153.79,233.42c-0.06-20.49-0.11-40.97-0.17-61.46c0.15-0.32,0.3-0.64,0.44-0.96
		c14.88,0.01,29.77,0.02,44.65,0.03c36.13,52.38,72.26,104.75,108.78,157.69c-31.18,0-61.56,0-92.34,0
		C194.81,297.13,174.3,265.28,153.79,233.42z"/>
	<path fill="#44B9EF" d="M154.07,171.01c-0.15,0.32-0.3,0.64-0.44,0.96c-15.14,0.03-30.27,0.06-45.41,0.09
		c-1.57-5.24-5.36-9.13-8.33-13.48C72.21,118.02,44.43,77.55,16.69,37.05c-0.47-0.68-0.87-1.41-1.6-2.6c31.35,0,62.32,0,94.12,0
		c3.96,6.68,8.27,13.94,12.58,21.19c10.62,17.87,21.23,35.74,31.85,53.6c0.07,2.49,0.18,4.97,0.2,7.46
		C153.93,134.81,153.99,152.91,154.07,171.01z"/>
	<path fill="#B7E620" d="M154.07,171.01c-0.07-18.1-0.14-36.21-0.22-54.31c-0.01-2.49-0.13-4.98-0.2-7.46
		c14.78-25.06,29.56-50.12,44.22-74.98c31.48,0,62.52,0,94.34,0c-8.12,11.88-15.87,23.23-23.63,34.58
		c-23.29,34.07-46.58,68.14-69.87,102.2C183.83,171.03,168.95,171.02,154.07,171.01z"/>
	<path fill="#4A4A49" d="M1189.6,44.88c-2.59,0-4.39,0-5.97,0c-4.56-4.78-4.92-13.98-15.01-12.83c0,4.31,0,8.4,0,12.22
		c-1.88,1.08-3.35,0.63-5.13,0.61c0-10.16,0-20.21,0-30.81c5.83-0.39,11.75-0.65,17.61,0.21c3.37,0.49,5.53,2.91,6.22,6.35
		c0.69,3.4-0.36,6.27-3.06,8.42c-1.15,0.91-2.56,1.5-4.1,2.39C1183.96,35.14,1186.56,39.64,1189.6,44.88z M1168.75,27.08
		c2.94,0,5.58,0.11,8.21-0.03c2.73-0.15,5.03-1.29,4.94-4.4c-0.08-3.02-2.4-4.21-5.08-4.41c-2.58-0.19-5.2-0.04-8.07-0.04
		C1168.75,21.24,1168.75,23.83,1168.75,27.08z"/>
</g>
</svg>
