<svg class="icon icon-logo button-logo__logo" xmlns="http://www.w3.org/2000/svg" x="0px" y="0px" viewBox="0 0 586 144">
    <rect x="233.1" y="3" width="8.5" height="17.1"/>
    <rect x="233.1" y="28.7" width="8.5" height="85.5"/>
    <polygon points="297.2,104.7 263,28.7 254.5,28.7 293,114.2 301.5,114.2 340,28.7 331.4,28.7 "/>
    <path class="icon-logo__triangle" d="M535.8,4.7H529l-6.8,15.6l-41.1,93.8h102.6L535.8,4.7z M500.8,100.5l24.9-56.8l24.8,56.8H500.8z"/>
    <path d="M425.4,54.3c0-14.2,11.5-25.6,25.6-25.6h25.6v8.5H451c-9.4,0-17.1,7.6-17.1,17.1v59.8h-8.5V54.3z"/>
    <path d="M75,54.3c0-14.2-11.5-25.6-25.6-25.6H28c-14.2,0-25.6,11.5-25.6,25.6L2.3,88.6c0,14.2,11.5,25.6,25.6,25.6h21.5&#xA;        c14.2,0,25.6-11.5,25.6-25.6L75,54.3z M66.5,88.6c0,9.4-7.6,17.1-17.1,17.1H27.9c-9.4,0-17.1-7.6-17.1-17.1l0.1-34.3&#xA;        c0-9.4,7.6-17.1,17.1-17.1h21.4c9.4,0,17.1,7.6,17.1,17.1V88.6z"/>
    <path d="M156.2,54.3c0-14.2-11.5-25.6-25.6-25.6H87.9v111.1h8.5v-25.6h34.2c14.2,0,25.6-11.5,25.6-25.6V54.3z M147.7,88.5&#xA;        c0,9.4-7.6,17.1-17.1,17.1H96.4V37.2h34.2c9.4,0,17.1,7.6,17.1,17.1V88.5z"/>
    <path d="M181.9,88.5c0,9.4,7.6,17.1,17.1,17.1h21.4v8.5H199c-14.2,0-25.6-11.5-25.6-25.6V37.2h-8.6v-8.5h8.5V11.6h8.5v17.1h31.8&#xA;        l-3.8,8.5h-27.9V88.5z"/>
    <path d="M404.1,88.5c0,9.4-7.6,17.1-17.1,17.1h-17.1c-9.5,0-17.1-7.6-17.1-17.1V71.4h59.8V54.3c0-14.2-11.5-25.6-25.6-25.6h-17.1&#xA;        c-14.2,0-25.6,11.5-25.6,25.6v34.2c0,14.2,11.5,25.6,25.6,25.6H387c14.2,0,25.6-11.5,25.6-25.6H404.1z M352.8,54.3&#xA;    c0-9.4,7.6-17.1,17.1-17.1h17.8H387c9.5,0,17.1,7.6,17.1,17.1v8.5h-51.3V54.3z"/>
</svg>