<?xml version="1.0" encoding="UTF-8" standalone="no"?>
<svg xmlns:dc="http://purl.org/dc/elements/1.1/" xmlns:cc="http://creativecommons.org/ns#" xmlns:rdf="http://www.w3.org/1999/02/22-rdf-syntax-ns#" xmlns:svg="http://www.w3.org/2000/svg" xmlns="http://www.w3.org/2000/svg" xmlns:sodipodi="http://sodipodi.sourceforge.net/DTD/sodipodi-0.dtd" xmlns:inkscape="http://www.inkscape.org/namespaces/inkscape" viewBox="0 0 576.02558 107.5" id="svg2" version="1.1" inkscape:version="0.48.4 r9939" width="100%" height="100%" sodipodi:docname="logo_full.svg">
  <metadata id="metadata428">
    <rdf:RDF>
      <cc:Work rdf:about="">
        <dc:format>image/svg+xml</dc:format>
        <dc:type rdf:resource="http://purl.org/dc/dcmitype/StillImage"/>
      </cc:Work>
    </rdf:RDF>
  </metadata>
  <defs id="defs426"/>
  <sodipodi:namedview pagecolor="#ffffff" bordercolor="#666666" borderopacity="1" objecttolerance="10" gridtolerance="10" guidetolerance="10" inkscape:pageopacity="0" inkscape:pageshadow="2" inkscape:window-width="640" inkscape:window-height="480" id="namedview424" showgrid="false" fit-margin-top="10" fit-margin-left="40" fit-margin-right="10" fit-margin-bottom="5" inkscape:showpageshadow="false" inkscape:zoom="0.58163847" inkscape:cx="322.95091" inkscape:cy="71.249993" inkscape:window-x="422" inkscape:window-y="145" inkscape:window-maximized="0" inkscape:current-layer="svg2"/>
  <style type="text/css" id="style4">
	.st0{opacity:0;}
	.st1{fill:#1D1D1B;}
	.st2{fill:url(#SVGID_1_);}
	.st3{opacity:0.5;}
	.st4{fill:url(#SVGID_2_);}
	.st5{fill:url(#SVGID_3_);}
	.st6{fill:url(#SVGID_4_);}
	.st7{fill:#4A4A49;}
	.st9{fill:url(#SVGID_5_);}
	.st10{fill:url(#SVGID_6_);}
	.st11{fill:url(#SVGID_7_);}
	.st12{fill:url(#SVGID_8_);}
</style>
  <g id="g6" transform="translate(39.900906,9.9999981)">
    <g class="st0" id="g8" style="opacity:0">
      <path class="st1" d="m 442.1,2.2 c 0.3,0 7.2,4.7 7.2,4.7 21.8,13.2 35,38.9 35.8,40.8 1.3,2.9 -4.3,3 -5.1,1.7 -17.8,-30.7 -34.4,-39.4 -39.8,-43 -1.3,-0.9 -1,-4.3 1.9,-4.2 z" id="path10" inkscape:connector-curvature="0" style="fill:#1d1d1b"/>
    </g>
    <g id="g12">
      <linearGradient id="SVGID_1_" gradientUnits="userSpaceOnUse" x1="488.65839" y1="26.163401" x2="534.58087" y2="26.163401" gradientTransform="translate(-49.1677,0)">
        <stop offset="0" style="stop-color:#E86031" id="stop15"/>
        <stop offset="0" style="stop-color:#F08F34" id="stop17"/>
        <stop offset="0" style="stop-color:#001D09" id="stop19"/>
        <stop offset="0.2886" style="stop-color:#175F3B" id="stop21"/>
        <stop offset="0.346" style="stop-color:#2E7B37" id="stop23"/>
        <stop offset="0.4085" style="stop-color:#419235" id="stop25"/>
        <stop offset="0.476" style="stop-color:#4FA233" id="stop27"/>
        <stop offset="0.5514" style="stop-color:#56AC31" id="stop29"/>
        <stop offset="0.651" style="stop-color:#59AF31" id="stop31"/>
        <stop offset="0.8079" style="stop-color:#5BAF30" id="stop33"/>
        <stop offset="0.8645" style="stop-color:#62B12D" id="stop35"/>
        <stop offset="0.9048" style="stop-color:#6DB427" id="stop37"/>
        <stop offset="0.9374" style="stop-color:#7EB71F" id="stop39"/>
        <stop offset="0.9653" style="stop-color:#94BC14" id="stop41"/>
        <stop offset="0.9895" style="stop-color:#AFC207" id="stop43"/>
        <stop offset="1" style="stop-color:#BDC500" id="stop45"/>
        <stop offset="1" style="stop-color:#C1C600" id="stop47"/>
      </linearGradient>
      <path class="st2" d="m 442.1,2.2 c 0.3,0 7.2,4.7 7.2,4.7 21.8,13.2 35,38.9 35.8,40.8 1.3,2.9 -4.3,3 -5.1,1.7 -17.8,-30.7 -34.4,-39.4 -39.8,-43 -1.3,-0.9 -1,-4.3 1.9,-4.2 z" id="path49" inkscape:connector-curvature="0" style="fill:url(#SVGID_1_)"/>
    </g>
  </g>
  <g class="st3" id="g51" style="opacity:0.5" transform="translate(39.900906,9.9999981)">
    <g class="st0" id="g53" style="opacity:0">
      <path class="st1" d="m 442,2.1 c 0.3,0 7.2,4.7 7.2,4.7 C 471.1,20 480.8,50.5 480,49.2 462.2,18.5 445.4,9.9 440.1,6.3 c -1.4,-1 -1,-4.2 1.9,-4.2 z" id="path55" inkscape:connector-curvature="0" style="fill:#1d1d1b"/>
    </g>
    <g id="g57">
      <linearGradient id="SVGID_2_" gradientUnits="userSpaceOnUse" x1="-93.285698" y1="25.664" x2="-52.526798" y2="25.664" gradientTransform="matrix(-1,0,0,1,386.7853,0)">
        <stop offset="0" style="stop-color:#E86031" id="stop60"/>
        <stop offset="0" style="stop-color:#F08F34" id="stop62"/>
        <stop offset="0" style="stop-color:#001D09" id="stop64"/>
        <stop offset="0" style="stop-color:#175F3B" id="stop66"/>
        <stop offset="0" style="stop-color:#165B37" id="stop68"/>
        <stop offset="0" style="stop-color:#13502A" id="stop70"/>
        <stop offset="0" style="stop-color:#10451C" id="stop72"/>
        <stop offset="0.4445" style="stop-color:#11471C" id="stop74"/>
        <stop offset="0.6046" style="stop-color:#164E1E" id="stop76"/>
        <stop offset="0.7187" style="stop-color:#1E5920" id="stop78"/>
        <stop offset="0.8111" style="stop-color:#2A6A23" id="stop80"/>
        <stop offset="0.89" style="stop-color:#398028" id="stop82"/>
        <stop offset="0.9588" style="stop-color:#4B9B2D" id="stop84"/>
        <stop offset="1" style="stop-color:#59AF31" id="stop86"/>
        <stop offset="1" style="stop-color:#5BAF30" id="stop88"/>
        <stop offset="1" style="stop-color:#62B12D" id="stop90"/>
        <stop offset="1" style="stop-color:#6DB427" id="stop92"/>
        <stop offset="1" style="stop-color:#7EB71F" id="stop94"/>
        <stop offset="1" style="stop-color:#94BC14" id="stop96"/>
        <stop offset="1" style="stop-color:#AFC207" id="stop98"/>
        <stop offset="1" style="stop-color:#BDC500" id="stop100"/>
        <stop offset="1" style="stop-color:#BFC600" id="stop102"/>
        <stop offset="1" style="stop-color:#C1C600" id="stop104"/>
      </linearGradient>
      <path class="st4" d="m 442,2.1 c 0.3,0 7.2,4.7 7.2,4.7 C 471.1,20 480.8,50.5 480,49.2 462.2,18.5 445.4,9.9 440.1,6.3 c -1.4,-1 -1,-4.2 1.9,-4.2 z" id="path106" inkscape:connector-curvature="0" style="fill:url(#SVGID_2_)"/>
    </g>
  </g>
  <g id="g108" transform="translate(39.900906,9.9999981)">
    <g class="st0" id="g110" style="opacity:0">
      <path class="st1" d="M 523.2,2.3 C 522.9,2.3 516,7 516,7 c -21.8,13.2 -35,38.9 -35.8,40.8 -1.3,2.9 4.3,3 5.1,1.7 17.8,-30.7 34.4,-39.4 39.8,-43 1.4,-0.8 1,-4.2 -1.9,-4.2 z" id="path112" inkscape:connector-curvature="0" style="fill:#1d1d1b"/>
    </g>
    <g id="g114">
      <linearGradient id="SVGID_3_" gradientUnits="userSpaceOnUse" x1="-89.904404" y1="26.320499" x2="-43.981998" y2="26.320499" gradientTransform="matrix(-1,0,0,1,435.953,0)">
        <stop offset="0" style="stop-color:#E86031" id="stop117"/>
        <stop offset="0" style="stop-color:#F08F34" id="stop119"/>
        <stop offset="0" style="stop-color:#001D09" id="stop121"/>
        <stop offset="0.2886" style="stop-color:#175F3B" id="stop123"/>
        <stop offset="0.346" style="stop-color:#2E7B37" id="stop125"/>
        <stop offset="0.4085" style="stop-color:#419235" id="stop127"/>
        <stop offset="0.476" style="stop-color:#4FA233" id="stop129"/>
        <stop offset="0.5514" style="stop-color:#56AC31" id="stop131"/>
        <stop offset="0.651" style="stop-color:#59AF31" id="stop133"/>
        <stop offset="0.7315" style="stop-color:#66B12A" id="stop135"/>
        <stop offset="0.8804" style="stop-color:#89B716" id="stop137"/>
        <stop offset="1" style="stop-color:#A9BD04" id="stop139"/>
        <stop offset="1" style="stop-color:#BDC500" id="stop141"/>
      </linearGradient>
      <path class="st5" d="M 523.2,2.3 C 522.9,2.3 516,7 516,7 c -21.8,13.2 -35,38.9 -35.8,40.8 -1.3,2.9 4.3,3 5.1,1.7 17.8,-30.7 34.4,-39.4 39.8,-43 1.4,-0.8 1,-4.2 -1.9,-4.2 z" id="path143" inkscape:connector-curvature="0" style="fill:url(#SVGID_3_)"/>
    </g>
  </g>
  <g class="st3" id="g145" style="opacity:0.5" transform="translate(39.900906,9.9999981)">
    <g class="st0" id="g147" style="opacity:0">
      <path class="st1" d="m 523.3,2.3 c -0.3,0 -7.2,4.7 -7.2,4.7 -21.8,13.2 -31.5,43.7 -30.7,42.4 17.8,-30.7 34.5,-39.3 39.9,-42.9 1.3,-1 0.9,-4.3 -2,-4.2 z" id="path149" inkscape:connector-curvature="0" style="fill:#1d1d1b"/>
    </g>
    <g id="g151">
      <linearGradient id="SVGID_4_" gradientUnits="userSpaceOnUse" x1="485.25729" y1="25.8186" x2="525.97321" y2="25.8186">
        <stop offset="0" style="stop-color:#E86031" id="stop154"/>
        <stop offset="0" style="stop-color:#F08F34" id="stop156"/>
        <stop offset="0" style="stop-color:#001D09" id="stop158"/>
        <stop offset="0" style="stop-color:#175F3B" id="stop160"/>
        <stop offset="0" style="stop-color:#165B37" id="stop162"/>
        <stop offset="0" style="stop-color:#13502A" id="stop164"/>
        <stop offset="0" style="stop-color:#10451C" id="stop166"/>
        <stop offset="0.4445" style="stop-color:#11471C" id="stop168"/>
        <stop offset="0.6046" style="stop-color:#164E1E" id="stop170"/>
        <stop offset="0.7187" style="stop-color:#1E5920" id="stop172"/>
        <stop offset="0.8111" style="stop-color:#2A6A23" id="stop174"/>
        <stop offset="0.89" style="stop-color:#398028" id="stop176"/>
        <stop offset="0.9588" style="stop-color:#4B9B2D" id="stop178"/>
        <stop offset="1" style="stop-color:#59AF31" id="stop180"/>
        <stop offset="1" style="stop-color:#5BAF30" id="stop182"/>
        <stop offset="1" style="stop-color:#62B12D" id="stop184"/>
        <stop offset="1" style="stop-color:#6DB427" id="stop186"/>
        <stop offset="1" style="stop-color:#7EB71F" id="stop188"/>
        <stop offset="1" style="stop-color:#94BC14" id="stop190"/>
        <stop offset="1" style="stop-color:#AFC207" id="stop192"/>
        <stop offset="1" style="stop-color:#BDC500" id="stop194"/>
        <stop offset="1" style="stop-color:#BFC600" id="stop196"/>
        <stop offset="1" style="stop-color:#C1C600" id="stop198"/>
      </linearGradient>
      <path class="st6" d="m 523.3,2.3 c -0.3,0 -7.2,4.7 -7.2,4.7 -21.8,13.2 -31.5,43.7 -30.7,42.4 17.8,-30.7 34.5,-39.3 39.9,-42.9 1.3,-1 0.9,-4.3 -2,-4.2 z" id="path200" inkscape:connector-curvature="0" style="fill:url(#SVGID_4_)"/>
    </g>
  </g>
  <path class="st7" d="M 400.1009,92.6" id="path202" inkscape:connector-curvature="0" style="fill:#4a4a49"/>
  <g id="g204" transform="translate(39.900906,9.9999981)">
    <path class="st8" d="m 340,22.9 h -4.4 V 12.1 c 0,-2.9 -1.2,-4.4 -3.3,-4.4 -2.1,0 -3.3,1.5 -3.3,4.4 V 23 h -4.4 c -2.2,0 -2.9,1.7 -2.9,2.8 0,1.1 0.7,2.8 2.9,2.8 h 4.4 v 40.2 c 0,2.8 1.2,4.3 3.3,4.3 2.1,0 3.3,-1.5 3.3,-4.3 V 28.5 h 4.4 c 2.2,0 2.9,-1.7 2.9,-2.8 0,-1.1 -0.7,-2.8 -2.9,-2.8 z" id="path206" inkscape:connector-curvature="0"/>
    <path class="st8" d="m 194.9,22.4 c -6.3,0 -10.4,3.1 -12.9,6.7 h -0.2 V 4.9 c 0,-2.8 -1.4,-4.9 -3.6,-4.9 -2.1,0 -4.1,0.4 -4.1,4.9 v 63.8 c 0,3.5 2.2,4.3 4.3,4.3 2.1,0 3.3,-1.5 3.3,-4.3 V 41.5 c 0,-8.5 5.9,-12.9 12.1,-12.9 7.4,0 12.1,4.5 12.1,11.3 v 28.8 c 0,2.8 1.2,4.3 3.3,4.3 2.1,0 3.3,-1.5 3.3,-4.3 V 40.1 c 0.2,-11.9 -8.8,-17.7 -17.6,-17.7 z" id="path208" inkscape:connector-curvature="0"/>
    <path class="st8" d="M 82.7,22.9 H 78.3 V 12.1 c 0,-2.9 -1.2,-4.4 -3.3,-4.4 -2.1,0 -3.3,1.5 -3.3,4.4 V 23 h -4.4 c -2.2,0 -2.9,1.7 -2.9,2.8 0,1.1 0.7,2.8 2.9,2.8 h 4.4 v 40.2 c 0,2.8 1.2,4.3 3.3,4.3 2.1,0 3.3,-1.5 3.3,-4.3 V 28.5 h 4.4 c 2.2,0 2.9,-1.7 2.9,-2.8 0,-1.1 -0.7,-2.8 -2.9,-2.8 z" id="path210" inkscape:connector-curvature="0"/>
    <circle class="st8" cx="355.10001" cy="12.7" r="4.5999999" id="circle212" d="m 359.70001,12.7 c 0,2.54051 -2.05949,4.6 -4.6,4.6 -2.54051,0 -4.6,-2.05949 -4.6,-4.6 0,-2.54051 2.05949,-4.6000001 4.6,-4.6000001 2.54051,0 4.6,2.0594901 4.6,4.6000001 z" sodipodi:cx="355.10001" sodipodi:cy="12.7" sodipodi:rx="4.5999999" sodipodi:ry="4.5999999"/>
    <path class="st8" d="m 355.1,22.4 c -2.1,0 -3.3,1.5 -3.3,4.3 v 42 c 0,2.8 1.2,4.3 3.3,4.3 2.1,0 3.3,-1.5 3.3,-4.3 v -42 c 0,-2.8 -1.2,-4.3 -3.3,-4.3 z" id="path214" inkscape:connector-curvature="0"/>
    <path class="st8" d="M 433.2,44.9 423,40.8 c -3.3,-1.3 -4.6,-3.6 -4.6,-5.9 0,-4.7 5,-7 9.7,-7 6.7,0 10.1,5.3 12.7,5.3 2.8,0 3.3,-1.8 3.3,-3.3 0.2,-3.5 -7.8,-7.6 -17.5,-7.6 -7.5,0 -15.5,4.9 -15.5,13 0,6.1 3.6,9.1 8.7,11.2 l 11.5,4.7 c 3.6,1.5 6.9,3.3 6.9,7.6 0,4.7 -4.3,8.5 -10.7,8.5 -8.7,0 -11.8,-7.1 -15,-7.1 -1.7,0 -3.2,2.2 -3.2,3.3 0,3.2 7.1,9.4 17.9,9.4 10.4,0 18.2,-5.6 18.2,-14.3 0.1,-7.8 -5.5,-11 -12.2,-13.7 z" id="path216" inkscape:connector-curvature="0"/>
    <path class="st8" d="m 389.9,28.5 c 6,0 7.6,2.8 9.4,2.8 2.6,0 3.7,-1.6 3.7,-3.7 0,-2.8 -6,-5.2 -12.3,-5.2 -14,0 -22.1,12.8 -22.1,25.3 0,12.5 7.4,25.3 21.3,25.3 6.6,0 12.8,-2 12.8,-6 0,-1.6 -1.6,-2.7 -2.8,-2.7 -1.9,0 -4,2.6 -10,2.6 -8.7,0 -14,-9.3 -14,-19.7 0,-8 4.5,-18.7 14,-18.7 z" id="path218" inkscape:connector-curvature="0"/>
    <path class="st8" d="m 296.4,22.4 c -5.8,0 -10.7,2.5 -13.7,7.3 h -0.3 v -3.1 c 0,-2.8 -1.2,-4.3 -3.3,-4.3 -2.1,0 -3.3,1.5 -3.3,4.3 v 61.6 c 0,2.8 1.2,4.3 3.3,4.3 2.1,0 3.3,-1.5 3.3,-4.3 V 65.6 h 0.3 c 3.8,4.9 8.1,7.4 13.9,7.4 14.3,0 21.1,-12.8 21.1,-25.3 0,-14 -7,-25.3 -21.3,-25.3 z m 0,45 c -10.4,0 -14,-10.7 -14,-19.7 0,-9 3.6,-19.7 14,-19.7 10.4,0 14,10.7 14,19.7 0.1,9 -3.6,19.7 -14,19.7 z" id="path220" inkscape:connector-curvature="0"/>
    <path class="st8" d="m 113.7,22.4 c -4.2,0 -8.5,3.4 -10.9,8.9 h -0.2 v -4.7 c 0,-2.8 -1.2,-4.3 -3.3,-4.3 -2.1,0 -3.3,1.5 -3.3,4.3 v 42 c 0,2.8 1.2,4.3 3.3,4.3 2.1,0 3.3,-1.5 3.3,-4.3 v -24 c 0,-11 7.3,-14.1 11,-15 3.3,-0.7 4.6,-1.8 4.6,-3.6 0,-1.8 -1.4,-3.6 -4.5,-3.6 z" id="path222" inkscape:connector-curvature="0"/>
    <path class="st8" d="m 34.2,22.4 c -2.1,0 -3.3,1.5 -3.3,4.3 V 54.5 C 30.9,63 26.3,67.4 18.8,67.4 11.3,67.4 6.7,62.9 6.7,54.5 V 26.7 c 0,-2.8 -1.2,-4.3 -3.3,-4.3 -2.1,0 -3.3,1.5 -3.3,4.3 V 56.2 C 0,66.8 8.2,73 18.8,73 29.4,73 37.6,66.9 37.6,56.2 V 26.7 c 0,-2.8 -1.2,-4.3 -3.4,-4.3 z" id="path224" inkscape:connector-curvature="0"/>
    <path class="st8" d="m 260.2,22.4 c -2.1,0 -3.3,1.5 -3.3,4.3 v 3.1 h -0.3 c -3.8,-4.9 -8.1,-7.3 -13.9,-7.3 -14.3,0 -21.1,12.8 -21.1,25.3 0,14 7.1,25.3 21.3,25.3 5.8,0 10.7,-2.5 13.7,-7.4 h 0.3 v 3.1 c 0,2.8 1.2,4.3 3.3,4.3 2.1,0 3.3,-1.5 3.3,-4.3 v -42 c 0,-2.9 -1.2,-4.4 -3.3,-4.4 z m -17.3,45 c -10.4,0 -14,-10.7 -14,-19.7 0,-9 3.9,-19.7 14,-19.7 10.4,0 14,10.7 14,19.7 -0.1,9 -3.6,19.7 -14,19.7 z" id="path226" inkscape:connector-curvature="0"/>
    <path class="st8" d="m 52.4,0.6 c -2.1,0 -3.3,1.5 -3.3,4.3 v 63.8 c 0,2.8 1.2,4.3 3.3,4.3 2.1,0 3.3,-1.5 3.3,-4.3 V 4.9 c 0,-2.8 -1.2,-4.3 -3.3,-4.3 z" id="path228" inkscape:connector-curvature="0"/>
    <path class="st8" d="m 159.4,22.4 c -2.1,0 -3.3,1.5 -3.3,4.3 v 3.1 h -0.3 c -3.8,-4.9 -8.1,-7.3 -13.9,-7.3 -14.3,0 -21.1,12.8 -21.1,25.3 0,14 7.1,25.3 21.3,25.3 5.8,0 10.7,-2.5 13.7,-7.4 h 0.3 v 3.1 c 0,2.8 1.2,4.3 3.3,4.3 2.1,0 3.3,-1.5 3.3,-4.3 v -42 c 0.1,-2.9 -1.1,-4.4 -3.3,-4.4 z m -17.3,45 c -10.4,0 -14,-10.7 -14,-19.7 0,-9 3.9,-19.7 14,-19.7 10.4,0 14,10.7 14,19.7 0,9 -3.6,19.7 -14,19.7 z" id="path230" inkscape:connector-curvature="0"/>
  </g>
  <g id="g232" transform="translate(39.900906,9.9999981)">
    <g class="st0" id="g234" style="opacity:0">
      <path class="st1" d="M 523.3,1.1 C 523,1.1 490.1,-1.2 464,26.4 l 3.4,4.1 c 18,-19.3 40,-23.6 48.8,-24.2 0,0 8.5,-0.6 9.1,0 1.4,-0.7 0.9,-5.3 -2,-5.2 z" id="path236" inkscape:connector-curvature="0" style="fill:#1d1d1b"/>
    </g>
    <g id="g238">
      <linearGradient id="SVGID_5_" gradientUnits="userSpaceOnUse" x1="497.98029" y1="4.7326999" x2="535.38519" y2="26.3284" gradientTransform="translate(-21.501,0)">
        <stop offset="0" style="stop-color:#E86031" id="stop241"/>
        <stop offset="0" style="stop-color:#F08F34" id="stop243"/>
        <stop offset="0" style="stop-color:#001D09" id="stop245"/>
        <stop offset="0" style="stop-color:#175F3B" id="stop247"/>
        <stop offset="0.1341" style="stop-color:#1E673A" id="stop249"/>
        <stop offset="0.3418" style="stop-color:#307D37" id="stop251"/>
        <stop offset="0.596" style="stop-color:#4DA033" id="stop253"/>
        <stop offset="0.6886" style="stop-color:#59AF31" id="stop255"/>
        <stop offset="0.819" style="stop-color:#58AD31" id="stop257"/>
        <stop offset="0.8659" style="stop-color:#54A62F" id="stop259"/>
        <stop offset="0.8994" style="stop-color:#4C9B2C" id="stop261"/>
        <stop offset="0.9264" style="stop-color:#428A27" id="stop263"/>
        <stop offset="0.9496" style="stop-color:#347422" id="stop265"/>
        <stop offset="0.9701" style="stop-color:#23581B" id="stop267"/>
        <stop offset="0.9882" style="stop-color:#103912" id="stop269"/>
        <stop offset="1" style="stop-color:#00200C" id="stop271"/>
        <stop offset="1" style="stop-color:#BDC500" id="stop273"/>
        <stop offset="1" style="stop-color:#BFC600" id="stop275"/>
        <stop offset="1" style="stop-color:#C1C600" id="stop277"/>
      </linearGradient>
      <path class="st9" d="M 523.3,1.1 C 523,1.1 490.1,-1.2 464,26.4 l 3.4,4.1 c 18,-19.3 40,-23.6 48.8,-24.2 0,0 8.5,-0.6 9.1,0 1.4,-0.7 0.9,-5.3 -2,-5.2 z" id="path279" inkscape:connector-curvature="0" style="fill:url(#SVGID_5_)"/>
    </g>
  </g>
  <g id="g281" transform="translate(39.900906,9.9999981)">
    <g class="st0" id="g283" style="opacity:0">
      <path class="st1" d="m 523.4,0.8 c -0.3,0 -33.8,2.5 -56.3,29.4 l 0.3,0.4 C 485.3,11.4 507.6,7 516.3,6.3 c 0,0 8.2,-0.5 8.9,0 1.6,-0.7 1.2,-5.6 -1.8,-5.5 z" id="path285" inkscape:connector-curvature="0" style="fill:#1d1d1b"/>
    </g>
    <g id="g287">
      <linearGradient id="SVGID_6_" gradientUnits="userSpaceOnUse" x1="-139.34641" y1="15.6838" x2="-80.274498" y2="15.6838" gradientTransform="matrix(-1,0,0,1,386.7853,0)">
        <stop offset="0" style="stop-color:#E86031" id="stop290"/>
        <stop offset="0" style="stop-color:#F08F34" id="stop292"/>
        <stop offset="0" style="stop-color:#001D09" id="stop294"/>
        <stop offset="0" style="stop-color:#94B518" id="stop296"/>
        <stop offset="0" style="stop-color:#8DB01A" id="stop298"/>
        <stop offset="0" style="stop-color:#6E9B23" id="stop300"/>
        <stop offset="0" style="stop-color:#52882A" id="stop302"/>
        <stop offset="0" style="stop-color:#3C7931" id="stop304"/>
        <stop offset="0" style="stop-color:#2B6D35" id="stop306"/>
        <stop offset="0" style="stop-color:#206539" id="stop308"/>
        <stop offset="0" style="stop-color:#19603A" id="stop310"/>
        <stop offset="0" style="stop-color:#175F3B" id="stop312"/>
        <stop offset="8.186890e-02" style="stop-color:#286E38" id="stop314"/>
        <stop offset="0.5142" style="stop-color:#80BA27" id="stop316"/>
        <stop offset="0.5832" style="stop-color:#79B027" id="stop318"/>
        <stop offset="0.6993" style="stop-color:#669626" id="stop320"/>
        <stop offset="0.8483" style="stop-color:#476B25" id="stop322"/>
        <stop offset="1" style="stop-color:#223923" id="stop324"/>
      </linearGradient>
      <path class="st10" d="m 523.4,0.8 c -0.3,0 -33.8,2.5 -56.3,29.4 l 0.3,0.4 C 485.3,11.4 507.6,7 516.3,6.3 c 0,0 8.2,-0.5 8.9,0 1.6,-0.7 1.2,-5.6 -1.8,-5.5 z" id="path326" inkscape:connector-curvature="0" style="fill:url(#SVGID_6_)"/>
    </g>
  </g>
  <g id="g328" transform="translate(39.900906,9.9999981)">
    <g class="st0" id="g330" style="opacity:0">
      <path class="st1" d="m 442,0.8 c 0.3,0 33.3,-2.1 59.4,25.6 L 498,30.5 C 480,11.2 457.9,6.7 449.1,6.1 c 0,0 -8.6,-0.6 -9.2,0 -1.4,-0.7 -0.8,-5.3 2.1,-5.3 z" id="path332" inkscape:connector-curvature="0" style="fill:#1d1d1b"/>
    </g>
    <g id="g334">
      <linearGradient id="SVGID_7_" gradientUnits="userSpaceOnUse" x1="-80.589996" y1="4.5957999" x2="-43.095299" y2="26.243401" gradientTransform="matrix(-1,0,0,1,408.2863,0)">
        <stop offset="0" style="stop-color:#E86031" id="stop337"/>
        <stop offset="0" style="stop-color:#F08F34" id="stop339"/>
        <stop offset="0" style="stop-color:#001D09" id="stop341"/>
        <stop offset="0" style="stop-color:#175F3B" id="stop343"/>
        <stop offset="0.1341" style="stop-color:#1E673A" id="stop345"/>
        <stop offset="0.3418" style="stop-color:#307D37" id="stop347"/>
        <stop offset="0.596" style="stop-color:#4DA033" id="stop349"/>
        <stop offset="0.6886" style="stop-color:#59AF31" id="stop351"/>
        <stop offset="0.819" style="stop-color:#58AD31" id="stop353"/>
        <stop offset="0.8659" style="stop-color:#54A62F" id="stop355"/>
        <stop offset="0.8994" style="stop-color:#4C9B2C" id="stop357"/>
        <stop offset="0.9264" style="stop-color:#428A27" id="stop359"/>
        <stop offset="0.9496" style="stop-color:#347422" id="stop361"/>
        <stop offset="0.9701" style="stop-color:#23581B" id="stop363"/>
        <stop offset="0.9882" style="stop-color:#103912" id="stop365"/>
        <stop offset="1" style="stop-color:#00200C" id="stop367"/>
        <stop offset="1" style="stop-color:#BDC500" id="stop369"/>
        <stop offset="1" style="stop-color:#BFC600" id="stop371"/>
        <stop offset="1" style="stop-color:#C1C600" id="stop373"/>
      </linearGradient>
      <path class="st11" d="m 442,0.8 c 0.3,0 33.3,-2.1 59.4,25.6 L 498,30.5 C 480,11.2 457.9,6.7 449.1,6.1 c 0,0 -8.6,-0.6 -9.2,0 -1.4,-0.7 -0.8,-5.3 2.1,-5.3 z" id="path375" inkscape:connector-curvature="0" style="fill:url(#SVGID_7_)"/>
    </g>
  </g>
  <g id="g377" transform="translate(39.900906,9.9999981)">
    <g class="st0" id="g379" style="opacity:0">
      <path class="st1" d="m 442.1,0.8 c 0.3,0 33.8,2.5 56.3,29.3 l -0.3,0.4 C 480.2,11.4 457.8,6.7 449.1,6.1 c 0,0 -8.4,-0.6 -9.1,0 -1.5,-0.7 -0.9,-5.4 2.1,-5.3 z" id="path381" inkscape:connector-curvature="0" style="fill:#1d1d1b"/>
    </g>
    <g id="g383">
      <linearGradient id="SVGID_8_" gradientUnits="userSpaceOnUse" x1="439.1752" y1="15.6682" x2="498.35669" y2="15.6682">
        <stop offset="0" style="stop-color:#E86031" id="stop386"/>
        <stop offset="0" style="stop-color:#F08F34" id="stop388"/>
        <stop offset="0" style="stop-color:#001D09" id="stop390"/>
        <stop offset="0" style="stop-color:#94B518" id="stop392"/>
        <stop offset="0" style="stop-color:#8DB01A" id="stop394"/>
        <stop offset="0" style="stop-color:#6E9B23" id="stop396"/>
        <stop offset="0" style="stop-color:#52882A" id="stop398"/>
        <stop offset="0" style="stop-color:#3C7931" id="stop400"/>
        <stop offset="0" style="stop-color:#2B6D35" id="stop402"/>
        <stop offset="0" style="stop-color:#206539" id="stop404"/>
        <stop offset="0" style="stop-color:#19603A" id="stop406"/>
        <stop offset="0" style="stop-color:#175F3B" id="stop408"/>
        <stop offset="8.186890e-02" style="stop-color:#286E38" id="stop410"/>
        <stop offset="0.5142" style="stop-color:#80BA27" id="stop412"/>
        <stop offset="0.5832" style="stop-color:#79B027" id="stop414"/>
        <stop offset="0.6993" style="stop-color:#669626" id="stop416"/>
        <stop offset="0.8483" style="stop-color:#476B25" id="stop418"/>
        <stop offset="1" style="stop-color:#223923" id="stop420"/>
      </linearGradient>
      <path class="st12" d="m 442.1,0.8 c 0.3,0 33.8,2.5 56.3,29.3 l -0.3,0.4 C 480.2,11.4 457.8,6.7 449.1,6.1 c 0,0 -8.4,-0.6 -9.1,0 -1.5,-0.7 -0.9,-5.4 2.1,-5.3 z" id="path422" inkscape:connector-curvature="0" style="fill:url(#SVGID_8_)"/>
    </g>
  </g>
</svg>