<svg width="150" height="43" viewBox="0 0 333 97" version="1.1" xmlns="http://www.w3.org/2000/svg" xmlns:xlink="http://www.w3.org/1999/xlink">

<g id="Canvas" transform="translate(-14965 465)">
<g id="UoB_logo">
<g id="Group 3">
<g id="Fill 1">
<use xlink:href="#path0_fill" transform="translate(15072.3 -406.281)" fill="#231F20"></use>
</g>
<g id="Fill 3">
<use xlink:href="#path1_fill" transform="translate(15107.1 -406.282)" fill="#231F20"></use>
</g>
<g id="Fill 5">
<use xlink:href="#path2_fill" transform="translate(15165.5 -406.621)" fill="#231F20"></use>
</g>
<g id="Fill 7">
<use xlink:href="#path3_fill" transform="translate(15190.4 -406.621)" fill="#231F20"></use>
</g>
<g id="Fill 9">
<use xlink:href="#path4_fill" transform="translate(15226 -406.622)" fill="#231F20"></use>
</g>
<g id="Fill 11">
<use xlink:href="#path5_fill" transform="translate(15267.7 -405.773)" fill="#231F20"></use>
</g>
<g id="Fill 14">
<use xlink:href="#path6_fill" transform="translate(15019 -435.858)" fill="#FFFFFF"></use>
</g>
<g id="Fill 16">
<use xlink:href="#path7_fill" transform="translate(15014.5 -465)" fill="#C02F38"></use>
</g>
<g id="Fill 19">
<use xlink:href="#path8_fill" transform="translate(15072.3 -446.216)" fill="#231F20"></use>
</g>
<g id="Fill 21">
<use xlink:href="#path9_fill" transform="translate(15104.2 -437.175)" fill="#231F20"></use>
</g>
<g id="Fill 23">
<use xlink:href="#path10_fill" transform="translate(15126.2 -446.847)" fill="#231F20"></use>
</g>
<g id="Fill 25">
<use xlink:href="#path11_fill" transform="translate(15135.9 -436.712)" fill="#231F20"></use>
</g>
<g id="Fill 27">
<use xlink:href="#path12_fill" transform="translate(15156.2 -437.175)" fill="#231F20"></use>
</g>
<g id="Fill 29">
<use xlink:href="#path13_fill" transform="translate(15173.7 -437.133)" fill="#231F20"></use>
</g>
<g id="Fill 31">
<use xlink:href="#path14_fill" transform="translate(15189.2 -437.176)" fill="#231F20"></use>
</g>
<g id="Fill 33">
<use xlink:href="#path15_fill" transform="translate(15201.8 -446.847)" fill="#231F20"></use>
</g>
<g id="Fill 35">
<use xlink:href="#path16_fill" transform="translate(15212.4 -440.875)" fill="#231F20"></use>
</g>
<g id="Fill 37">
<use xlink:href="#path17_fill" transform="translate(15225 -436.712)" fill="#231F20"></use>
</g>
<g id="Fill 39">
<use xlink:href="#path18_fill" transform="translate(15254.2 -437.176)" fill="#231F20"></use>
</g>
<g id="Fill 42">
<use xlink:href="#path19_fill" transform="translate(15274 -448.319)" fill="#231F20"></use>
</g>
<g id="Fill 44">
<use xlink:href="#path20_fill" transform="translate(14965 -464.946)" fill="#C02F38"></use>
</g>
<g id="Fill 47">
<use xlink:href="#path21_fill" transform="translate(15014.5 -417.659)" fill="#C02F38"></use>
</g>
<g id="Fill 49">
<use xlink:href="#path22_fill" transform="translate(14965 -417.659)" fill="#C02F38"></use>
</g>
</g>
</g>
</g>
<defs>
<path id="path0_fill" fill-rule="evenodd" d="M 11.5684 16.331L 17.6924 16.331C 24.3274 16.331 27.6744 20.813 27.6744 25.179C 27.6744 29.601 25.5184 34.251 18.0334 34.251C 13.2684 34.251 11.5684 32.719 11.5684 28.411L 11.5684 16.331ZM 6.863 30.054C 6.863 33.629 5.955 34.705 1.306 34.705L 0 34.705L 0 35.782L 20.754 35.782C 29.886 35.782 33.003 29.488 33.003 25.008C 33.003 20.586 29.886 17.125 24.556 15.538L 24.556 15.424C 28.355 14.743 31.019 11.739 31.019 8.508C 31.019 5.784 29.886 3.855 27.56 2.213C 25.518 0.738 21.152 0 16.163 0C 15.084 0 10.775 0.055 7.654 0.171C 6.012 0.228 2.097 0.455 0.51 0.509L 0.51 1.588L 2.495 1.588C 6.464 1.588 6.863 3.289 6.863 6.52L 6.863 30.054ZM 11.5684 1.247C 12.9864 1.19 15.3124 1.077 16.5584 1.077C 23.5344 1.077 25.9154 4.706 25.9154 8.677C 25.9154 13.1 23.1934 15.254 17.7504 15.254L 11.5684 15.254L 11.5684 1.247Z"></path>
<path id="path1_fill" fill-rule="evenodd" d="M 13.725 19.905C 12.419 19.905 11.568 19.961 10.208 19.792L 10.208 1.191C 11.228 1.078 11.965 1.078 13.044 1.078C 21.782 1.078 24.16 5.163 24.16 10.434C 24.16 17.239 20.024 19.905 13.725 19.905ZM 55.627 1.589L 55.627 0.51L 41.846 0.51L 41.846 1.589C 45.022 1.758 46.101 2.608 46.101 5.671L 46.101 29.829C 46.101 33.514 45.399 34.474 42.153 34.686C 37.828 34.458 35.991 32.762 32.888 29.661L 28.412 25.18C 25.75 22.515 24.049 20.925 21.95 19.281C 26.6 17.922 29.489 14.348 29.489 10.095C 29.489 4.311 24.784 0 14.291 0C 10.603 0 9.469 0.056 7.145 0.172C 4.82 0.284 1.36 0.51 0 0.51L 0 1.589L 1.248 1.589C 4.537 1.589 5.501 2.608 5.501 6.126L 5.501 30C 5.501 33.8 4.309 34.706 0.964 34.706L 0 34.706L 0 35.783L 16.051 35.783L 16.051 34.706L 14.745 34.706C 11.568 34.706 10.208 33.855 10.208 30.452L 10.208 20.869C 11.115 20.925 11.852 20.984 13.1 20.984C 14.633 20.984 15.54 20.925 16.959 20.869C 18.321 21.776 20.307 23.42 22.802 25.916L 26.543 29.661C 31.446 34.567 33.537 36.117 42.771 35.783L 55.627 35.783L 55.627 34.706C 51.714 34.706 50.808 33.572 50.808 30.226L 50.808 6.183C 50.808 2.383 52.055 1.589 55.627 1.589Z"></path>
<path id="path2_fill" fill-rule="evenodd" d="M 1.076 27.503C 2.269 32.551 6.236 35.498 10.66 35.498C 14.46 35.498 18.483 33.288 18.483 28.808C 18.483 20.641 0.282 18.147 0.282 8.224C 0.282 3.515 4.592 0 10.377 0C 15.138 0 16.104 1.417 18.089 1.417C 18.541 1.417 18.768 1.304 19.109 0.849L 20.016 0.849L 20.979 8.052L 20.016 8.052C 18.428 3.97 14.799 1.362 10.885 1.362C 7.142 1.362 4.534 3.515 4.534 6.691C 4.534 14.744 22.738 16.9 22.738 27.332C 22.738 32.89 17.803 37.03 11.17 37.03C 8.049 37.03 4.083 35.498 3.288 35.498C 2.778 35.498 2.379 35.781 2.154 36.123L 1.189 36.123L 0 27.503L 1.076 27.503Z"></path>
<path id="path3_fill" fill-rule="evenodd" d="M 19.736 30.906C 19.736 33.97 20.754 35.046 24.213 35.046L 26.314 35.046L 26.314 36.123L 8.449 36.123L 8.449 35.046L 10.549 35.046C 14.008 35.046 15.027 33.97 15.027 30.906L 15.027 2.894L 5.159 2.894C 2.893 2.894 1.871 4.195 1.019 9.186L 0 9.186L 0.908 0L 1.984 0C 2.042 0.34 2.269 0.568 2.608 0.68C 2.949 0.795 3.347 0.849 3.742 0.849L 31.019 0.849C 31.813 0.849 32.664 0.68 32.779 0L 33.854 0L 34.763 9.186L 33.741 9.186C 32.892 4.195 31.87 2.894 29.604 2.894L 19.736 2.894L 19.736 30.906Z"></path>
<path id="path4_fill" fill-rule="evenodd" d="M 40.66 17.523C 40.66 7.316 31.473 0 20.756 0C 8.678 0 0 7.995 0 19.28C 0 29.887 9.359 37.031 20.474 37.031C 31.473 37.031 40.66 28.978 40.66 17.523ZM 35.329 19.394C 35.329 27.445 30.907 35.611 21.664 35.611C 12.532 35.611 5.33301 28.128 5.33301 17.523C 5.33301 10.717 9.29901 1.41699 19.281 1.41699C 28.639 1.41699 35.329 8.84799 35.329 19.394Z"></path>
<path id="path5_fill" fill-rule="evenodd" d="M 25.348 35.274L 0 35.274L 0 34.197L 1.87 34.197C 4.478 34.197 5.442 33.345 5.442 30.453L 5.442 5.331C 5.442 2.327 4.536 1.08 0.964 1.08L 0.169 1.08L 0.169 0L 16.898 0L 16.898 1.08L 14.798 1.08C 11.114 1.08 10.148 1.476 10.148 4.993L 10.148 31.133C 10.148 32.665 10.774 33.233 12.417 33.233L 20.753 33.233C 24.098 33.233 25.117 31.928 28.692 26.995L 29.712 26.995L 25.348 35.274Z"></path>
<path id="path6_fill" fill-rule="evenodd" d="M 0 0C 7.896 3.829 9.017 10.575 9.058 13.876C 10.151 13.994 11.218 14.167 12.27 14.377C 11.875 9.322 8.019 2.548 0 0Z"></path>
<path id="path7_fill" fill-rule="evenodd" d="M 13.6114 43.018C 13.5704 39.717 12.4494 32.971 4.55344 29.142C 12.5714 31.69 16.4284 38.464 16.8234 43.519C 25.2414 45.197 32.7114 49.159 44.8414 44.975L 44.8834 44.949C 44.8834 44.949 28.9214 45.094 22.2464 40.265C 25.6944 40.395 29.6624 39.615 30.9624 37.663C 32.3494 35.584 32.4924 33.437 35.9064 33.327C 37.8254 33.265 44.3314 33.75 45.0134 24.198C 42.9314 27.711 40.6774 29.164 37.2724 28.296C 35.0994 27.743 31.1314 26.08 28.2964 29.467C 25.9544 32.264 23.4394 33.717 19.4284 33.283C 21.0324 31.115 44.9484 0.065 44.9484 0.065C 44.9484 0.065 14.3104 24.654 12.6194 26.085C 12.2944 21.596 13.6384 19.948 15.4384 17.975C 16.9104 16.361 19.4704 14.175 17.4324 9.562C 15.7854 5.833 16.0014 3.578 20.4904 0C 16.9124 0.26 11.4524 2.667 12.0984 9.237C 12.4894 13.205 9.67744 13.548 8.65144 14.115C 5.98444 15.59 5.63644 19.883 5.55044 23.222C 5.24644 22.138 1.36644 5.452 0.000444444 0.053C -0.000555556 0.056 0.000444444 44.949 0.000444444 44.949L 0.102444 44.949C 5.30244 42.901 9.62844 42.588 13.6114 43.018Z"></path>
<path id="path8_fill" fill-rule="evenodd" d="M 32.041 0L 32.041 0.799C 29.224 0.841 28.215 1.976 28.215 4.668L 28.215 16.021C 28.215 21.235 24.892 26.827 15.768 26.827C 7.736 26.827 3.615 22.244 3.615 16.231L 3.615 3.953C 3.615 1.261 2.859 0.841 0 0.799L 0 0L 10.806 0L 10.806 0.799L 10.427 0.799C 8.115 0.799 7.106 1.43 7.106 3.869L 7.106 15.558C 7.106 21.235 10.427 24.642 16.693 24.642C 21.445 24.642 26.281 22.665 26.281 15.516L 26.281 5.719C 26.281 1.682 25.65 0.967 22.159 0.799L 22.159 0L 32.041 0Z"></path>
<path id="path9_fill" fill-rule="evenodd" d="M 5.635 13.456C 5.635 15.768 6.181 16.315 8.452 16.315L 8.452 17.114L 0 17.114L 0 16.315C 1.85 16.315 2.817 15.306 2.817 13.666L 2.817 4.836C 2.817 3.28 2.649 2.985 1.556 2.775L 0.126 2.481L 0.126 1.808L 4.962 0.042L 5.635 0.042L 5.635 3.322C 8.452 1.556 10.807 0 12.867 0C 15.727 0 17.366 2.102 17.366 6.307C 17.366 11.9 17.072 12.994 17.03 14.633C 16.989 15.768 17.662 16.315 19.385 16.315L 20.31 16.315L 20.31 17.114L 11.27 17.114L 11.27 16.315C 12.489 16.273 13.204 15.979 13.666 15.517C 14.465 14.717 14.549 11.648 14.549 6.055C 14.549 2.691 12.909 1.64 11.227 1.64C 9.882 1.64 7.821 2.817 5.635 4.331L 5.635 13.456Z"></path>
<path id="path10_fill" fill-rule="evenodd" d="M 4.58439 0C 5.59339 0 6.43439 0.715 6.43439 1.598C 6.43439 2.481 5.59339 3.196 4.58439 3.196C 3.57539 3.196 2.77539 2.481 2.77539 1.598C 2.77539 0.715 3.57539 0 4.58439 0ZM 6.308 23.59C 6.308 25.062 7.108 25.987 9.335 25.987L 9.335 26.786L 0 26.786L 0 25.987C 2.566 25.987 3.491 25.146 3.491 22.917L 3.491 14.465C 3.491 12.825 3.28 12.615 2.187 12.405L 0.211 12.026L 0.211 11.354L 5.677 9.461L 6.308 9.461L 6.308 23.59Z"></path>
<path id="path11_fill" fill-rule="evenodd" d="M 9.253 17.03L 3.155 3.069C 2.524 1.598 1.977 1.093 1.305 0.967L 0 0.757L 0 0L 8.58 0L 8.58 0.757C 6.014 0.841 5.216 1.177 6.224 3.153L 10.682 13.624L 14.972 3.91C 15.729 2.186 15.349 0.967 12.28 0.757L 12.28 0L 19.595 0L 19.595 0.757C 17.999 1.05 17.073 1.976 16.274 3.826L 10.472 17.03L 9.253 17.03Z"></path>
<path id="path12_fill" fill-rule="evenodd" d="M 15.053 6.434L 15.053 5.466C 13.666 4.079 13.791 0 8.115 0C 2.985 0 0 4.541 0 8.999C 0 13.876 3.194 17.619 7.315 17.619C 10.385 17.619 13.034 15.517 14.8 13.288L 14.338 12.783C 12.74 14.675 11.1 15.517 8.998 15.517C 5.675 15.517 2.605 12.573 2.605 8.2C 2.605 7.653 2.69 7.065 2.774 6.434L 15.053 6.434ZM 2.89941 5.34001C 3.86841 1.43001 5.97041 0.799011 7.35941 0.799011C 9.37641 0.799011 11.0584 2.60701 11.5214 5.34001L 2.89941 5.34001Z"></path>
<path id="path13_fill" fill-rule="evenodd" d="M 5.636 14.003C 5.636 15.727 6.266 16.274 8.369 16.274L 9.967 16.274L 9.967 17.073L 0 17.073L 0 16.274C 2.146 16.232 2.818 15.348 2.818 13.12L 2.818 3.407L 0 2.397L 0 1.682L 4.795 0L 5.636 0L 5.636 4.458L 5.72 4.458C 7.822 1.01 8.327 0.211 9.714 0.211C 10.219 0.211 10.346 0.253 11.144 0.589C 11.564 0.757 12.322 0.925 13.332 1.22L 12.322 3.743C 11.691 3.658 10.892 3.448 10.093 3.07C 9.631 2.86 9.126 2.649 8.622 2.649C 7.865 2.649 7.401 3.154 6.981 3.743C 6.434 4.5 5.972 5.214 5.636 5.845L 5.636 14.003Z"></path>
<path id="path14_fill" fill-rule="evenodd" d="M 0.673 12.868C 1.177 15.391 2.774 16.821 4.668 16.821C 6.349 16.821 7.653 15.559 7.653 14.045C 7.653 13.162 7.442 12.616 6.307 11.48C 3.321 8.495 0 8.201 0 4.71C 0 1.935 2.188 0 5.383 0C 6.517 0 7.696 0.253 8.746 0.674L 8.83 4.5L 8.116 4.5C 7.821 2.355 6.432 1.01 4.752 1.01C 3.363 1.01 2.188 1.977 2.188 3.365C 2.188 7.065 10.007 7.696 10.007 12.826C 10.007 15.559 7.737 17.619 4.793 17.619C 3.995 17.619 3.406 17.494 2.943 17.325C 2.481 17.199 2.146 17.073 1.808 17.073C 1.556 17.073 1.304 17.241 1.093 17.578L 0.463 17.578L 0 12.868L 0.673 12.868Z"></path>
<path id="path15_fill" fill-rule="evenodd" d="M 4.58334 0C 5.59434 0 6.43434 0.715 6.43434 1.598C 6.43434 2.481 5.59434 3.196 4.58334 3.196C 3.57634 3.196 2.77734 2.481 2.77734 1.598C 2.77734 0.715 3.57634 0 4.58334 0ZM 6.309 23.59C 6.309 25.062 7.107 25.987 9.336 25.987L 9.336 26.786L 0 26.786L 0 25.987C 2.567 25.987 3.491 25.146 3.491 22.917L 3.491 14.465C 3.491 12.825 3.281 12.615 2.187 12.405L 0.211 12.026L 0.211 11.354L 5.677 9.461L 6.309 9.461L 6.309 23.59Z"></path>
<path id="path16_fill" fill-rule="evenodd" d="M 10.765 4.163L 10.092 6.013L 4.753 6.013L 4.753 15.811C 4.753 18.46 6.645 19.343 7.527 19.343C 8.452 19.343 9.295 18.628 10.092 17.24L 10.765 17.871C 9.756 20.057 8.116 21.319 6.182 21.319C 3.7 21.319 1.935 19.258 1.935 16.442L 1.935 6.013L 0 6.013L 0 5.34C 1.64 4.541 3.07 2.607 4.037 0L 4.753 0L 4.753 4.163L 10.765 4.163Z"></path>
<path id="path17_fill" fill-rule="evenodd" d="M 14.761 4.667C 16.021 1.471 15.222 0.84 12.742 0.757L 12.742 0L 19.721 0L 19.721 0.757C 17.999 0.967 17.031 2.144 16.233 4.12L 9.084 21.95C 7.822 25.062 6.856 26.448 5.384 26.448C 4.374 26.448 3.66 25.819 3.66 24.977C 3.66 23.253 6.097 23.673 7.149 22.622C 7.612 22.16 8.243 21.066 8.579 20.226L 9.84 17.072L 3.322 3.237C 2.525 1.513 1.768 0.799 0 0.757L 0 0L 8.453 0L 8.453 0.757C 5.888 0.799 5.595 1.556 6.435 3.321L 11.186 13.582L 14.761 4.667Z"></path>
<path id="path18_fill" fill-rule="evenodd" d="M 0 8.915C 0 13.835 3.994 17.619 9.208 17.619C 14.212 17.619 18.123 13.793 18.123 8.831C 18.123 3.827 14.212 0 9.082 0C 4.709 0 0 3.112 0 8.915ZM 3.1543 7.48501C 3.1543 3.86901 5.7183 1.01001 8.4933 1.01001C 12.0263 1.01001 14.9693 5.08801 14.9693 9.88201C 14.9693 14.087 12.1523 16.61 9.6713 16.61C 6.0543 16.61 3.1543 12.573 3.1543 7.48501Z"></path>
<path id="path19_fill" fill-rule="evenodd" d="M 10.47 13.456L 5.928 13.456L 5.928 24.978C 5.928 26.912 6.686 27.459 9.041 27.459L 10.638 27.459L 10.638 28.258L 0.252 28.258L 0.252 27.459C 2.691 27.459 3.112 26.912 3.112 24.557L 3.112 13.456L 0 13.456L 0 12.741C 1.176 12.489 2.186 12.11 3.112 11.606C 3.112 8.116 3.869 5.466 6.351 2.986C 8.41 0.925 10.386 0 12.32 0C 14.675 0 16.652 1.346 16.652 1.976C 16.652 2.313 15.853 3.994 15.517 3.994C 14.927 3.994 13.371 1.935 10.596 1.935C 7.569 1.935 5.928 4.331 5.928 8.41L 5.928 11.606L 10.176 11.606L 10.47 13.456Z"></path>
<path id="path20_fill" fill-rule="evenodd" d="M 33.0262 24.284C 32.6792 22.419 32.8522 18.733 34.6742 15.09C 27.9522 20.164 27.8652 24.284 27.8652 24.284C 27.8652 24.284 29.1662 23.286 33.0262 24.284ZM 29.9037 13.182C 29.9037 13.182 21.7507 14.353 19.4087 14.57C 17.7937 15.524 15.9397 18.191 15.9397 18.191C 15.9397 18.191 14.0317 18.473 10.2157 19.166C 7.56171 20.898 5.96571 24.934 9.26071 28.23C 8.22071 28.013 8.22071 28.013 6.70271 27.753C 3.44971 29.835 4.96771 33.694 11.7327 32.35C 9.82471 32.285 8.87071 31.352 8.89271 30.138C 8.84871 28.815 11.4297 27.167 14.5737 28.013C 11.5807 22.354 14.8987 20.12 14.8987 20.12C 14.8987 20.12 13.1427 24.793 16.9807 28.62C 17.3267 28.057 18.4767 26.474 21.7067 26.409C 24.9267 26.344 26.9487 27.925 26.9977 29.748C 27.0407 31.352 25.0027 33.044 22.3577 33.044L 22.3137 29.21C 22.3137 29.21 21.4527 29.52 21.2087 29.86C 21.2127 30.036 21.1867 33.087 21.1867 33.087C 20.1457 33.087 18.0207 32.653 16.8937 30.853C 16.0257 30.767 11.1907 30.051 11.1907 30.051L 11.4507 31.331C 11.4507 31.331 13.1427 31.613 13.4677 33.304C 13.8617 35.35 15.0287 37.228 16.0697 37.987C 18.0857 37.749 21.4257 35.212 27.5617 35.299C 21.9237 36.079 16.1997 42.107 7.95971 39.809C 21.0567 44.276 22.4007 34.344 38.7927 37.467C 36.2347 35.906 32.4187 35.429 32.4187 35.429C 32.4187 35.429 34.4567 33.217 34.5437 29.835C 34.8037 29.818 35.1507 29.791 35.8007 29.726C 36.0177 28.642 36.1697 27.542 36.1697 27.542C 36.1697 27.542 32.5917 27.536 29.5887 27.536C 22.2817 20.142 29.9037 13.182 29.9037 13.182ZM 11.6034 13.052C 13.6634 13.16 16.1674 11.88 16.3304 11.773C 16.3304 11.773 15.4624 13.963 17.4144 13.832C 19.5334 13.691 21.9714 12.605 22.3144 12.445L 22.3144 9.62601C 22.1264 9.76501 20.0614 11.224 17.7184 11.751C 16.8624 11.944 17.1544 11.187 17.2414 10.754C 17.3274 10.32 17.3864 9.96501 15.8534 10.602C 9.58738 13.204 9.26138 11.426 9.26138 11.209C 9.00138 11.513 9.11238 12.92 11.6034 13.052ZM 44.819 0L 44.819 44.895C 26.757 37.783 19.233 51.574 0 44.895L 0 0L 9.151 0L 9.151 4.847L 14.398 4.847L 14.398 0L 19.559 0L 19.559 4.847L 24.762 4.847L 24.762 0L 29.966 0L 29.966 4.847L 35.625 4.847L 35.625 0L 44.819 0Z"></path>
<path id="path21_fill" fill-rule="evenodd" d="M 12.5833 13.779C 12.5833 13.779 12.3693 13.673 12.7773 13.332C 12.8263 13.29 12.9053 13.383 13.1423 13.386C 13.4613 13.39 13.6283 13.28 13.8933 12.961C 14.2933 12.477 13.4593 12.292 13.1883 12.524C 12.8913 12.778 12.6783 13.042 12.4233 13.275C 12.4233 13.275 11.9943 13.656 12.5833 13.779ZM 28.0453 36.458C 27.3293 37.043 25.1183 38.159 24.5653 38.42C 24.0123 38.68 23.8343 38.838 23.4263 39.644C 22.9273 40.632 22.4503 42.422 22.5803 42.55C 23.9473 42.334 24.9223 41.185 24.9223 41.185C 24.9223 41.185 24.9443 40.904 24.6403 40.425C 24.3893 40.03 24.8793 39.603 25.1833 39.851C 25.4143 40.041 25.7353 40.079 25.9313 39.916C 26.1263 39.753 30.3873 37.043 30.5823 36.729C 29.7143 35.872 29.0533 35.005 29.0533 35.005C 29.0533 35.005 28.7603 35.872 28.0453 36.458ZM 11.392 24.575C 9.57097 23.838 9.16297 23.344 8.82297 23.199C 8.51897 23.068 7.26497 23.601 7.05497 24.141C 6.49197 25.594 5.23397 27.968 5.04997 28.304C 4.95097 28.485 4.84397 28.695 4.86497 28.934C 4.88697 29.172 4.95797 30.105 4.93597 30.321C 4.91397 30.539 4.94697 30.821 5.03297 31.037C 5.11997 31.254 5.23397 32.186 5.71097 33.118C 6.77397 32.056 6.92997 30.489 6.85997 30.799C 6.85897 30.806 7.19697 30.225 6.35097 29.963C 6.10997 29.889 6.14597 29.263 6.40497 29.182C 6.71997 29.086 6.88197 28.998 7.03397 28.436C 7.18597 27.871 7.75797 25.845 7.94497 25.453C 7.97297 25.394 8.02597 25.292 8.13097 25.243C 8.29297 25.169 8.48797 25.116 8.64997 25.09C 8.72997 25.077 8.88197 25.163 8.92897 25.21C 9.21697 25.504 10.72 26.722 10.72 26.722C 10.72 26.722 11.392 26.656 11.804 26.483C 11.544 26.071 11.436 25.074 11.392 24.575ZM 9.55367 16.01C 9.55367 16.01 8.91967 16.791 9.63568 16.987C 9.65168 17.214 9.74168 17.662 9.83068 17.897C 9.95068 18.211 10.1557 18.109 10.3837 17.848C 10.6107 17.588 10.9777 17.094 11.2457 16.808C 11.4897 16.548 12.3387 16.64 11.9937 17.165C 11.7657 17.512 11.5867 17.605 11.2947 17.669C 11.0627 17.72 10.9937 17.523 10.7417 17.865C 10.4767 18.224 10.1927 18.475 10.6597 18.475C 10.9037 18.475 11.3677 18.702 11.6767 18.653C 11.9677 18.607 11.9997 18.418 12.0317 18.157C 12.0637 17.886 12.0117 17.729 12.3137 17.561C 12.7037 17.344 13.2787 16.823 13.4517 16.639C 13.6517 16.428 13.9067 16.477 14.1677 16.477C 14.4277 16.477 15.6847 16.629 16.4327 15.507C 16.9607 14.715 17.0187 13.637 16.8237 12.661C 17.1817 13.018 17.6617 14.143 17.4087 15.197C 16.9577 17.075 16.0337 17.18 15.0997 17.376C 14.7097 17.929 13.7117 19.35 13.1807 21.931C 12.9527 22.082 11.0667 23.903 12.6437 26.891C 12.2377 27.026 11.0387 27.537 10.3297 27.697C 9.85268 27.806 9.45368 27.83 9.26167 28.06C 9.04467 28.321 8.54568 29.167 8.80568 29.589C 8.99067 29.889 10.1717 32.532 10.2697 33.347C 10.3667 34.159 10.6617 34.352 10.9527 34.615C 11.2777 34.906 11.4897 34.892 11.9447 35.233C 12.4047 35.578 12.7877 36.199 13.2127 36.533C 13.6687 36.891 14.1777 37.054 14.5357 37.02C 14.4497 35.699 14.1667 34.398 13.7547 33.964C 13.3277 33.514 12.7907 34.159 12.6607 34.192C 12.5297 34.224 12.3487 34.1 12.2697 33.736C 12.1887 33.362 12.5297 33.053 12.2047 32.566C 11.5997 31.658 11.0227 30.637 10.9527 30.5C 10.5297 29.671 11.2477 29.451 11.4247 29.492C 11.8477 29.589 14.3837 29.931 14.7747 29.963C 15.1647 29.996 15.3807 30.062 15.5547 29.866C 16.0917 29.264 16.4007 28.825 16.7097 28.207C 17.2787 28.63 16.8887 29.443 16.7257 30.407C 16.8887 30.549 20.5637 32.402 25.6157 31.058C 27.7257 30.498 27.4857 30.94 27.6867 31.329C 28.9117 33.704 29.7787 34.623 31.2317 35.786C 31.6657 36.132 31.9687 36.696 32.1647 37.02C 32.3597 37.347 32.4087 37.925 32.2507 38.3C 32.0557 38.766 30.9267 40.79 30.7327 41.076C 30.3647 41.619 29.8837 42.073 29.4757 42.29C 28.1957 42.973 27.8767 43.587 27.7357 44.063L 31.0207 44.063C 31.0207 44.063 31.0967 43.893 31.0577 43.482C 31.0037 42.908 31.5247 42.811 31.6877 42.779C 31.8497 42.746 32.1427 42.875 32.4027 42.258C 32.8917 41.096 34.7977 37.856 34.9617 37.563C 35.1237 37.27 35.7197 36.488 35.1347 36.144C 34.0287 35.493 33.3797 34.423 33.1617 33.226C 33.0747 32.75 33.1267 31.964 34.2027 30.625C 36.5007 27.763 34.7877 21.865 29.6707 21.974C 26.7687 22.035 25.1547 21.788 23.2637 21.41C 22.5717 21.271 22.4537 20.899 22.6017 20.477C 22.7537 20.043 22.8997 19.182 22.9057 18.829C 22.4067 18.374 21.6477 18.092 21.2797 17.963C 20.8827 17.822 20.6827 17.506 21.0847 17.474C 21.4847 17.442 23.0027 17.605 23.0027 17.605C 23.0027 17.605 23.0577 16.791 22.8407 15.599C 22.1897 15.316 21.3657 15.078 20.4987 14.97C 20.2707 14.942 20.0697 14.684 20.6507 14.601C 21.4097 14.493 22.1037 14.613 22.6457 14.579C 22.6777 14.515 22.3857 12.997 21.8487 12.384C 21.4747 12.271 21.2767 12.218 19.9787 12.065C 19.5227 12.011 19.5017 11.88 19.8047 11.782C 20.1577 11.67 20.7427 11.555 21.4747 11.603C 21.1927 11.213 19.3057 7.77199 15.3927 8.80699C 15.8317 9.34299 16.0427 9.59199 16.1727 9.96099C 16.2897 10.291 15.9407 10.396 15.6197 10.059C 14.3837 8.75799 13.7337 8.78999 12.9367 8.64299C 13.4567 9.14799 13.6847 9.65299 13.8637 10.156C 12.9697 10.791 11.7007 12.302 11.5217 12.596C 11.1817 13.153 11.6527 13.452 11.6527 13.452L 9.55367 16.01ZM 34.8419 7.294C 30.8419 8.693 31.4319 13.005 32.5109 14.667C 33.9209 16.835 35.1129 16.878 36.0129 19.426C 36.7149 21.413 35.4599 22.45 34.2239 22.906C 36.3379 24.208 38.5179 22.862 39.2979 21.561C 40.7349 19.645 39.1069 17.158 40.6429 15.859C 41.0529 15.512 41.7479 15.274 42.6809 15.23C 41.7479 13.907 39.5579 14.059 38.6799 15.295C 38.0619 13.864 36.3269 12.613 36.9569 10.395C 37.3679 8.942 39.6669 8.4 40.5339 9.592C 41.0089 10.245 41.0759 11.522 39.6879 12.173C 40.5559 12.108 42.2029 10.612 41.0759 8.573C 40.2839 7.142 38.9509 7.034 37.8669 7.034C 35.8939 7.034 32.6199 9.289 34.7119 14.157C 33.5089 13.084 31.5569 9.343 34.8419 7.294ZM 44.823 2.226C 44.823 1.509 44.822 47.172 44.823 47.175C 19.974 53.224 19.258 40.019 0.00297583 47.175C 0.00597583 47.758 -0.00502417 2.222 0.00297583 2.226C 17.697 -5.189 24.593 8.861 44.823 2.226Z"></path>
<path id="path22_fill" fill-rule="evenodd" d="M 16.3046 27.869C 16.3046 27.869 15.5176 28.383 16.5026 30.544C 17.4876 32.702 18.7096 34.714 16.5826 37.086C 17.7886 37.1 20.4226 35.509 17.6046 30.768C 16.9566 29.677 16.2566 28.92 16.3046 27.869ZM 13.6386 28.887C 14.2906 28.843 14.3726 28.046 14.2546 27.626C 14.1166 27.132 13.2896 27.07 13.0906 27.7C 12.8936 28.324 13.0656 28.931 13.0656 28.931C 13.2286 29.532 13.9056 29.704 13.9646 29.643C 13.5876 29.307 13.6896 29.112 13.6386 28.887ZM 14.2664 31.757C 14.1084 33.667 13.0144 33.947 13.0144 33.947C 11.1044 33.069 10.0794 35.474 11.6824 36.182C 13.7134 37.08 14.9574 34.454 15.0784 33.969C 15.4204 32.593 15.4524 31.62 15.2994 29.384C 15.1694 27.478 15.6384 27.191 15.9524 27.138C 16.2654 27.086 16.9184 27.061 17.5704 29.046C 18.2234 31.029 19.6324 31.316 19.6324 31.316C 19.6324 31.316 17.5934 27.998 20.4294 24.934C 21.7484 23.509 24.4384 22.7 23.9404 20.706C 23.9404 20.706 23.5244 21.421 22.7144 21.63C 21.9054 21.839 20.3384 22.074 20.3384 22.074C 20.3384 22.074 24.0984 20.298 24.7774 18.261C 24.7774 18.261 25.9524 20.22 24.3854 23.092C 24.3854 23.092 25.8774 22.557 27.4834 23.282C 31.5744 25.096 31.1404 30.925 25.9624 32.315C 18.5934 34.292 21.2694 39.992 25.4894 40.342C 25.0364 40.055 24.9334 38.335 25.6744 37.316C 26.0444 36.986 26.7064 36.32 27.1264 37.718C 27.8674 40.189 30.0294 40.389 31.0324 40.081C 30.7694 39.859 30.2764 39.107 30.3374 38.675C 30.4614 37.81 31.5404 38.708 31.9334 38.819C 34.8354 39.642 36.3794 38.923 36.5444 38.49C 35.8964 38.355 36.0094 38.429 35.5974 38.325C 35.2134 38.229 34.4684 37.698 35.8654 37.378C 38.4284 36.791 39.8384 34.146 38.1504 32.109C 36.5394 30.162 34.5074 30.461 33.8474 30.728C 36.6264 31.326 36.7664 33.563 35.3504 34.702C 34.1154 35.628 31.0484 35.999 29.9984 33.94C 29.3344 34.419 29.1024 35.186 29.2154 36.143C 28.9374 36.039 27.7744 34.383 29.5034 33.014C 37.5224 27.845 36.2274 19.158 29.4414 15.583L 29.3574 15.546C 23.2014 12.009 17.8154 15.237 17.8154 15.237C 21.6214 11.425 28.1994 13.693 29.1454 14.166C 29.1454 14.166 28.3894 13.507 27.9864 12.903C 27.4644 12.121 27.4844 11.374 27.4844 11.374C 24.8734 12.832 24.1994 10.592 24.1994 10.592C 24.1994 10.592 21.9374 12.63 20.4704 10.972C 19.1874 9.52202 21.2644 7.55402 21.2644 7.55402C 8.0184 11.902 10.5284 19.381 10.5284 19.381C 10.5284 19.381 8.6104 21.144 8.1814 25.389C 7.6934 30.212 10.0964 33.643 13.0974 32.7C 13.7854 32.485 14.1264 32.157 14.2594 31.795L 14.2664 31.757ZM 44.82 2.226C 44.828 2.222 44.817 47.759 44.82 47.175C 25.565 40.02 24.849 53.225 0 47.175C 0.001 47.173 0 1.51 0 2.226C 20.23 8.861 27.126 -5.189 44.82 2.226Z"></path>
</defs>
</svg>
