<?xml version="1.0" encoding="UTF-8" standalone="no"?><!DOCTYPE svg PUBLIC "-//W3C//DTD SVG 1.1//EN" "http://www.w3.org/Graphics/SVG/1.1/DTD/svg11.dtd"><svg width="100%" height="100%" viewBox="0 0 709 110" version="1.1" xmlns="http://www.w3.org/2000/svg" xmlns:xlink="http://www.w3.org/1999/xlink" xml:space="preserve" xmlns:serif="http://www.serif.com/" style="fill-rule:evenodd;clip-rule:evenodd;stroke-linejoin:round;stroke-miterlimit:2;"><path d="M0,0.25l708.75,0l0,109.75l-708.75,0l0,-109.75Zm276,27.45c-5.25,0 -10.9,0.991 -15.2,4c-4.25,3.01 -6.78,8.12 -6.78,13.3c0,12.6 11.8,15.3 21.8,17.2c2.4,0.464 6.5,1.1 6.5,4.34c0,2.93 -4.18,3.22 -6.25,3.22c-4.71,0 -8.27,-1.7 -9.66,-6.41l-15.1,2.72l0.281,1.06l0.344,1l0.375,1l0.406,0.938l0.438,0.906l0.469,0.844l0.531,0.844l0.531,0.781l0.594,0.75l0.594,0.719l1.31,1.31l1.44,1.19l0.75,0.531l0.781,0.5l0.781,0.469l0.844,0.438l0.844,0.406l0.875,0.375l0.875,0.344l0.906,0.281l0.938,0.281l0.938,0.25l0.938,0.219l1,0.188l0.969,0.156l1,0.125l1.03,0.094l2.03,0.125l1.03,-0c11,-0 23.6,-5.08 23.6,-17.8c0,-5.79 -2.7,-10.8 -7.88,-13.5c-4.62,-2.39 -9.96,-3.21 -15,-4.22c-2,-0.464 -5.84,-1 -5.84,-3.78c-0,-2.78 3.06,-3.41 5.22,-3.41c4.09,-0 7.03,1.38 8.56,5.31l13.4,-4.06c-3.24,-9.18 -12.1,-13 -21.3,-13l0.088,-0.034Zm118,-0c-5.24,0 -10.9,0.991 -15.2,4c-4.24,3.01 -6.78,8.12 -6.78,13.3c0,12.6 11.8,15.3 21.8,17.2c2.39,0.464 6.47,1.1 6.47,4.34c-0,2.93 -4.16,3.22 -6.25,3.22c-4.7,-0 -8.24,-1.7 -9.62,-6.41l-15.1,2.72l0.312,1.06l0.312,1l0.375,1l0.406,0.938l0.438,0.906l0.469,0.844l0.531,0.844l0.531,0.781l0.594,0.75l0.594,0.719l1.31,1.31l1.44,1.19l0.75,0.531l0.781,0.5l0.781,0.469l0.844,0.438l0.844,0.406l0.875,0.375l0.875,0.344l0.906,0.281l0.938,0.281l0.938,0.25l0.969,0.219l0.969,0.188l0.969,0.156l1,0.125l1.03,0.094l2.03,0.125l1.06,-0c10.9,-0 23.6,-5.08 23.6,-17.8c0,-5.79 -2.71,-10.8 -7.88,-13.5c-4.62,-2.39 -9.96,-3.21 -15,-4.22c-2,-0.464 -5.88,-1 -5.88,-3.78c0,-2.78 3.09,-3.41 5.25,-3.41c4.09,-0 7.03,1.38 8.56,5.31l13.4,-4.06c-3.24,-9.18 -12.1,-13 -21.3,-13l0.059,-0.034Zm251,-0c-5.25,0 -10.9,0.991 -15.2,4c-4.24,3.01 -6.78,8.12 -6.78,13.3c-0,12.6 11.8,15.3 21.8,17.2c2.4,0.464 6.5,1.1 6.5,4.34c-0,2.93 -4.16,3.22 -6.25,3.22c-4.7,-0 -8.27,-1.7 -9.66,-6.41l-15,2.72l0.281,1.06l0.312,1l0.375,1l0.406,0.938l0.438,0.906l0.469,0.844l0.531,0.844l0.531,0.781l0.594,0.75l0.594,0.719l1.31,1.31l1.44,1.19l0.75,0.531l0.781,0.5l0.812,0.469l0.812,0.438l0.844,0.406l0.875,0.375l0.875,0.344l0.938,0.281l0.906,0.281l0.938,0.25l0.969,0.219l0.969,0.188l0.969,0.156l1,0.125l1.03,0.094l2.03,0.125l1.06,-0c11,-0 23.6,-5.08 23.6,-17.8c-0,-5.79 -2.68,-10.8 -7.84,-13.5c-4.64,-2.39 -9.99,-3.21 -15,-4.22c-2.01,-0.464 -5.84,-1 -5.84,-3.78c0,-2.78 3.09,-3.41 5.25,-3.41c4.09,-0 7.01,1.38 8.56,5.31l13.4,-4.06c-3.24,-9.18 -12.1,-13 -21.3,-13l-0.079,-0.034Zm-600,0.781l0,52.9l24.2,-0c4.78,-0 10.5,-0.065 14.6,-3c3.78,-2.69 5.41,-7.79 5.41,-12.3c0,-6.33 -4.15,-11 -10.2,-12c5.4,-1.39 8.94,-6.1 8.94,-11.7c0,-4.32 -2.08,-8.64 -5.62,-11.2c-3.32,-2.39 -7.39,-2.69 -11.4,-2.69l-25.9,-0l-0.03,-0.01Zm75.5,-0l-16.4,52.9l13.2,-0l3.25,-10.4l14.1,-0l3,10.4l16.6,-0l-16.6,-52.9l-17.15,-0Zm50.9,-0.08l0,52.98l39.8,-0l0,-12.7l-23.8,-0l0,-8.56l19.3,-0l0,-11.8l-19.3,-0l0,-7.72l23.8,-0l0,-12.2l-39.8,-0Zm156.77,0.08l-17.8,-0l0.03,-0l17.8,30.5l0,22.4l15.7,-0l0,-22.4l16.6,-30.5l-14.2,-0l-8.88,17.4l-9.25,-17.4Zm104.23,-0l0,12.7l11.1,-0l0,40.2l15.4,-0l0,-40.2l10.9,-0l0,-12.7l-37.4,-0Zm55.2,-0.08l0,52.98l39.7,-0l0,-12.7l-23.8,-0l0,-8.56l19.3,-0l0,-11.8l-19.3,-0l0,-7.72l23.8,-0l0,-12.2l-39.7,-0Zm80.845,0.08l-21.2,-0l0.055,-0l0,52.9l12.2,-0l0,-37.8l10.1,37.8l10.3,-0l9.66,-37.8l0.125,37.8l15.1,-0l0,-52.9l-21.4,-0l-7.25,28.1l-7.69,-28.1Zm-508.145,31.55l6.41,-0c1.46,0 3.33,0.025 4.72,0.719c1.54,0.771 2.53,2.38 2.53,4.16c0,1.46 -0.781,2.84 -1.94,3.69c-1.31,1.08 -3.07,1 -4.69,1l-7.03,-0l0,-9.569Zm67.6,-16l4.31,15.4l-8.66,-0l4.34,-15.4l0.01,-0Zm-67.6,-4.25l6.31,-0c3.09,-0 6.34,0.565 6.34,4.5c0,1.23 -0.531,2.55 -1.53,3.47c-1.16,1.08 -3.02,1 -4.56,1l-6.56,-0l0,-8.97Z" style="fill:#fff;fill-rule:nonzero;"/></svg>