<?xml version="1.0" encoding="UTF-8" standalone="no"?><!DOCTYPE svg PUBLIC "-//W3C//DTD SVG 1.1//EN" "http://www.w3.org/Graphics/SVG/1.1/DTD/svg11.dtd"><svg width="100%" height="100%" viewBox="0 0 172 40" version="1.1" xmlns="http://www.w3.org/2000/svg" xmlns:xlink="http://www.w3.org/1999/xlink" xml:space="preserve" xmlns:serif="http://www.serif.com/" style="fill-rule:evenodd;clip-rule:evenodd;stroke-linejoin:round;stroke-miterlimit:2;"><path d="M27,24.16c2.815,-6.045 0.767,-13.314 -4.79,-17c2.17,-2.23 4.52,-4.44 7,-6.55c-2.893,1.72 -5.639,3.677 -8.21,5.85c-1.933,-1.008 -4.081,-1.534 -6.26,-1.534c-7.428,-0 -13.54,6.112 -13.54,13.54c-0,3.237 1.16,6.369 3.27,8.824c-2.59,5.61 -3,10.11 -0.76,11.63c2.45,1.63 7.77,-1.33 11,-6.14c0,0 -4.94,4.45 -7.65,3.43c-1.67,-0.63 -1.67,-3.19 -0.3,-6.85c5.339,3.917 12.807,3.371 17.52,-1.28l0.48,0.9c5.9,-0.48 23.51,-0.95 23.51,-0.95c-0.04,-0.83 -11.7,-0.03 -21.27,-3.87Zm-24.18,-5.71c0.007,-6.534 5.386,-11.907 11.92,-11.907c1.701,-0 3.382,0.364 4.93,1.067c-5.845,5.113 -10.726,11.233 -14.41,18.07c-1.587,-2.075 -2.445,-4.617 -2.44,-7.23Zm11.91,11.91c-2.673,0.005 -5.271,-0.894 -7.37,-2.55c2.36,-5.32 7.16,-12.46 13.71,-19.44c5.067,3.191 6.98,9.732 4.43,15.15c-2.067,-0.928 -3.977,-2.173 -5.66,-3.69l3.59,6.74c-2.246,2.417 -5.401,3.791 -8.7,3.79Z" style="fill:#fff;fill-rule:nonzero;"/><path d="M107.76,17.21l2.2,-2.93l-7.68,-0l1.89,-2.51l7.69,-0l2.21,-2.93l-15.34,-0l-10.55,14l15.34,-0l2.2,-2.93l-7.68,-0l2.03,-2.7l7.69,-0Z" style="fill:#fff;fill-rule:nonzero;"/><path d="M118.41,8.84l-10.55,14l7.66,0l10.54,-14l-7.65,0Z" style="fill:#fff;fill-rule:nonzero;"/><path d="M143.91,8.84l-5.35,7.1l-1.64,-7.1l-5.98,0l-10.55,14l5.06,0l5.3,-7.03l1.63,7.03l6.04,0l10.55,-14l-5.06,0Z" style="fill:#fff;fill-rule:nonzero;"/><path d="M168.93,8.84l-12.3,0c-2.024,-0.002 -3.935,0.951 -5.15,2.57l-6.35,8.43c-0.248,0.324 -0.381,0.722 -0.38,1.13c-0,1.028 0.842,1.875 1.87,1.88l12.3,0c2.027,0.004 3.942,-0.95 5.16,-2.57l1.53,-2l1.78,0l2.22,-3l-9.42,0l-3,3.95c-0.316,0.422 -0.813,0.671 -1.34,0.67l-2.17,0c-0.269,0 -0.49,-0.221 -0.49,-0.49c-0.001,-0.105 0.034,-0.208 0.1,-0.29l5,-6.7c0.315,-0.423 0.813,-0.672 1.34,-0.67l2.17,0c0.269,-0 0.49,0.221 0.49,0.49c-0.003,0.105 -0.038,0.206 -0.1,0.29l-0.82,1.09l7.64,0l1.35,-1.8c0.247,-0.325 0.38,-0.722 0.38,-1.13c0,-1.026 -0.844,-1.87 -1.87,-1.87c-0.003,-0 -0.007,-0 -0.01,0l0.07,0.02Z" style="fill:#fff;fill-rule:nonzero;"/><path d="M92.45,10.72c0,-1.026 -0.844,-1.87 -1.87,-1.87l-12.3,0c-2.027,-0.004 -3.942,0.95 -5.16,2.57l-6.35,8.43c-0.24,0.324 -0.37,0.717 -0.37,1.12c-0,1.028 0.842,1.875 1.87,1.88l12.3,0c2.027,0.004 3.942,-0.95 5.16,-2.57l6.35,-8.43c0.244,-0.326 0.374,-0.723 0.37,-1.13Zm-8.55,1.83l-5,6.69c-0.315,0.423 -0.813,0.672 -1.34,0.67l-2.21,0c-0.267,-0.003 -0.485,-0.223 -0.485,-0.49c-0,-0.104 0.033,-0.206 0.095,-0.29l5,-6.7c0.318,-0.42 0.814,-0.668 1.34,-0.67l2.17,-0c0.269,-0 0.49,0.221 0.49,0.49c-0.003,0.105 -0.038,0.206 -0.1,0.29l0.04,0.01Z" style="fill:#fff;fill-rule:nonzero;"/><path d="M63.52,16.18c1.486,-0.337 2.805,-1.191 3.72,-2.41l1.46,-1.93c0.247,-0.325 0.38,-0.722 0.38,-1.13c0,-1.026 -0.844,-1.87 -1.87,-1.87c-0.003,-0 -0.007,-0 -0.01,0l-15.52,0l-10.55,14l16.06,0c2.027,0.004 3.942,-0.95 5.16,-2.57l1.49,-2c0.197,-0.259 0.302,-0.575 0.3,-0.9c-0.001,-0.477 -0.227,-0.926 -0.61,-1.21l-0.01,0.02Zm-7.1,1.82l-0.95,1.26c-0.316,0.422 -0.813,0.671 -1.34,0.67l-3.13,0l2,-2.7l3,0c0.269,0 0.49,0.221 0.49,0.49c0,0.105 -0.035,0.207 -0.1,0.29l0.03,-0.01Zm4.1,-5.44l-0.81,1.07c-0.319,0.417 -0.815,0.662 -1.34,0.66l-3.13,0l1.89,-2.51l3,0c0.269,-0 0.49,0.221 0.49,0.49c-0.003,0.105 -0.038,0.206 -0.1,0.29Z" style="fill:#fff;fill-rule:nonzero;"/></svg>