<?xml version="1.0" encoding="UTF-8" standalone="no"?><!DOCTYPE svg PUBLIC "-//W3C//DTD SVG 1.1//EN" "http://www.w3.org/Graphics/SVG/1.1/DTD/svg11.dtd"><svg width="100%" height="100%" viewBox="0 0 886 166" version="1.1" xmlns="http://www.w3.org/2000/svg" xmlns:xlink="http://www.w3.org/1999/xlink" xml:space="preserve" xmlns:serif="http://www.serif.com/" style="fill-rule:evenodd;clip-rule:evenodd;stroke-linejoin:round;stroke-miterlimit:2;"><g id="Layer-1" serif:id="Layer 1"><g id="g3359"><g id="g3371"><path id="path3356" d="M838.877,142.146c-0,-12.962 10.523,-23.478 23.478,-23.478c12.962,-0 23.472,10.516 23.472,23.478c0,12.962 -10.51,23.472 -23.472,23.472c-12.955,-0 -23.478,-10.51 -23.478,-23.472" style="fill:#fff;fill-rule:nonzero;"/><path id="path3360" d="M90.109,79.968c0,-14.871 -2.873,-25.903 -8.621,-33.091c-5.754,-7.181 -14.47,-10.768 -26.189,-10.768l-12.466,0l0,90.938l9.538,0c13.017,0 22.555,-3.858 28.628,-11.603c6.067,-7.731 9.11,-19.558 9.11,-35.476m44.457,-1.549c-0,27.093 -7.283,47.969 -21.848,62.623c-14.565,14.66 -35.041,21.991 -61.434,21.991l-51.284,-0l0,-162.345l54.864,0c25.449,0 45.096,6.665 58.941,19.987c13.838,13.329 20.761,32.568 20.761,57.744" style="fill:#fff;fill-rule:nonzero;"/><rect id="path3362" x="276.623" y="0.007" width="40.808" height="163.024" style="fill:#fff;fill-rule:nonzero;"/><path id="path3366" d="M374.76,102.222c0,10.394 1.359,18.322 4.07,23.77c2.717,5.456 7.268,8.18 13.668,8.18c6.331,-0 10.809,-2.724 13.417,-8.18c2.609,-5.448 3.906,-13.376 3.906,-23.77c0,-10.34 -1.318,-18.139 -3.96,-23.404c-2.65,-5.278 -7.167,-7.921 -13.573,-7.921c-6.264,0 -10.741,2.629 -13.458,7.86c-2.711,5.238 -4.07,13.057 -4.07,23.465m76.597,-0c-0,19.803 -5.19,35.251 -15.598,46.325c-10.401,11.08 -24.959,16.624 -43.675,16.624c-17.949,-0 -32.236,-5.666 -42.84,-16.998c-10.618,-11.331 -15.924,-26.644 -15.924,-45.951c-0,-19.742 5.197,-35.082 15.605,-46.019c10.407,-10.938 24.999,-16.407 43.79,-16.407c11.611,0 21.882,2.534 30.782,7.596c8.906,5.061 15.781,12.309 20.611,21.752c4.837,9.43 7.249,20.462 7.249,33.078" style="fill:#fff;fill-rule:nonzero;"/><path id="path3370" d="M467.563,163.031l40.816,0l-0,-121.094l-40.816,-0l0,121.094Z" style="fill:#fff;fill-rule:nonzero;"/><rect id="path3372" x="467.562" y="0" width="40.815" height="27.29" style="fill:#fff;fill-rule:nonzero;"/><path id="path3376" d="M591.068,132.145c5.51,-0 12.073,-1.4 19.729,-4.178l-0,30.468c-5.503,2.419 -10.734,4.151 -15.707,5.177c-4.973,1.04 -10.809,1.556 -17.486,1.556c-13.703,-0 -23.58,-3.444 -29.647,-10.32c-6.04,-6.875 -9.069,-17.432 -9.069,-31.678l-0,-49.918l-14.294,-0l0,-31.305l14.294,0l-0,-30.924l41.127,-7.153l0,38.077l26.04,0l-0,31.305l-26.04,-0l0,47.133c0,7.84 3.689,11.76 11.053,11.76" style="fill:#fff;fill-rule:nonzero;"/><path id="path3380" d="M685.53,132.145c5.51,-0 12.072,-1.4 19.728,-4.178l0,30.468c-5.495,2.419 -10.733,4.151 -15.706,5.177c-4.98,1.04 -10.795,1.556 -17.487,1.556c-13.702,-0 -23.58,-3.444 -29.633,-10.32c-6.053,-6.875 -9.083,-17.432 -9.083,-31.678l0,-49.918l-14.3,-0l-0,-31.305l14.3,0l0,-31.393l41.121,-6.684l0,38.077l26.054,0l-0,31.305l-26.054,-0l0,47.133c0,7.84 3.689,11.76 11.06,11.76" style="fill:#fff;fill-rule:nonzero;"/><path id="path3384" d="M756.758,87.47c0.557,-6.631 2.452,-11.488 5.685,-14.593c3.248,-3.098 7.256,-4.646 12.053,-4.646c5.231,-0 9.388,1.739 12.473,5.244c3.104,3.485 4.721,8.152 4.85,13.995l-35.061,-0Zm57.554,-33.397c-9.701,-9.511 -23.465,-14.273 -41.27,-14.273c-18.717,-0 -33.119,5.469 -43.214,16.406c-10.089,10.938 -15.136,26.631 -15.136,47.079c0,19.803 5.456,35.075 16.339,45.795c10.89,10.72 26.181,16.087 45.876,16.087c9.457,0 17.595,-0.645 24.416,-1.929c6.78,-1.271 13.342,-3.567 19.708,-6.882l-6.271,-27.29c-4.626,1.889 -9.028,3.343 -13.185,4.301c-6.006,1.392 -12.596,2.092 -19.77,2.092c-7.866,0 -14.076,-1.922 -18.627,-5.768c-4.552,-3.852 -6.978,-9.164 -7.256,-15.93l72.949,-0l-0,-18.594c-0,-17.887 -4.851,-31.59 -14.559,-41.094" style="fill:#fff;fill-rule:nonzero;"/><path id="path3388" d="M188.73,87.47c0.557,-6.631 2.452,-11.488 5.685,-14.593c3.241,-3.098 7.256,-4.646 12.059,-4.646c5.218,-0 9.375,1.739 12.467,5.244c3.104,3.485 4.714,8.152 4.857,13.995l-35.068,-0Zm57.561,-33.397c-9.708,-9.511 -23.465,-14.273 -41.277,-14.273c-18.724,-0 -33.119,5.469 -43.207,16.406c-10.088,10.938 -15.143,26.631 -15.143,47.079c0,19.803 5.449,35.075 16.345,45.795c10.884,10.72 26.175,16.087 45.87,16.087c9.457,0 17.595,-0.645 24.416,-1.929c6.78,-1.271 13.342,-3.567 19.715,-6.882l-6.277,-27.29c-4.627,1.889 -9.029,3.343 -13.18,4.301c-6.019,1.392 -12.602,2.092 -19.776,2.092c-7.86,0 -14.076,-1.922 -18.627,-5.768c-4.559,-3.852 -6.977,-9.164 -7.256,-15.93l72.949,-0l-0,-18.594c-0,-17.887 -4.851,-31.59 -14.552,-41.094" style="fill:#fff;fill-rule:nonzero;"/></g></g></g></svg>