<?xml version="1.0" encoding="UTF-8" standalone="no"?><!DOCTYPE svg PUBLIC "-//W3C//DTD SVG 1.1//EN" "http://www.w3.org/Graphics/SVG/1.1/DTD/svg11.dtd"><svg width="100%" height="100%" viewBox="0 0 133 50" version="1.1" xmlns="http://www.w3.org/2000/svg" xmlns:xlink="http://www.w3.org/1999/xlink" xml:space="preserve" xmlns:serif="http://www.serif.com/" style="fill-rule:evenodd;clip-rule:evenodd;stroke-linejoin:round;stroke-miterlimit:2;"><path d="M46.4,32.1c-0.3,-0.1 -0.9,-0.2 -1.5,-0.2c-2,0 -3.5,1.3 -3.5,3.3c0,1.9 1.3,3.3 3.5,3.3c0.5,0 1.3,-0.1 1.7,-0.2l0,-3.3l-1.1,0l0,2.4c-0.1,0 -0.4,0.1 -0.6,0.1c-1.4,0 -2.3,-1 -2.3,-2.3c0,-1.2 1,-2.2 2.4,-2.2c0.5,0 1,0.1 1.5,0.3l-0.1,-1.2Zm8.9,0c-0.3,-0.1 -0.9,-0.2 -1.5,-0.2c-2,0 -3.5,1.3 -3.5,3.3c0,1.9 1.3,3.3 3.5,3.3c0.5,0 1.3,-0.1 1.7,-0.2l0,-3.3l-1.1,0l0,2.4c-0.1,0 -0.4,0.1 -0.6,0.1c-1.4,0 -2.3,-1 -2.3,-2.3c0,-1.2 1,-2.2 2.4,-2.2c0.5,0 1,0.1 1.5,0.3l-0.1,-1.2Zm10.6,5.4c1.3,0 2.2,-1 2.2,-2.3c0,-1.2 -0.9,-2.3 -2.2,-2.3c-1.3,0 -2.2,1 -2.2,2.3c0,1.2 1,2.3 2.2,2.3Zm0,-5.7c1.9,0 3.3,1.5 3.3,3.3c0,1.9 -1.5,3.3 -3.3,3.3c-1.9,0 -3.3,-1.5 -3.3,-3.3c0,-1.8 1.5,-3.3 3.3,-3.3Zm-52.4,1.4l0.9,2.4l-1.9,0l1,-2.4Zm2,5.2l1.2,0l-2.7,-6.5l-1.1,0l-2.6,6.5l1.2,0l0.7,-1.8l2.7,0c-0.1,0 0.6,1.8 0.6,1.8Zm23.4,-6.5l0,4.5l-3.5,-4.5l-1,0l0,6.5l1.1,0l0,-4.7l3.7,4.7l0.8,0l0,-6.5l-1.1,0Zm-31.6,1c0.5,0 1,0.3 1,0.8c0,0.5 -0.4,0.9 -0.9,0.9l-1.2,0l0,-1.7l1.1,0Zm51.9,0c0.7,0 1.1,0.3 1.1,1c0,0.6 -0.4,1 -1.1,1l-1,0l0,-1.9l1,-0.1Zm20.2,0c0.7,0 1.1,0.4 1.1,1c0,0.6 -0.5,1 -1.2,1l-0.9,0l0,-2.1l1,0.1Zm-71.9,2.7c0.6,0 1,0.4 1,0.9c0,0.6 -0.4,0.9 -1.2,0.9l-1.1,0l0,-1.8l1.3,0Zm23.9,2.8l1.1,0l0,-6.5l-1.1,0l0,6.5Zm-26.4,-27.4l0,14.4l9.1,0l0,-2.4l-6.6,0l0,-12l-2.5,0Zm11.8,0l0,14.4l9.1,0l0,-2.4l-6.7,0l0,-12l-2.4,0Zm36.3,0l-3.9,6.7l-4.2,-6.7l-2.9,0l5.6,8.8l-3.4,5.6l2.8,0l8.7,-14.4l-2.7,0Zm9.3,2.3c2.9,0 4.9,2.1 4.9,4.9c0,2.8 -2,4.9 -4.9,4.9l-2.1,0l0,-9.8l2.1,0Zm11.4,-1.5c-1,0.7 -1.5,1.8 -1.5,3c0,2.4 1.9,3.5 3.8,4.1c1.7,0.6 3.2,1 3.2,2.4c0,1.4 -1.3,2 -2.6,2c-1.6,0 -3.2,-0.6 -4.1,-1.3l-0.1,0l0,2.5c0.8,0.5 2.4,1 4.2,1c2.5,0 4.9,-1.7 4.9,-4.3c0,-2.4 -1.7,-3.6 -4,-4.3c-2.4,-0.7 -3.1,-1.3 -3.1,-2.2c0,-1.3 1.4,-1.7 2.6,-1.7c1,0 2.3,0.2 3.4,0.8l0,-2.3c-1.1,-0.5 -2.3,-0.7 -3.6,-0.7c-1.1,0.1 -2.2,0.4 -3.1,1Zm-39.6,11.5c2.8,0 4.9,-2.3 4.9,-5.1c-0,-2.8 -2.1,-5.1 -4.9,-5.1c-2.8,0 -4.9,2.3 -4.9,5.1c-0,2.8 2,5.1 4.9,5.1Zm23.6,-12.3l-0,14.4l4.6,0c4.1,0 7.4,-3.1 7.4,-7.2c-0,-4.2 -3.4,-7.2 -7.4,-7.2l-4.6,0Zm-23.6,-0.2c4.1,0 7.4,3.3 7.4,7.4c-0,4.2 -3.2,7.4 -7.4,7.4c-4.2,0 -7.4,-3.3 -7.4,-7.4c-0,-4.1 3.2,-7.4 7.4,-7.4Zm40.4,21.1l-0,4.1c-0,0.9 -0.5,1.4 -1.4,1.4c-0.9,0 -1.4,-0.6 -1.4,-1.4l-0,-4.1l-1.1,0l-0,4.1c-0,1.5 1,2.4 2.5,2.4c1.5,0 2.5,-0.9 2.5,-2.4l-0,-4.1l-1.1,0Zm-45.6,0l-2.7,3l-0,-3l-1.1,0l-0,6.5l1.1,0l-0,-3.1l2.8,3.1l1.5,0l-3,-3.3l2.9,-3.2l-1.5,0Zm48.4,0l-0,6.5l1.1,0l-0,-2.3l0.9,0c1.3,0 2.3,-0.8 2.3,-2.1c-0,-1.2 -0.9,-2.1 -2.2,-2.1l-2.1,0Zm-55.2,0l-0,4.5l-3.5,-4.5l-1,0l-0,6.5l1.1,0l-0,-4.7l3.7,4.7l0.8,0l-0,-6.5l-1.1,0Zm35,0l-0,6.5l1.1,0l-0,-2.6l0.9,0l1.4,2.6l1.2,0l-1.6,-2.7c0.8,-0.3 1.2,-1 1.2,-1.8c-0,-1.3 -0.9,-2 -2.2,-2l-2,0Zm-52.1,0l-0,6.5l2.3,0c1.3,0 2.3,-0.6 2.3,-1.9c-0,-0.7 -0.3,-1.2 -1,-1.6c0.4,-0.2 0.7,-0.7 0.7,-1.3c-0,-1.1 -0.9,-1.7 -2,-1.7l-2.3,0Z" style="fill:#fff;"/><g><path d="M87,45.8l41.8,-0l0,-41.6l-41.8,-0l0,41.6Z" style="fill:#fff;"/><g><path d="M123.982,25.533c0.6,0.5 1.3,0.8 1.3,1.6c0,0.2 -0.3,0.4 -0.9,0.4c-0.5,0 -1,-0.1 -1.2,-0.5c-0.2,-0.3 0.1,-0.6 -0.1,-0.9c-0.1,-0.2 -0.4,-0.1 -0.6,-0.2c-0.2,-0.1 -0.3,-0.2 -0.4,-0.6c-0.2,-0.4 -0.8,-1 -1.4,-1.7c-0.6,-0.6 -1.2,-0.9 -1.5,-0.9l-0.5,0c-0.5,0 -0.9,0.5 -1.6,0.8c-0.5,0.2 -0.8,0.3 -1.1,0.4l-0.1,0.1l0.6,0c0.6,0 1.4,-0.1 2,-0.1c0.6,0 0.9,0.6 1.2,1.1c0.5,1.2 1.2,2.9 2,4.3c0.4,0.7 0.8,1.1 0.8,1.9c0,0.3 0,0.6 -0.4,0.6c-0.5,0 -1.7,-0.5 -1.7,-1c0,-0.4 0.3,-0.6 0.3,-1c0,-0.3 -0.4,-0.2 -0.5,-0.5c-0.3,-1.3 -0.7,-2.5 -1.4,-3.3c-0.4,-0.4 -0.4,-0.6 -0.8,-0.6c-0.2,0 -0.4,0 -0.6,0.1c-1,0.4 -2.3,1.5 -4,2c-0.6,0.2 -0.7,-0.2 -1.4,0c-0.5,0.1 -0.9,0.4 -1.6,0.6c-1,0.3 -2.7,0.4 -4.1,0.2c-1,-0.1 -2.2,-0.3 -2.8,-0.3c-0.4,1.2 -1.3,2.7 -2.6,3.3c-0.7,0.3 -0.9,0.7 -0.7,1.5c0.3,1 1.1,1.7 1.6,2.5c0.4,0.7 1.1,1.8 1.8,2.2c0.7,0.4 1.1,0.9 1.1,1.4c0,0.2 -0.1,0.3 -0.3,0.3l-1.4,0c-0.2,0 -0.3,-0.1 -0.4,-0.2c-0.2,-0.4 -0.1,-0.7 -0.3,-1c-0.2,-0.2 -0.3,-0.2 -0.6,-0.4c-0.4,-0.4 -0.1,-0.6 -0.4,-1.2c-0.9,-1.4 -1.3,-1.8 -2.1,-2.8c-0.4,-0.5 -1,-0.8 -1,-1.5c0,-0.9 0.9,-1 0.8,-1.9c-0.6,0.4 -1.2,0.7 -2.2,0.9c-0.1,0 -0.5,0.3 -0.6,0.5c-0.3,0.3 -0.5,0.7 -0.5,1.2c-0.1,1.2 -0.3,2.3 -0.2,3.5c0.2,0.8 0.3,1 1,1.4c0.4,0.3 0.8,0.6 0.9,1.2c0,0.2 0,0.3 -0.3,0.3l-1.5,0c-0.2,0 -0.3,-0.1 -0.3,-0.2c-0.2,-0.3 -0.1,-0.5 -0.1,-0.9c-0.2,-0.7 -1,-0.7 -1,-1.4c0,-0.2 0.1,-0.5 0.2,-0.9c0,-1 0.3,-2.6 0,-4.5c-0.1,-1.1 1,-1.2 1.6,-2.2c0.4,-0.6 0.3,-0.3 0.5,-0.7c0.2,-0.4 0.2,-0.7 0.2,-1c0,-0.3 -0.3,-1 -0.1,-2.4c0.1,-0.6 0.4,-1.2 0.8,-1.8c0,0 0,-0.1 -0.1,-0.1c-0.6,0 -0.6,-0.1 -1,-0.1c-0.4,0 -0.7,0.3 -0.8,0.5c-0.2,-0.1 -0.3,-0.3 -0.3,-0.4c0,-0.2 0,-0.4 0.3,-0.6c0.1,-0.1 0,-0.1 -0.1,-0.1c-0.5,0 -0.9,0.6 -1,1c-0.3,0 -0.3,-0.4 -0.4,-0.4c-0.1,0 -0.2,0.2 -0.2,0.4c0,1.4 2.2,1.7 2.2,3.5c0,2.1 -2.5,1.7 -2.5,2.4c0,0.2 0.1,0.3 0.3,0.4c-0.1,0.2 -0.3,0.3 -0.5,0.3c-0.6,0 -1,-0.4 -1,-1c0,-1.1 1.5,-1.2 1.5,-2c0,-0.4 -0.3,-0.5 -0.5,-0.7c-1.5,-1 -2.3,-2.1 -2.3,-3.8c0,-1.8 1.3,-3.2 2.9,-3.2c2.4,0 2.5,2.8 4.7,3c0.8,-0.6 1.8,-0.9 2.7,-0.9c1.4,0 2.1,0.4 3.6,0.4c0.6,0 1.6,-0.2 2.8,-1c0.5,-0.3 0.6,-0.4 1.1,-0.7c1,-0.8 1.8,-2.4 1.8,-3.6l0,0.1c0,-0.4 -0.1,-0.6 -0.3,-0.6c-0.5,0 -1,0.5 -1.5,1c-0.3,0.3 0.2,0.5 -0.6,0.9c-0.3,0.1 -0.6,-0.1 -0.8,-0.1c-0.6,0 -0.8,-0.7 -0.8,-1.3c0,-0.3 0.2,-0.4 0.4,-0.7c0.3,-0.6 0.3,-0.8 0.6,-1.4c0.2,-0.4 0.5,-0.6 0.5,-0.9c0,-0.1 -0.1,-0.2 -0.1,-0.3c0,-0.6 0.8,-1 0.8,-1.6c0,-0.3 -0.4,-0.5 -0.5,-0.7c-0.1,-0.3 0,-0.3 0,-0.3l0.1,-0.1c0.3,0 0.4,0.3 0.7,0.5c0,-0.4 -0.1,-0.5 -0.1,-0.8c0,-0.2 0,-0.4 0.1,-0.4c0.2,0 0.2,0.3 0.3,0.4c0.2,0.2 0.4,0.2 0.6,0.3c0.3,0.2 0.5,0.5 0.6,0.5c0.3,0 0.4,-0.3 0.2,-0.5c0.3,0 0.7,0.3 1.1,0.3c0.7,0 1,0.2 1.1,0.3c0.5,0.4 0.5,0.7 1,0.7c0.3,0 0.4,-0.2 0.5,-0.3c0.3,0.3 0.4,0.9 0,1.4c0.2,0.5 0.8,0.5 1.1,0.7c0.3,0.2 0.3,0.3 0.5,0.5c0.2,0.1 0.3,0.1 0.5,0c0.2,0.6 -0.4,1.1 -1,1.2c0,0.8 0.8,1.2 1.2,1.4c-0.2,0.5 -0.6,0.6 -1,0.7c0.1,0.5 0.6,1.2 0.4,1.8c-0.2,-0.1 -0.6,0 -0.6,0.3c0,0.4 0.5,0.6 0,0.9c-0.2,0.1 -0.3,0.5 0.2,0.8c0.6,-0.2 1.1,-0.1 1.7,-0.1c0.4,0 0.9,-0.1 1.3,-0.1c0.7,0 1,0.3 1.5,0.8c1.4,1.4 2.5,2.8 3.7,3.7" style="fill:#020202;"/><path d="M91.982,22.033c0.3,0 0.7,-1.4 1.7,-1.4c0.3,0 0.3,0.1 0.3,0.2c0,0.2 -0.3,0.4 -0.3,0.6c0,0 0,0.1 0.1,0.1c0.2,0 0.4,-0.5 1.4,-0.5c0.3,0 0.5,0 0.7,0.1c0.1,0 0.3,0.1 0.2,-0.2c-0.2,-0.7 -1,-1.3 -2,-1.3c-1,0 -2.1,0.9 -2.2,2c0,0.3 0,0.4 0.1,0.4" style="fill:#6d6e70;"/><path d="M109.882,13.233c-0.3,-0.1 -0.3,-0.3 -0.2,-0.6c0.1,-0.4 0.1,-0.5 -0.1,-0.6c-0.2,0 -0.3,0 -0.5,0.3c-0.2,0.2 -0.5,0.5 -0.5,0.8c-0.1,0.3 0.3,0.3 0,0.8c-0.5,0.8 -0.6,1 -0.8,1.6c-0.2,0.6 -0.3,0.7 -0.5,0.9c-0.1,0.2 0.2,0.2 0.5,0.1c0.4,-0.1 0.4,0.3 0.3,0.6c-0.1,0.2 0,0.3 0.3,0.1c0.3,-0.2 -0.2,-0.4 0,-1.1c0.1,-0.6 0.2,-1 0.6,-1.6c0.3,-0.5 0.6,-0.9 1.2,-0.7c0.1,-0.1 0,-0.5 -0.3,-0.6" style="fill:#6d6e70;"/><path d="M121.882,31.433c0.1,0 0.1,-0.2 0.1,-0.3c0,-0.3 -0.2,-0.8 -0.4,-0.9c-0.1,0.5 -0.3,0.8 -0.3,0.9c0,0.2 0.5,0.3 0.6,0.3" style="fill:#6d6e70;"/><path d="M124.582,27.133c0.2,0 0.4,-0.1 0.4,-0.2c0,-0.3 -0.4,-0.7 -0.7,-0.8c0.2,0.5 0,1 0.3,1" style="fill:#6d6e70;"/><path d="M112.682,21.233c2.4,1.1 2.3,3.2 2.5,2.6c0.1,-0.2 0.4,-1.2 -0.5,-2.2c-0.7,-0.8 -0.9,-0.6 -0.7,-1.2c1.1,-2.6 1.7,-6.4 -1.4,-7.8c-0.4,-0.2 -0.7,-0.2 -0.7,-0.1c0,0.1 0.3,0.2 0.8,0.5c2.1,1.4 1.5,5.2 -0.5,7.1c-0.6,0.6 -0.3,0.8 0.5,1.1" style="fill:#6d6e70;"/><path d="M104.382,39.133c0.2,0 0.1,-0.3 0,-0.4c-0.2,-0.3 -0.4,-0.4 -0.7,-0.5c0.1,0.3 0.1,0.9 0.3,0.9l0.4,0Z" style="fill:#6d6e70;"/><path d="M96.982,39.133c0.2,0 0,-0.3 0,-0.4c-0.2,-0.3 -0.5,-0.4 -0.7,-0.5c0.1,0.3 0.1,0.9 0.4,0.9l0.3,0Z" style="fill:#6d6e70;"/><path d="M105.882,24.533c1.3,-0.2 1.6,-0.5 1.8,-1.5c0.1,-0.5 0.5,-1 0.8,-1.3c0.2,-0.2 0.4,-0.4 0.6,-0.7c0.1,-0.1 0.1,-0.2 0,-0.2c-0.2,0.1 -0.6,0.4 -0.8,0.6c-1,0.7 -2.4,1 -3,1c-1.2,0 -2.3,-0.4 -3.4,-0.4c-3.4,0 -4.6,2.6 -4.5,4.2c0,0.2 0.1,0.3 0.2,0.3c0.2,0 0.4,-0.9 1.3,-1.7c1.2,-1.2 2.6,-1.8 4.5,-1.8c1.4,0 1.9,0.5 1.9,0.6c0,0.3 -0.6,0.4 -0.5,0.7c-0.1,0.1 0.3,0.3 1.1,0.2" style="fill:#6d6e70;"/></g></g></svg>