<?xml version="1.0" encoding="UTF-8" standalone="no"?><!DOCTYPE svg PUBLIC "-//W3C//DTD SVG 1.1//EN" "http://www.w3.org/Graphics/SVG/1.1/DTD/svg11.dtd"><svg width="100%" height="100%" viewBox="0 0 352 259" version="1.1" xmlns="http://www.w3.org/2000/svg" xmlns:xlink="http://www.w3.org/1999/xlink" xml:space="preserve" xmlns:serif="http://www.serif.com/" style="fill-rule:evenodd;clip-rule:evenodd;stroke-linejoin:round;stroke-miterlimit:2;"><path id="path17" d="M349.007,250.597c0,3.771 -2.769,6.302 -6.047,6.302l0,-0.023c-3.371,0.023 -6.089,-2.508 -6.089,-6.278c0,-3.769 2.718,-6.293 6.089,-6.293c3.279,-0.001 6.047,2.523 6.047,6.292Zm2.453,0c0,-5.175 -4.02,-8.179 -8.5,-8.179c-4.511,0 -8.531,3.004 -8.531,8.179c0,5.172 4.021,8.188 8.531,8.188c4.481,0 8.5,-3.016 8.5,-8.188m-9.91,0.692l0.91,0l2.109,3.703l2.316,-0l-2.336,-3.859c1.207,-0.086 2.2,-0.661 2.2,-2.286c0,-2.019 -1.392,-2.668 -3.75,-2.668l-3.411,0l0,8.813l1.961,0l0,-3.703m0.001,-1.492l0,-2.122l1.364,0c0.742,0 1.753,0.06 1.753,0.965c0,0.985 -0.523,1.157 -1.398,1.157l-1.719,0" style="fill:#fff;fill-rule:nonzero;"/><path id="path19" d="M294.218,205.515l10.598,28.993l-21.524,-0l10.926,-28.993Zm-11.35,-11.289l-24.423,61.88l17.246,-0l3.863,-10.934l28.903,-0l3.656,10.934l18.722,-0l-24.605,-61.888l-23.362,0.008Zm-49.033,61.903l17.497,-0l0,-61.922l-17.5,-0.004l0.003,61.926Zm-121.467,-61.926l-14.598,49.078l-13.984,-49.074l-18.879,-0.004l19.972,61.926l25.207,-0l20.133,-61.926l-17.851,-0Zm70.725,13.484l7.52,-0c10.91,-0 17.966,4.898 17.966,17.609c0,12.714 -7.056,17.613 -17.966,17.613l-7.52,-0l0,-35.222Zm-17.35,-13.484l0,61.926l28.366,-0c15.113,-0 20.048,-2.512 25.384,-8.148c3.769,-3.957 6.207,-12.641 6.207,-22.134c0,-8.707 -2.063,-16.468 -5.66,-21.304c-6.481,-8.649 -15.817,-10.34 -29.75,-10.34l-24.547,-0Zm-165.743,-0.086l0,62.012l17.645,-0l-0,-47.086l13.672,0.004c4.527,-0 7.754,1.128 9.934,3.457c2.765,2.945 3.894,7.699 3.894,16.395l-0,27.23l17.098,-0l-0,-34.262c-0,-24.453 -15.586,-27.75 -30.836,-27.75l-31.407,-0Zm137.583,0.086l0.007,61.926l17.489,-0l0,-61.926l-17.496,-0Z" style="fill:#fff;fill-rule:nonzero;"/><path id="path21" d="M47.023,70.902c-0,0 22.504,-33.203 67.437,-36.638l-0,-12.046c-49.769,3.997 -92.867,46.149 -92.867,46.149c-0,-0 24.41,70.565 92.867,77.026l-0,-12.804c-50.237,-6.32 -67.437,-61.687 -67.437,-61.687Zm67.437,36.223l-0,11.726c-37.968,-6.769 -48.507,-46.237 -48.507,-46.237c-0,0 18.23,-20.195 48.507,-23.47l-0,12.867c-0.023,0 -0.039,-0.007 -0.058,-0.007c-15.891,-1.907 -28.305,12.938 -28.305,12.938c-0,0 6.958,24.991 28.363,32.183m-0,-107.125l-0,22.218c1.461,-0.112 2.922,-0.207 4.391,-0.257c56.582,-1.907 93.449,46.406 93.449,46.406c0,0 -42.343,51.488 -86.457,51.488c-4.043,0 -7.828,-0.375 -11.383,-1.005l-0,13.739c3.04,0.386 6.192,0.613 9.481,0.613c41.051,0 70.738,-20.965 99.484,-45.778c4.766,3.817 24.278,13.103 28.289,17.168c-27.332,22.883 -91.031,41.329 -127.144,41.329c-3.481,0 -6.824,-0.211 -10.11,-0.528l-0,19.306l156.032,0l-0,-164.699l-156.032,0Zm-0,49.144l-0,-14.879c1.446,-0.101 2.903,-0.179 4.391,-0.226c40.688,-1.278 67.382,34.965 67.382,34.965c0,0 -28.832,40.043 -59.746,40.043c-4.449,0 -8.438,-0.715 -12.028,-1.922l0,-45.114c15.84,1.914 19.028,8.911 28.551,24.786l21.18,-17.859c0,0 -15.461,-20.277 -41.524,-20.277c-2.833,-0.001 -5.544,0.198 -8.206,0.483" style="fill:#fff;fill-rule:nonzero;"/></svg>