<?xml version="1.0" encoding="UTF-8" standalone="no"?><!DOCTYPE svg PUBLIC "-//W3C//DTD SVG 1.1//EN" "http://www.w3.org/Graphics/SVG/1.1/DTD/svg11.dtd"><svg width="100%" height="100%" viewBox="0 0 151 41" version="1.1" xmlns="http://www.w3.org/2000/svg" xmlns:xlink="http://www.w3.org/1999/xlink" xml:space="preserve" xmlns:serif="http://www.serif.com/" style="fill-rule:evenodd;clip-rule:evenodd;stroke-linejoin:round;stroke-miterlimit:2;"><g id="g4086"><rect id="path3963" x="57.236" y="6.354" width="2.12" height="4.238" style="fill:#fff;fill-rule:nonzero;"/><rect id="path3965" x="57.236" y="12.709" width="2.12" height="21.192" style="fill:#fff;fill-rule:nonzero;"/><g id="g3967"><path id="path3969" d="M73.128,31.546l-8.477,-18.836l-2.118,-0l9.536,21.191l2.121,0l9.533,-21.191l-2.118,-0l-8.477,18.836Z" style="fill:#fff;fill-rule:nonzero;"/></g><g id="g3971"><path id="path3973" d="M124.78,29.663l7.698,-17.588l7.674,17.588l-15.372,-0Zm10.862,-29.663l-2.118,0l-2.118,4.843l-12.718,29.059l31.791,-0l-14.837,-33.902Z" style="fill:#fff;fill-rule:nonzero;"/></g><g id="g3975"><g id="g3977"><g id="g3983"><path id="path3985" d="M104.913,19.067c0,-3.513 2.843,-6.357 6.359,-6.357l6.356,-0l0,2.119l-6.356,0c-2.344,0 -4.239,1.896 -4.239,4.238l0,14.834l-2.12,0l0,-14.834Z" style="fill:#fff;fill-rule:nonzero;"/></g><g id="g3987"><path id="path3989" d="M15.914,27.566c0,2.343 -1.895,4.238 -4.237,4.238l-5.32,-0c-2.342,-0 -4.237,-1.895 -4.237,-4.238l0.021,-8.499c0,-2.342 1.896,-4.237 4.238,-4.237l5.298,-0c2.342,-0 4.237,1.895 4.237,4.237l0,8.499Zm2.12,-8.499c0,-3.513 -2.843,-6.357 -6.357,-6.357l-5.298,0c-3.514,0 -6.357,2.844 -6.357,6.357l-0.022,8.499c0,3.515 2.843,6.357 6.357,6.357l5.32,0c3.514,0 6.357,-2.842 6.357,-6.357l0,-8.499Z" style="fill:#fff;fill-rule:nonzero;"/></g><g id="g3991"><path id="path3993" d="M36.046,27.544c0,2.341 -1.896,4.237 -4.237,4.237l-8.477,0.001l-0,-16.954l8.477,0c2.341,0 4.237,1.897 4.237,4.239l0,8.477Zm2.119,-8.477c-0,-3.513 -2.843,-6.357 -6.356,-6.358l-10.595,0.001l-0,27.547l2.118,0l-0,-6.355l8.477,-0c3.513,-0 6.357,-2.845 6.357,-6.358l-0.001,-8.477Z" style="fill:#fff;fill-rule:nonzero;"/></g><g id="g3995"><path id="path3997" d="M44.522,27.545c0,2.34 1.895,4.237 4.238,4.237l5.297,-0l0,2.119l-5.297,0c-3.515,0 -6.357,-2.844 -6.357,-6.356l0.001,-12.716l-2.12,0l0,-2.119l2.12,-0l0,-4.238l2.118,-0l0,4.238l7.874,-0l-0.954,2.119l-6.92,0l0,12.716Z" style="fill:#fff;fill-rule:nonzero;"/></g><g id="g3999"><path id="path4001" d="M86.903,19.067c-0,-2.342 1.896,-4.238 4.239,-4.238l4.404,0.005l-0.166,-0.005c2.342,0 4.237,1.896 4.237,4.238l0,2.118l-12.714,0l-0,-2.118Zm12.714,8.477c0,2.341 -1.895,4.238 -4.237,4.238l-4.238,-0c-2.344,-0 -4.239,-1.897 -4.239,-4.236l-0,-4.24l14.832,0l0,-4.239c0,-3.513 -2.844,-6.357 -6.355,-6.357l-4.238,-0c-3.515,-0 -6.359,2.844 -6.359,6.357l0.001,8.479c0,3.511 2.843,6.355 6.358,6.355l4.238,0c3.511,0 6.355,-2.844 6.355,-6.357l-2.118,0Z" style="fill:#fff;fill-rule:nonzero;"/></g></g></g></g></svg>